<?xml version="1.0" encoding="utf-8"?>
<!-- Generator: Adobe Illustrator 28.3.0, SVG Export Plug-In . SVG Version: 6.00 Build 0)  -->
<svg version="1.1" id="Capa_1" xmlns="http://www.w3.org/2000/svg" xmlns:xlink="http://www.w3.org/1999/xlink" x="0px" y="0px"
	 viewBox="0 0 3777.3 2605.2" style="enable-background:new 0 0 3777.3 2605.2;" xml:space="preserve">
<style type="text/css">
	.st0{fill:#DBE5E5;}
	.st1{fill:#FFFFFF;}
	.st2{fill:#FFFFFF;stroke:#423C52;stroke-width:5;stroke-linecap:round;stroke-miterlimit:10;}
	.st3{fill:#423C52;}
	.st4{fill:#1D1D1B;}
	.st5{fill:#1D1D1B;stroke:#FE552F;stroke-width:5;stroke-linecap:round;stroke-miterlimit:10;}
	.st6{fill:none;stroke:#FE552F;stroke-width:5;stroke-linecap:round;stroke-miterlimit:10;}
	.st7{fill:#120E08;}
	.st8{fill:#01212A;}
	.st9{fill:#7ABB50;}
	.st10{fill:none;stroke:#41465A;stroke-width:6;stroke-miterlimit:10;}
	.st11{fill:#FFDB00;}
	.st12{fill:none;stroke:#41465A;stroke-width:6;stroke-linecap:round;stroke-miterlimit:10;}
	.st13{fill:#33AA4A;}
	.st14{fill:#77BA55;}
	.st15{fill:#5EB130;}
	.st16{fill:#5189C8;}
	.st17{fill:none;stroke:#423C52;stroke-width:5;stroke-linecap:round;stroke-miterlimit:10;}
	.st18{fill:#945815;}
	.st19{fill:#32140C;stroke:#423C52;stroke-width:5;stroke-linecap:round;stroke-miterlimit:10;}
	.st20{fill:#FFFFFF;stroke:#423C52;stroke-width:5;stroke-linecap:round;stroke-linejoin:round;}
	.st21{fill:#F8BBAA;}
	.st22{fill:#FAD0C9;}
	.st23{fill:#F7BDB4;}
	.st24{fill:#F8C2BF;}
</style>
<g id="Layer_2">
	<g id="Слой_1">
		<g id="GROUND">
			<path class="st0" d="M3745.2,2446L3745.2,2446c-40.7,64.1-111.3,102.8-187.2,102.6c-892.7-1.8-1712-22-1712-49.8
				C1846,2469.7,2806.6,2446.1,3745.2,2446z"/>
			<ellipse class="st0" cx="2331.6" cy="2587.9" rx="169.2" ry="17.4"/>
		</g>
		<g id="FACTORY">
			<g id="SMOKE">
				<path class="st0" d="M1624.3,518.1c0,99.9-39.9,189.8-108.6,267.7c-26.5,30-57.2,54.8-91.6,79.8v287.4h-87
					c0,0-106.9-60.7-63.1-159.8c9.6-21.8,28.6-42.3,53-62.8c26.9-22.7,60.6-40.5,95.7-65.3C1405.1,640.1,1217.2,458,988.2,458
					c-125.1,0-238,52.9-317.5,137.5l0,0c88.1,67.5,144.1,168.9,144.1,282.3c0,33.8-5.1,67.4-15,99.7c25.4,7,49.3,18.6,70.6,34.2
					c44.3,32.8,72.4,81.6,72.4,136c0,67.8-43.5,126.7-107.6,157c-30.9,14.5-64.6,21.9-98.7,21.8c-82.5,0-153.7-42-186.7-102.7
					c-44.3,14.6-90.6,22.1-137.2,22c-222.1,0-402.1-164.8-402.1-368c0-159.7,111.1-295.6,266.5-346.5v-13.1
					c0-118.9,56.5-238,150.8-323.5C551.4,82.6,739.7,21,950.7,21c71.9-0.1,143.6,8.4,213.5,25.5c0,0-80.8,84.9-42,207.8
					c18.4-139.9,131.7-247.6,268.7-247.6c149.8,0,271.3,128.8,271.3,287.8L1624.3,518.1z"/>
				<ellipse class="st0" cx="821.6" cy="1424" rx="148.1" ry="49"/>
				<circle class="st0" cx="2770.7" cy="61.2" r="40"/>
				<circle class="st1" cx="465.7" cy="1126.4" r="38.6"/>
				<circle class="st0" cx="139.9" cy="151.4" r="139.9"/>
				<path class="st0" d="M2770.7,291.1c0,90.9-40.8,172.1-104.8,225.5c-48.1,47.6-119.1,88.7-223.9,109.2
					c-219.6,43.1-439.2-50.2-439.2-50.2l-359.6,291.3c0,0,170.3,105.4,63,286.2h-88.4V490.9c0-130.6,105.8-236.4,236.4-236.4h27.5
					c41.1-101,156.4-149.6,257.4-108.5c18.2,7.4,35.3,17.5,50.5,30c-20.7,76-9.3,157.1,31.7,224.4c-13.8-34.8-20.8-71.9-20.8-109.3
					c0-160.8,127.6-291.1,285-291.1S2770.7,130.3,2770.7,291.1z"/>
				<circle class="st0" cx="861.3" cy="944" r="25"/>
				<circle class="st1" cx="1696.4" cy="427.8" r="15"/>
				<circle class="st1" cx="1776.7" cy="371.8" r="45"/>
			</g>
			<g id="FACTORY-2">
				<rect x="1921.9" y="1462.2" class="st0" width="283.3" height="633.4"/>
				<rect x="1361.7" y="1575.4" class="st0" width="418.6" height="520.2"/>
				<path class="st2" d="M1420.6,1153.1v940.1h-88.4v-940.1c0.4-24.4,20.5-43.9,44.9-43.6
					C1400.9,1109.9,1420.2,1129.2,1420.6,1153.1z"/>
				<polygon class="st3" points="1420.4,1631.9 1420.4,2093.1 1332,2093.1 1332,1718.4 				"/>
				<circle class="st3" cx="1376.4" cy="1153.1" r="37.8"/>
				<path class="st4" d="M1418.3,1231.7v25.2c-17.5,23.2-50.5,27.8-73.6,10.3c-3.9-3-7.4-6.5-10.4-10.4v-25.4
					c8.9,23.2,34.9,34.9,58.1,26C1404.3,1252.9,1413.7,1243.5,1418.3,1231.7z"/>
				<path class="st4" d="M1418.3,1196v25.2c-17.5,23.2-50.5,27.8-73.6,10.3c-3.9-3-7.4-6.5-10.4-10.4v-25.4
					c8.9,23.2,34.9,34.9,58.1,26C1404.3,1217.2,1413.7,1207.9,1418.3,1196z"/>
				<path class="st2" d="M1706.4,1153.1v578.4h-88.4v-578.4c0-24.4,19.7-44.2,44.2-44.3c24.4,0,44.2,19.7,44.3,44.2
					C1706.4,1153,1706.4,1153,1706.4,1153.1L1706.4,1153.1z"/>
				<circle class="st3" cx="1662.2" cy="1153.1" r="37.8"/>
				<path class="st4" d="M1704.2,1196v25.2c-17.5,23.2-50.5,27.8-73.6,10.3c-3.9-3-7.4-6.5-10.4-10.4v-25.4
					c8.9,23.2,34.9,34.9,58.1,26C1690.1,1217.2,1699.6,1207.9,1704.2,1196z"/>
				<path class="st4" d="M1704.2,1231.7v25.2c-17.5,23.2-50.5,27.8-73.6,10.3c-3.9-3-7.4-6.5-10.4-10.4v-25.4
					c8.9,23.2,34.9,34.9,58.1,26C1690.1,1252.9,1699.6,1243.5,1704.2,1231.7z"/>
				<polygon class="st3" points="1706.4,1631.9 1706.4,1731.4 1617.9,1731.4 1617.9,1718.4 				"/>
				<rect x="1420.6" y="1728.8" class="st3" width="535" height="366.8"/>
				<rect x="1534.4" y="1731.4" class="st2" width="535" height="364.2"/>
				<rect x="1751.9" y="1640.6" class="st3" width="319.7" height="90.8"/>
				<rect x="1859.8" y="1643.2" class="st2" width="209.8" height="88.2"/>
				<rect x="2069.5" y="1873.3" class="st2" width="222.3" height="222.3"/>
				<rect x="1580.9" y="1785.9" class="st3" width="29.4" height="36.3"/>
				<rect x="1715" y="1785.9" class="st3" width="29.4" height="36.3"/>
				<rect x="1849.2" y="1785.9" class="st3" width="29.4" height="36.3"/>
				<rect x="1983.3" y="1785.9" class="st3" width="29.4" height="36.3"/>
				<line class="st5" x1="2107.8" y1="1924.6" x2="2107.8" y2="2048.9"/>
				<line class="st5" x1="2136.5" y1="1924.6" x2="2136.5" y2="2048.9"/>
				<line class="st6" x1="2165.1" y1="1924.6" x2="2165.1" y2="2048.9"/>
				<line class="st6" x1="2193.8" y1="1924.6" x2="2193.8" y2="2048.9"/>
				<line class="st6" x1="2222.5" y1="1924.6" x2="2222.5" y2="2048.9"/>
				<line class="st6" x1="2251.2" y1="1924.6" x2="2251.2" y2="2048.9"/>
				<path class="st2" d="M1607.9,2095.6H810.2c147.4-111.1,243.6-294.2,243.6-501.3c0-41.3,69.5-74.8,155.2-74.8
					s155.2,33.5,155.2,74.8C1364.2,1801.4,1460.5,1984.5,1607.9,2095.6z"/>
				<ellipse class="st3" cx="1209" cy="1596.9" rx="142.7" ry="68.8"/>
				<path class="st7" d="M1052,1667.3c0.4,37.9,69.5,68.8,157.1,68.8s157-30.6,157.4-68.5l5.3,37.3c-15.4,33.2-81.4,58.2-162.7,58.2
					c-81.5,0-147.2-25.4-162.3-58.7L1052,1667.3z"/>
				<path class="st2" d="M1224.6,2095.6H426.9c147.4-111.1,243.7-294.2,243.7-501.3c0-41.3,69.5-74.8,155.2-74.8
					s155.2,33.5,155.2,74.8C980.9,1801.4,1077.2,1984.5,1224.6,2095.6z"/>
				<ellipse class="st3" cx="825.7" cy="1596.9" rx="142.7" ry="68.8"/>
				<path class="st8" d="M668.6,1667.8c0.4,37.9,71.5,68.5,159.1,68.5s154.6-30.7,155-68.6l5.3,37.1c-15.4,33.2-79,58.4-160.2,58.4
					c-81.5,0-149.1-25-164.3-58.3L668.6,1667.8z"/>
			</g>
		</g>
		<g id="PLANTS">
			<path class="st9" d="M3777.3,2320.1c0,45-9.3,88.6-32.5,125.9c-279.9,0-561.7,2.1-819.4,5.9c37.2-199.1,230-134.9,259.5-123.8
				c-0.1-2.6-0.1-5.3-0.1-7.9c0-150.9,132.7-273.3,296.3-273.3c6.2,0,12.3,0.2,18.3,0.5c65,3.7,124.4,26.6,171.4,62.8
				C3735.8,2160.3,3777.3,2235.8,3777.3,2320.1z"/>
			<path class="st10" d="M3435.2,2184c0,0-12.7,224,4.2,320.5"/>
			<path class="st10" d="M3472,2218.5c0,0-2.5,36-39.1,45.6"/>
			<path class="st10" d="M3359.4,2279.9c0,0,9.7,53.6,71.2,67.8"/>
			<path class="st10" d="M3409.2,2213.7c0,0,5.9,23.1,23.5,26.9"/>
			<circle class="st11" cx="3472.6" cy="2216.1" r="11.3"/>
			<circle class="st11" cx="3409.1" cy="2214.9" r="10"/>
			<circle class="st1" cx="3434.9" cy="2133.1" r="27.7"/>
			<path class="st11" d="M3435.7,2195.2c-12.9,4.4-27.9,1.9-38.3-7.4c-7.9-6.9-11.7-17.3-10.2-27.6c12.6-4.4,27.4-2.2,37.8,6.8
				C3433.7,2174.6,3437.3,2185.2,3435.7,2195.2z"/>
			<path class="st11" d="M3433.3,2195.2c12.9,4.4,27.9,1.9,38.3-7.4c7.9-6.9,11.7-17.3,10.2-27.6c-12.6-4.4-27.4-2.2-37.8,6.8
				C3435.3,2174.6,3431.7,2185.2,3433.3,2195.2z"/>
			<circle class="st1" cx="3358.4" cy="2235.4" r="23.6"/>
			<path class="st11" d="M3361,2288.8c-10.7,4.1-23.5,2.5-32.5-5c-6.9-5.5-10.4-14.2-9.5-22.9c10.5-4.1,23-2.7,32,4.5
				C3358.2,2270.8,3362,2279.7,3361,2288.8z"/>
			<path class="st11" d="M3359,2288.8c11,3.3,23.6,0.7,32-7.5c6.4-6,9.3-14.9,7.7-23.6c-10.8-3.3-23.1-0.9-31.6,7
				C3360.4,2270.8,3357.3,2279.9,3359,2288.8z"/>
			<path class="st12" d="M3612.7,2414.3c0,0,1.7,63.9,58,64.6h46"/>
			<circle class="st1" cx="3611.7" cy="2371.8" r="22.5"/>
			<path class="st11" d="M3614.2,2422.7c-10.2,3.9-22.4,2.4-31-4.8c-6.5-5.3-9.9-13.5-9.1-21.9c10-3.9,21.9-2.6,30.5,4.3
				C3611.6,2405.6,3615.2,2414.1,3614.2,2422.7z"/>
			<path class="st11" d="M3612.3,2422.8c10.5,3.1,22.5,0.7,30.5-7.2c6.1-5.8,8.9-14.2,7.3-22.5c-10.2-3.1-22-0.9-30.1,6.6
				C3613.6,2405.5,3610.7,2414.2,3612.3,2422.8z"/>
			<path class="st13" d="M3500.8,2548.3c0,0,40.9-1.5,68.6-32.7c12.2-13.8-1.7-34.8-19.1-28.7l-59.7,20.9c0,0,62.6-60.2,71.9-181.2
				c2.1-27.1-30.8-41.8-49.6-22.2c-31.5,33-70.1,83.2-89.7,146.4c0,0-1.4-49.6-37.7-100c-14.8-20.6-47.4-11.6-49.7,13.6
				c-0.6,7.1-1,14.9-1,23.3c0,0-22.5-25.5-50.6-52c-22.6-21.3-58.8,1.6-49.1,31.1c9,27.5,41.6,80.6,57.6,102.3c0,0-61.4-23.1-78.2,4
				c-23.1,37.4,76.6,76,76.6,76L3500.8,2548.3z"/>
			<path class="st14" d="M89.6,2099.1c-50.3-58.5-43.5-146.7,15-197c25.3-21.8,57.6-33.7,91-33.7c4.6,0,9.1,0.2,13.6,0.7
				c31.5-118.7,113.9-203.4,210.7-203.4c123.9,0,230,131.5,224.3,310.2c-1.4,43.3-6.4,84.6-18,122.1L89.6,2099.1z"/>
			<path class="st15" d="M170.8,2099c28.5-50.9,76.9-11.7,76.9-11.7s-13.8-72,46.2-93.6c68.8-24.8,96.3,36.7,96.3,36.7
				s-3-106.9,106.6-106.9c98.8,0,111.4,180.1,275.6,118c109.7-41.5,199.7,57,199.7,57L170.8,2099z"/>
		</g>
		<g id="WOMAN">
			<g id="LEGS">
				<path class="st16" d="M3110.1,2364.6c-1.2,0.3-119.7,30.2-201.7,6.3c-42.8-81.9-370.8-641.1-388.9-712.2
					c0.6,3.9,36.7,252.9,85.4,379.5c48.6,126.4,39.4,251.6,21.5,335c0,0-124.2,12-203.5,0c-11.1-168.4-120.3-613.9-119.8-976
					c0,0,26.1,20.2,77.3,44.7c62.9,30,163.7,66.3,300.7,79.2c0,0,8.3,22,25.1,58.2c31.4,67.6,92.5,184.7,184.9,299.7
					C3013.3,2031.2,3106.6,2152.6,3110.1,2364.6z"/>
				<line class="st17" x1="2519.5" y1="1658.7" x2="2495.2" y2="1608.4"/>
				<path class="st3" d="M2706,1579.2c-101.2-31-240.5-92.9-325.7-137.4c62.9,30,163.7,66.3,300.7,79.2
					C2681,1521,2689.2,1543.1,2706,1579.2z"/>
			</g>
			<g id="SHOES">
				<g id="RIGHT">
					<path class="st2" d="M3103.1,2473h-201.9c0,0,40.4-38.1,11.5-96.9c-0.7-1.4-1.6-3.2-2.7-5.2c81.9,23.9,197-6,198.2-6.3
						C3108.8,2400.8,3107.1,2437,3103.1,2473z"/>
					<path class="st2" d="M3054.7,2473c0,0,13.8-19.6,16.7-43.8"/>
					<line class="st17" x1="2944" y1="2409" x2="3004.9" y2="2409"/>
					<line class="st17" x1="2943.1" y1="2422" x2="3004" y2="2422"/>
				</g>
				<g id="LEFT">
					<path class="st2" d="M2624.6,2373.1c-13.2,61.2-30.1,99.9-30.1,99.9h-26c0,0,1.8-35.1-16.7-35.2l-32.8,35.2h-177.1
						c0,0,86.1-39.2,83.1-94.6c-0.1-1.7-0.2-3.5-0.3-5.3C2503.8,2385.1,2624.6,2373.1,2624.6,2373.1z"/>
					<line class="st17" x1="2404.2" y1="2409" x2="2456.4" y2="2409"/>
					<line class="st17" x1="2394.7" y1="2422" x2="2446.9" y2="2422"/>
				</g>
			</g>
			<g id="HAIR">
				<path class="st18" d="M2554,929.3c-17.4-6-32.6-24.2-24.4-35.6c6.2-8.6,112.9-9.7,144.9,14.2c9.4,7.1,16.9,16.4,22.1,27
					c8.5,17.2,29.3,24.2,46.5,15.7c0.6-0.3,1.1-0.6,1.7-0.9c31.5-17.9,79.8-33.9,131.1-8.5c96.3,47.5,58.8,159.8,58.8,159.8
					s92.9-55.2,143.9,21.8c53,79.9-17.8,188-142.8,195s-137.8-53.8-160.2-102.2c-22.9-49.3,1.6-124.6,1.6-124.6
					s-76.1,36.1-127.2,11.1c-60.9-29.8-26.4-97.2-26.4-97.2L2554,929.3z"/>
			</g>
			<g id="BLOUSE">
				<path class="st19" d="M2767.2,1532.3l-35.1-4.6c-0.2-1.7-26.2-207.9-56-212.5c-41.8-6.4,4.9,205.8,4.9,205.8
					c-248.6-23.4-378-123.9-378-123.9c0.1-55.6,2.8-109.2,8.9-159.6c0,0-130.8,101.7-236.5,58.8c-19.1-7.7-34.2-25.7-49-47.6
					l103.2-135.8l182.2-102.2c47.7-27.3,105.8-29.1,155.2-4.9l228.7,112.2c36.2,17.8,65.8,46.6,84.6,82.3l87.1,166.2
					C2907.7,1443.7,2854.3,1535,2767.2,1532.3z"/>
				<line class="st17" x1="2311.8" y1="1237.6" x2="2322.2" y2="1144.7"/>
			</g>
			<g id="HANDS">
				<g id="BROOM">
					<line class="st17" x1="2711.7" y1="1652.6" x2="1859.3" y2="751"/>
					<path class="st20" d="M1987.5,585.9l14.5,74.9c2.2,11.4-2,23.1-11,30.5l-229.7,188.8c-9,7.4-21.3,9.3-32.1,4.9l-70.7-28.7
						L1987.5,585.9z"/>
					<path class="st20" d="M1995.4,686.9c-1.3,1.6-2.8,3.1-4.4,4.4l-0.1,0.1l-5.1,4.2l-4.5,3.7l-25.2,20.7l-3.4,2.8l-2.1,1.7l-2.4,2
						l-28.6,23.5l-3.8,3.1l-0.7,0.6l-4.8,3.9l-23.8,19.6l-4.5,3.7l-6.4,5.3l-5.5,4.5l-16.7,13.7l-4.5,3.7l-13.6,11.2l-5.5,4.5
						l-9.5,7.8l-4.5,3.7l-20.8,17l-5.5,4.5l-2.3,1.9l-4.5,3.7l-21.4,17.6c-2.2,1.8-4.6,3.3-7.2,4.4c-0.7,0.3-1.5,0.6-2.2,0.9
						s-1.5,0.5-2.3,0.7c-6.3,1.8-13,1.5-19.2-0.7l-1.2-0.5l-8.2-3.3l-4.5-1.8l-28.6-11.6l-4.5-1.8l-23.4-9.5l-1.4-0.6l4.8-3.9
						l20.1-16.5l4.5-3.7l10.2-8.4l5.5-4.5l13-10.6l4.5-3.7l17.3-14.2l5.5-4.5l5.8-4.8l4.5-3.7l24.5-20.1l4.1-3.4l1.4-1.1l3.1-2.6
						l28.6-23.5l3.1-2.5l1.4-1.2l4-3.3l24.5-20.2l4.5-3.7l5.7-4.7l5.5-4.5l17.4-14.3l4.5-3.7l12.9-10.6l5.5-4.5l10.2-8.4l4.5-3.7
						l20.1-16.5l5.5-4.5l3.1-2.5l4.5-3.7l27.2-22.4l1.4-1.1l4.1-3.4l0.4-0.3l1.7-1.4l0.3,1.7l0.9,4.5l5.5,28.6l0.9,4.5l5.5,28.6
						l0.9,4.5l0.5,2.5C2003.8,670,2001.4,679.6,1995.4,686.9z"/>
					<polygon class="st3" points="1687.9,832.1 1687.9,868.2 1683.4,866.4 1683.4,835.8 					"/>
					<polygon class="st3" points="1721,804.9 1721,881.7 1716.5,879.8 1716.5,808.6 					"/>
					<path class="st3" d="M1754.1,777.7v106.8c-0.7,0.3-1.5,0.6-2.2,0.9s-1.5,0.5-2.3,0.7V781.4L1754.1,777.7z"/>
					<polygon class="st3" points="1787.2,750.5 1787.2,858.8 1782.7,862.5 1782.7,754.2 1784.1,753.1 					"/>
					<polygon class="st3" points="1820.3,723.3 1820.3,831.6 1815.8,835.3 1815.8,727 1818.9,724.5 					"/>
					<polygon class="st3" points="1853.4,696.1 1853.4,804.4 1848.9,808.1 1848.9,699.8 					"/>
					<polygon class="st3" points="1886.5,668.9 1886.5,777.2 1882,780.9 1882,672.6 					"/>
					<polygon class="st3" points="1919.6,641.7 1919.6,750 1915.8,753.1 1915.1,753.7 1915.1,645.4 					"/>
					<polygon class="st3" points="1952.7,614.5 1952.7,722.8 1950.6,724.5 1948.2,726.5 1948.2,618.2 					"/>
					<polygon class="st3" points="1985.8,587.3 1985.8,695.6 1981.3,699.3 1981.3,591 1985.4,587.6 					"/>
					<path class="st3" d="M1751.9,885.5c-0.8,0.3-1.5,0.5-2.3,0.7c-6.3,1.8-13,1.5-19.2-0.7H1751.9z"/>
					<polygon class="st3" points="1795,852.4 1789.6,856.9 1660,856.9 1658.6,856.3 1663.3,852.4 					"/>
					<polygon class="st3" points="1835.3,819.3 1829.8,823.8 1698.1,823.8 1703.6,819.3 					"/>
					<polygon class="st3" points="1875.6,786.2 1870.1,790.7 1738.3,790.7 1743.8,786.2 					"/>
					<polygon class="st3" points="1915.8,753.1 1915.1,753.7 1910.3,757.6 1778.6,757.6 1782.7,754.2 1784.1,753.1 					"/>
					<polygon class="st3" points="1956.1,720 1952.7,722.8 1950.6,724.5 1818.9,724.5 1820.3,723.3 1824.3,720 					"/>
					<path class="st3" d="M1995.4,686.9c-1.3,1.6-2.8,3.1-4.4,4.4l-0.1,0.1h-131.7l5.5-4.5L1995.4,686.9z"/>
					<polygon class="st3" points="2001.5,658.3 1899.4,658.3 1904.9,653.8 2000.6,653.8 					"/>
					<polygon class="st3" points="1995.1,625.2 1939.6,625.2 1945.1,620.7 1994.2,620.7 					"/>
					<polygon class="st3" points="1988.7,592.1 1979.9,592.1 1981.3,591 1985.4,587.6 1987.8,587.6 					"/>
				</g>
				<g id="RIGHT-2">
					<path class="st3" d="M2861.5,1484.9c-8.4,15.7-22.1,28-38.6,34.8l0,0c-1.1,0.4-2.2,0.9-3.4,1.3c20.6-14.9,32.8-38.7,32.9-64.1
						v-0.2c0-39-29.8-71.4-68.6-74.8l-51.7-1.9l26.3-8.4c50.2-16.2,95.6,9.6,108.7,47.5l0.1,0.2
						C2874.6,1440.9,2872.6,1464.8,2861.5,1484.9z"/>
					<path class="st21" d="M2852.4,1456.9v-0.2c0-39-29.8-71.4-68.6-74.8l-261.7-9.6l-3.1-5.8c-8.4-15.5-23.4-26.4-40.8-29.6l0,0
						c-9.3-1.7-18.9-1.2-27.9,1.5l-23.3,9.6l-25.7-27.6c-0.8-0.8-2-0.8-2.8,0c-0.2,0.2-0.4,0.5-0.5,0.8
						c-4.5,16.4-23.1,87.6-9.9,109.9c32.8,55.2,252.3,90.8,381.3,103.7C2813.8,1539.2,2852.4,1501.6,2852.4,1456.9z"/>
					<path class="st17" d="M2391.3,1357.8c-0.1,4.7-0.8,13.2,1.9,17.7c5.8,9.8,17.5,18.9,33.6,27.3"/>
					<path class="st17" d="M2386.3,1385.8c-0.1,4.7-0.8,13.2,1.9,17.7c5.8,9.8,17.5,18.9,33.6,27.3"/>
					<path class="st17" d="M2399.1,1321.8c-0.1,4.7-1.6,21.4,1.1,25.9c5.8,9.8,17.5,18.9,33.6,27.3"/>
					<line class="st17" x1="2429.6" y1="1348.9" x2="2464.5" y2="1360.4"/>
					<line class="st17" x1="2522.1" y1="1372.3" x2="2522.1" y2="1397.2"/>
				</g>
				<g id="LEFT-2">
					<path class="st3" d="M2177.4,1251c-8.6,17.5-23.2,31.4-41.1,39.2c-0.7,0.3-1.4,0.6-2.1,0.9c-26.3,10.6-56.1,7.6-79.6-8.1
						c-6.1-5.6-11.7-11.7-16.7-18.3c33.2,27.9,82.7,23.5,110.6-9.7c19.4-23.1,23.8-55.3,11.4-82.8l-12.6-27.8l6.8,5.4
						C2184.4,1174,2194.6,1216.2,2177.4,1251z"/>
					<path class="st22" d="M2117.6,1277.3c-33.4,13.6-71.8,2.6-93-26.7l0,0c-1.4-2.1-2.9-4.3-4.3-6.6c0,0,0-0.1,0-0.1
						c-68.6-109.6-89.5-340.3-81-373.1c7.2-28.1,87.7-41.5,93.4-34.6c4.4,5.2,36.5,72,51.9,104.1c4.5,9.4,0.6,20.8-8.7,25.4
						l-8.6,4.3l65.8,143l26.7,59.2c17.8,39.5,0.2,86-39.3,103.8C2119.5,1276.5,2118.6,1276.9,2117.6,1277.3z"/>
					<path class="st17" d="M1974.7,871.3c26.4-11.9,63.7-16.3,67.5-11.7"/>
					<path class="st17" d="M1988.6,898.3c26.4-11.9,63.7-16.3,67.5-11.7"/>
					<path class="st17" d="M2003.4,928.7c26.4-11.9,63.7-16.3,67.5-11.7"/>
					<path class="st3" d="M2088.3,993.7l-29.6-43.5c-1-2.4-3.7-3.7-6.2-2.9l-2.8,0.8c-2.8,0.8-4.4,3.7-3.6,6.5
						c0.3,1.2,1.1,2.2,2.2,2.9L2088.3,993.7z"/>
				</g>
			</g>
			<g id="NECK">
				<path class="st23" d="M2623.7,996.2v84.7c0,0-17,26.9-50.6,15.1c-29.7-10.4-25.1-53.6-25.1-53.6l1.2-39.5L2623.7,996.2z"/>
				<polygon class="st3" points="2549.1,1003.8 2623.7,997 2623.7,1084.6 2548.8,1012.1 				"/>
			</g>
			<g id="HEAD">
				<path class="st24" d="M2652.8,989.2c-2.3,9.7-12,15.7-21.7,13.4c0,0,0,0,0,0l-13.6-3.2l-0.1,0.4c0,0-29.4,25-62.5,11.5
					s0-81.5,0-81.5c29.2,16,59.4,8.2,69.6,7.7c10.9-0.5,6,21.2,4.4,27.6l10.6,2.5C2649.1,969.7,2655.1,979.5,2652.8,989.2
					C2652.8,989.2,2652.8,989.2,2652.8,989.2z"/>
				<path class="st17" d="M2627.3,986.1c1.5-6.2,7.7-10.1,13.9-8.6"/>
				<path class="st17" d="M2552.6,939.9c0,0,14.8,10.1,7.2,41.6"/>
				<path class="st17" d="M2586.2,949.2c0,0,10.8,2.3,16.4,10.9"/>
				
					<ellipse transform="matrix(0.2306 -0.9731 0.9731 0.2306 1048.8569 3260.2383)" class="st3" cx="2585.9" cy="966.9" rx="5.9" ry="3.1"/>
				
					<ellipse transform="matrix(0.2306 -0.9731 0.9731 0.2306 1029.42 3220.6934)" class="st3" cx="2551.2" cy="959.4" rx="5.2" ry="2.8"/>
				<path class="st3" d="M2624.1,937.4c-10.6,0.7-51,12.9-73.9,2.8c2.3-5.6,4.7-10.5,4.7-10.5C2583.8,945.5,2613.6,938,2624.1,937.4
					z"/>
			</g>
		</g>
	</g>
</g>
</svg>
