<?xml version="1.0" encoding="UTF-8"?><svg id="a" xmlns="http://www.w3.org/2000/svg" viewBox="0 0 1003.72 529.13"><defs><style>.c{fill:#7c6846;}.c,.d,.e,.f,.g,.h,.i,.j,.k,.l,.m,.n,.o,.p,.q,.r,.s,.t,.u,.v,.w,.x,.y,.z,.aa,.ab,.ac,.ad,.ae,.af,.ag,.ah{stroke-width:0px;}.d{fill:#ab8547;}.e{fill:#e9ece0;}.f{fill:#58472c;}.g{fill:#1f1a12;}.h{fill:#625034;}.i{fill:#4a522b;}.j{fill:#86724f;}.k{fill:#9fb260;}.l{fill:#feb187;}.m{fill:#231b1b;}.n{fill:#565f3c;}.o{fill:#d9604d;}.p{fill:#101209;}.q{fill:#bed374;}.r{fill:#606944;}.s{fill:#0d0b07;}.t{fill:#806435;}.u{fill:#463636;}.v{fill:#987b49;}.w{fill:#999f87;}.x{fill:#4a3c27;}.y{fill:#929f63;}.z{fill:#67322c;}.aa{fill:#686c5c;}.ab{fill:#0a0805;}.ac{fill:#564324;}.ad{fill:#59652d;}.ae{fill:#cfa863;}.af{fill:#808a5b;}.ag{fill:#758052;}.ah{fill:#745a30;}</style></defs><g id="b"><rect class="e" x="0" y="397.82" width="1003.72" height="131.31" rx="65.66" ry="65.66"/><path class="i" d="M707.97,308.72c-6.24-9.64-6.69-22.7-4.53-34.38s6.62-22.66,9.45-34.16c6.96-28.28,3.53-59.64-9.31-85.16,4.59,21.51,7.36,41.69,8.33,63.79.81,18.45-.92,36.9-2.66,55.27-1.15,12.16-.13,22.49-1.28,34.65Z"/><path class="ag" d="M719.54,272.22c3.34-10.33,9.49-19.15,14.17-28.8,7.2-14.84,10.91-31.82,10.63-48.73-.37-22.9-7.8-44.8-15.13-66.16,6.39,16.18,12.68,32.61,15.48,50.04,2.81,17.43,1.87,36.17-5.59,51.75-5.1,10.65-13.01,19.42-17.48,30.42-5.03,12.4-4.78,26.21-.76,38.88-5.06-7.41-3.99-19.17-1.33-27.4Z"/><path class="ag" d="M731.49,283.65c-.16-7.3,1.12-14.52,1.88-21.77,2.9-27.69-1.97-56.35-13.74-80.86,15.76,18.57,21.28,47.4,13.72,71.67-2.65,8.5-6.81,16.73-6.84,25.74-.02,6.48,2.53,14.73,7.29,18.53-1.31-4.35-2.21-8.7-2.31-13.32Z"/><path class="ag" d="M761.9,271.71c3.26-9.69,7.84-18.77,10.96-28.52,5.33-16.66,6.2-34.65,9.22-52.04,3.02-17.39,8.82-35.28,21.21-46.14-9.94,13.55-15.03,30.78-18.56,47.92-3.52,17.14-5.72,34.69-10.87,51.3-5.44,17.54-12.89,33.57-13.99,52.41-5.27-3.17.4-20.09,2.03-24.92Z"/><path class="ag" d="M755.95,275.08c-3.71-11.55-2.22-24.29-.8-36.47,3.84-32.97,6.8-66.06,8.89-99.23-2.2,27.86-4.41,55.72-6.61,83.57-1.06,13.44-2.07,27.42,2.16,40.04,2.28,6.81,5.98,12.87,9.65,18.85,1.41,2.3,8.63,11.04,8.31,13.58-.53,4.27-5.51.33-7.72-1.23-7.16-5.07-9.48-11.66-13.88-19.11Z"/><path class="ag" d="M803.87,247.83c2.65-16.47,1.35-33.39,2.05-50.11.69-16.72,3.77-34.24,13.54-46.83-6.54,9.98-8.01,23.08-7.65,35.49.36,12.4,2.32,24.76,1.74,37.15-.77,16.43-5.95,32.13-11.08,47.53-3.28,9.86-6.33,19.91-9.92,29.61,1.37-18.28,8.45-34.93,11.34-52.84Z"/><path class="i" d="M655.99,246.29c2.65-16.47,1.35-33.39,2.05-50.11.69-16.72,3.77-34.24,13.54-46.83-6.54,9.98-8.01,23.08-7.65,35.49.36,12.4,2.32,24.76,1.74,37.15-.77,16.43-5.95,32.13-11.08,47.53-3.28,9.86-6.33,19.91-9.92,29.61,1.37-18.28,8.45-34.93,11.34-52.84Z"/><path class="ag" d="M794.58,261.15c-1.53-12.57.48-25.33.47-38.02,0-23.46-7.15-46.84-19.95-65.31,6.25,15.21,9.64,31.91,9.87,48.67.18,13.07-1.52,26.27.4,39.16,1.52,10.2,5.29,19.74,10.03,28.52,3.9,7.21,9.05,17.76,15.34,22.51-8.54-9.7-14.51-21.88-16.17-35.54Z"/><path class="ag" d="M757.19,262.96c-1.53-12.57.48-25.33.47-38.02,0-23.46-7.15-46.84-19.95-65.31,6.25,15.21,9.64,31.91,9.87,48.67.18,13.07-1.52,26.27.4,39.16,1.52,10.2,5.29,19.74,10.03,28.52,3.9,7.21,9.05,17.76,15.34,22.51-8.54-9.7-14.51-21.88-16.17-35.54Z"/><path class="ag" d="M832.48,270.45c2.31-11.96,5.67-23.79,6.09-36.02.55-15.68-3.74-31.02-5.2-46.62-1.46-15.6.64-33.18,11.14-43.46-8.17,13.1-8.4,30.48-6.4,46.34,1.99,15.86,5.89,31.64,4.86,47.62-1.3,20.13-8.45,39.66-11.03,59.61-4.39-6.47-.86-20.23.54-27.47Z"/><path class="ag" d="M856.52,262.81c2.5-9.01,6.37-17.5,8.54-26.61,5.85-24.55-2.17-52.59-19.63-68.64,9.99,6.18,17.78,16.75,21.34,28.97,3.57,12.21,2.87,25.94-1.9,37.62-3.46,8.46-8.89,15.73-12.4,24.16-3.51,8.44-7.96,27.34-2.42,35.55,2.83-2.5,2.91-7.2,3.26-10.96.64-6.86,1.37-13.47,3.21-20.09Z"/><path class="ag" d="M601.78,308.98c-6.24-9.64-6.69-22.7-4.53-34.38s6.62-22.66,9.45-34.16c6.96-28.28,3.53-59.64-9.31-85.16,4.59,21.51,7.36,41.69,8.33,63.79.81,18.45-.92,36.9-2.66,55.27-1.15,12.16-.13,22.49-1.28,34.65Z"/><path class="ag" d="M613.35,272.48c3.34-10.33,9.49-19.15,14.17-28.8,7.2-14.84,10.91-31.82,10.63-48.73-.37-22.9-7.8-44.8-15.13-66.16,6.39,16.18,12.68,32.61,15.48,50.04,2.81,17.43,1.87,36.17-5.59,51.75-5.1,10.65-13.01,19.42-17.48,30.42-5.03,12.4-4.78,26.21-.76,38.88-5.06-7.41-3.99-19.17-1.33-27.4Z"/><path class="i" d="M625.3,283.91c-.16-7.3,1.12-14.52,1.88-21.77,2.9-27.69-1.97-56.35-13.74-80.86,15.76,18.57,21.28,47.4,13.72,71.67-2.65,8.5-6.81,16.73-6.84,25.74-.02,6.48,2.53,14.73,7.29,18.53-1.31-4.35-2.21-8.7-2.31-13.32Z"/><path class="i" d="M596.33,287.72c-1.07-7.2-3.54-14.02-5.51-20.97-7.51-26.56-7.55-55.74-.12-82.33-12.35,21.62-12.92,51.11-1.41,73.31,4.03,7.78,9.5,14.96,11.05,23.81,1.11,6.35,0,15-4.04,19.76.56-4.55.7-9.02.02-13.58Z"/><path class="ag" d="M655.71,271.97c3.26-9.69,7.84-18.77,10.96-28.52,5.33-16.66,6.2-34.65,9.22-52.04,3.02-17.39,8.82-35.28,21.21-46.15-9.94,13.55-15.03,30.78-18.56,47.92-3.52,17.14-5.72,34.69-10.87,51.3-5.44,17.54-12.89,33.57-13.99,52.41-5.27-3.17.4-20.09,2.03-24.92Z"/><path class="ag" d="M649.76,275.34c-3.71-11.55-2.22-24.29-.8-36.47,3.84-32.97,6.8-66.06,8.89-99.23-2.2,27.86-4.41,55.72-6.61,83.57-1.06,13.44-2.07,27.42,2.16,40.04,2.28,6.81,5.98,12.87,9.65,18.85,1.41,2.3,8.63,11.04,8.31,13.58-.53,4.27-5.51.33-7.72-1.23-7.16-5.07-9.48-11.66-13.88-19.11Z"/><path class="y" d="M697.68,248.09c2.65-16.47,1.35-33.39,2.05-50.11.69-16.72,3.77-34.24,13.54-46.83-6.54,9.98-8.01,23.08-7.65,35.49.36,12.4,2.32,24.76,1.74,37.15-.77,16.43-5.95,32.13-11.08,47.53-3.28,9.86-6.33,19.91-9.92,29.61,1.37-18.28,8.45-34.93,11.34-52.84Z"/><path class="ag" d="M688.39,261.41c-1.53-12.57.48-25.33.47-38.02,0-23.46-7.15-46.84-19.95-65.31,6.25,15.21,9.64,31.91,9.87,48.67.18,13.07-1.52,26.27.4,39.16,1.52,10.2,5.29,19.74,10.03,28.52,3.9,7.21,9.05,17.76,15.34,22.51-8.54-9.7-14.51-21.88-16.17-35.54Z"/><path class="y" d="M651.01,263.22c-1.53-12.57.48-25.33.47-38.02,0-23.46-7.15-46.84-19.95-65.31,6.25,15.21,9.64,31.91,9.87,48.67.18,13.07-1.52,26.27.4,39.16,1.52,10.2,5.29,19.74,10.03,28.52,3.9,7.21,9.05,17.76,15.34,22.51-8.54-9.7-14.51-21.88-16.17-35.54Z"/><path class="i" d="M726.29,270.71c2.31-11.96,5.67-23.79,6.09-36.02.55-15.68-3.74-31.02-5.2-46.62-1.46-15.6.64-33.18,11.14-43.46-8.17,13.1-8.4,30.48-6.4,46.34,1.99,15.86,5.89,31.64,4.86,47.62-1.3,20.13-8.45,39.66-11.03,59.61-4.39-6.47-.86-20.23.54-27.47Z"/><path class="ag" d="M750.33,263.07c2.5-9.01,6.37-17.5,8.54-26.61,5.85-24.55-2.17-52.59-19.63-68.64,9.99,6.18,17.78,16.75,21.34,28.97,3.57,12.21,2.87,25.94-1.9,37.62-3.46,8.46-8.89,15.73-12.4,24.16-3.51,8.44-7.96,27.34-2.42,35.55,2.83-2.5,2.91-7.2,3.26-10.96.64-6.86,1.37-13.47,3.21-20.09Z"/><rect class="h" x="579.56" y="311" width="342.21" height="109.62"/><rect class="s" x="573.39" y="294.31" width="348.39" height="18.27"/><polygon class="x" points="579.56 311 579.56 326.43 921.78 356.13 921.78 312.59 579.56 311"/><rect class="x" x="579.56" y="367.58" width="342.21" height="3.16"/><rect class="x" x="579.56" y="379.86" width="342.21" height="3.16"/><circle class="x" cx="600.07" cy="341.14" r="3.99"/><path class="x" d="M613.56,348.73c0,.94-.76,1.7-1.7,1.7s-1.7-.76-1.7-1.7.76-1.7,1.7-1.7,1.7.76,1.7,1.7Z"/><rect class="v" x="53.35" y="402.54" width="81.23" height="76.47"/><polygon class="ah" points="53.35 402.54 53.35 411.38 134.58 431.07 134.58 402.54 53.35 402.54"/><rect class="g" x="46.5" y="392.92" width="94.92" height="9.62"/><path class="ah" d="M123.72,436.17c0,1-.81,1.82-1.82,1.82s-1.82-.81-1.82-1.82.81-1.82,1.82-1.82,1.82.81,1.82,1.82Z"/><circle class="ah" cx="127.23" cy="432.61" r=".62"/><path class="r" d="M703.47,370.82s-5.47-14.39-26.86-8.15c0,0,9.03,18.73,26.86,8.15Z"/><path class="r" d="M645.01,396.01c-1.24-3.22-3.16-6.12-4.9-9.09-8.93-15.21-13.74-32.81-13.77-50.45-1.16,16.52,2.25,33.34,9.76,48.09,1.92,3.77,4.15,7.63,4.12,11.86-.04,5.06-3.81,9.86-8.72,11.11,4.06-1.03,8.55.75,12.69-1.33,3.51-1.76,2.07-6.95.82-10.19Z"/><path class="r" d="M606.95,352.78s3.56-10.5,19.11-6.58c0,0-6,13.72-19.11,6.58Z"/><path class="r" d="M627.31,358.36s3.56-10.5,19.11-6.58c0,0-6,13.72-19.11,6.58Z"/><path class="r" d="M686.91,407.1c-2.45-4.67-.79-10.53,2.18-14.88s7.14-7.75,10.38-11.91c6.47-8.28,8.94-19.12,8.87-29.63-.07-10.51-2.47-20.84-4.86-31.07-1.54,8.44,1.02,17.68,1.9,26.21.88,8.54.77,17.73-3.88,24.94-2.73,4.23-6.8,7.4-9.99,11.3-3.56,4.35-5.99,9.55-9.66,13.81-4.12,4.79-9.77,8.24-15.9,9.73,6.99-.71,14.21-.5,20.96,1.49Z"/><path class="af" d="M659.71,367.98s.38-23.95,34.97-26.17c0,0-3.27,32.18-34.97,26.17Z"/><path class="af" d="M654.92,325.89s6.44-15.71,29.83-8.23c0,0-10.48,20.39-29.83,8.23Z"/><path class="af" d="M639.25,323.04s-2.94-16.72-27.4-14.4c0,0,5.89,22.15,27.4,14.4Z"/><path class="af" d="M660.26,309.92s7.63-10.83-7.12-23.08c0,0-9.01,15.45,7.12,23.08Z"/><path class="r" d="M662.88,393.51s3.56-10.5,19.11-6.58c0,0-6,13.72-19.11,6.58Z"/><path class="r" d="M697.44,381.78s9.93-4.93,18.18,8.83c0,0-13.93,5.48-18.18-8.83Z"/><path class="r" d="M705.54,329.13s3.56-10.5,19.11-6.58c0,0-6,13.72-19.11,6.58Z"/><path class="af" d="M659.37,378.41s-8.52-22.39-41.8-12.68c0,0,14.05,29.14,41.8,12.68Z"/><path class="af" d="M658.73,407.4l.98-39.42s-.08,31.14,10.75,40.57l-11.73-1.16Z"/><rect class="j" x="621.58" y="412.57" width="81.22" height="76.47" transform="translate(1325.2 900.4) rotate(179.9)"/><polygon class="h" points="621.52 412.49 621.51 421.33 702.69 441.17 702.75 412.64 621.52 412.49"/><rect class="s" x="614.65" y="402.95" width="94.92" height="9.62" transform="translate(1324.96 814.31) rotate(179.9)"/><path class="h" d="M632.42,446.26c0,1,.82,1.82,1.82,1.82,1,0,1.82-.82,1.82-1.82,0-1-.82-1.82-1.82-1.82-1,0-1.82.82-1.82,1.82Z"/><path class="h" d="M628.29,442.71c0,.34.28.62.62.62.34,0,.62-.28.62-.62,0-.34-.28-.62-.62-.62-.34,0-.62.28-.62.62Z"/><path class="af" d="M659.48,377.46s-4.04-47.04-26.2-58.75c0,0,26.54,9.32,26.2,58.75Z"/><path class="af" d="M654.66,344.83s-7.08-34.63,14.7-41.59c0,0-19.2,7.41-13.78,44.37,0,0-.98-.74-.92-2.78Z"/><path class="p" d="M763.31,330.48c-3.92-17.15-13.35-32.87-26.15-44.94-.39,17.8,3.9,35.68,12.34,51.35,5.03,1.13,12.14-1.53,13.82-6.41Z"/><path class="p" d="M790.96,356.94c7.14-24.2,9.09-49.65,6.66-74.75-14.31,16.71-23.2,37.99-25.04,59.92-.4,4.79,1.47,11.63,5.27,14.57,3.8,2.94,8.91,2.58,13.12.26Z"/><path class="ag" d="M784.94,382.82c18.4-3.16,35.11-14.98,44.21-31.28-17.42-3.15-34.93,2.23-47.97,14.2-1.74,5.83-1.03,13.33,3.76,17.08Z"/><path class="n" d="M781.09,339.98s7.71-31.82,13.41-42.24c0,0-10.1,38.03-13.41,42.24Z"/><path class="n" d="M754.49,339.98s-7.71-31.82-13.41-42.24c0,0,10.1,38.03,13.41,42.24Z"/><path class="n" d="M783.23,379.8s19.99-15.46,32.69-21.9c0,0-27.23,20.48-32.69,21.9Z"/><path class="ag" d="M746.99,382.82c-18.4-3.16-35.11-14.98-44.21-31.28,17.42-3.15,34.93,2.23,47.97,14.2,1.74,5.83,1.03,13.33-3.76,17.08Z"/><path class="n" d="M748.69,379.8s-19.99-15.46-32.69-21.9c0,0,27.23,20.48,32.69,21.9Z"/><path class="ag" d="M783.36,377.53c8.32-37.19,1.85-88.77-16.23-122.31-18.81,34.74-22.94,90.23-11.19,127.95,4.09,2.97,8.74,5.35,13.78,5.07,5.05-.28,12.54-5.78,13.64-10.71Z"/><path class="n" d="M767.47,382.52s-2.56-75.45,1.13-93.98l-1.13,93.98Z"/><path class="n" d="M788.5,381.44c21.63-19.15,32.15-50.37,25.97-78.59-13.6,7.07-25.09,18.12-32.69,31.43-7.59,13.31-11.26,28.83-10.43,44.13,5.11,3.31,11.07,2.87,17.15,3.04Z"/><path class="ag" d="M778.59,379.8s12.99-35.25,24.12-50.52l-24.12,50.52Z"/><path class="n" d="M762.83,372.58c-.72-30.82-16.84-59.25-41.11-78.27-.66,15.85-.97,31.89,2.29,47.42,3.26,15.53,10.4,30.7,22.49,40.97,3.01,2.55,7.7.8,11.21-1.02,3.51-1.81,5.22-5.16,5.13-9.1Z"/><rect class="c" x="725.35" y="386.23" width="81.23" height="76.47"/><path class="ag" d="M755.65,379.8s-12.99-35.25-24.12-50.52l24.12,50.52Z"/><polygon class="f" points="725.35 386.23 725.35 395.07 806.58 414.76 806.58 386.23 725.35 386.23"/><rect class="ab" x="718.5" y="376.61" width="94.92" height="9.62"/><path class="f" d="M795.72,419.86c0,1-.81,1.82-1.82,1.82s-1.82-.81-1.82-1.82.81-1.82,1.82-1.82,1.82.81,1.82,1.82Z"/><path class="f" d="M799.84,416.3c0,.34-.28.62-.62.62s-.62-.28-.62-.62.28-.62.62-.62.62.28.62.62Z"/><path class="l" d="M494.51,234.27l-27.4,6.29-5.08-11.22-25.4-56.14s23.2-21.47,32.97-19.23l1.3,4.18,23.61,76.12Z"/><path class="o" d="M457.24,199.18c.67,10.24,3.2,20.25,5.72,30.2-.31,0-.62-.02-.93-.04l-25.4-56.14s23.2-21.47,32.97-19.23l1.3,4.18c-3.12,3.39-6.06,6.84-8.29,11.11-4.76,9.1-6.04,19.68-5.37,29.92Z"/><path class="m" d="M420.41,396.64s-3.73,2.13-5.51,4.27c-1.78,2.14-17.47,18.18-12.48,25.66,4.99,7.49,24.06,13.54,30.83,23.17,6.77,9.62,22.1,33.33,62.91,21.03,0,0,5.88-5.17-.89-12.48s-44.38-45.41-43.46-50.79c.92-5.38-31.41-10.86-31.41-10.86Z"/><path class="l" d="M424.99,388.13l-6.53,12.12s-4.48,15.56,5.48,15.68c9.96.12,26.84-5.94,26.84-5.94l4.16-9.98-29.94-11.88Z"/><path class="m" d="M204.12,330.45s1.54-10.99-14.14-13.49c-15.68-2.5-22.46,13.9-18.89,38.32,3.56,24.42-19.08,53.11,22.1,66.12,41.17,13.01,25.49-68.97,25.49-68.97l-14.55-21.98Z"/><path class="l" d="M210.83,337.64l-9.98-10.69s-28.51,10.16-4.99,34.04l14.97-23.35Z"/><path class="m" d="M407.32,214.53c3.53-.46,112.11,23.46,116.97,40.41,4.86,16.96-47.41,152.55-47.41,152.55,0,0-44.14-7.13-52.94-19.49,0,0,29.22-84.12,32.07-87.92,2.85-3.8-79.84-2.85-80.32-4.28-.48-1.43-34.64-8.38-3.06-46.01,31.58-37.63,34.7-35.28,34.7-35.28Z"/><path class="u" d="M242.09,271.81c11,39.96,22,79.91,33,119.87-21.67-18.68-43.35-37.36-65.02-56.03-8.14,5.34-12.6,13.91-15.3,23.26s-1.93,19.66,2.11,28.51c14.17,30.99,49.28,42.96,75.67,64.52,9.77,7.99,19.91,16.17,32.06,19.62,12.14,3.45,26.92.91,34.27-9.34,4.62-6.44,5.62-14.7,6.49-22.58,3.32-30.28,6.65-60.57,9.97-90.85,2.15-19.63,4.31-39.25,6.46-58.88,1.14-10.37,1.39-22.85-7.12-28.89-6.14-4.35-14.43-3.41-21.87-2.28-31.51,4.78-59.21,8.29-90.72,13.07Z"/><path class="q" d="M462.36,159.96c2.83-1.48,5.83-3.13,7.24-5.99,1.9-3.83.3-8.42-1.61-12.24-5.12-10.22-12.49-19.3-21.44-26.41-1.56-1.24-3.75-2.46-5.41-1.36-1.39.91-1.5,2.87-1.47,4.53.26,13.24.52,26.48.79,39.72.11,5.66-1.84,12.7,5.31,10.44,1.7-.54,16.59-7.61,16.59-8.68Z"/><path class="q" d="M311.73,126.78c-18.72,21.6-31.84,47.38-44.78,72.88-8.36,16.48-16.73,32.98-23.87,50.02-2.42,5.77-4.72,11.7-5.28,17.93s.84,12.89,5.05,17.53c6.18,6.81,16.43,7.61,25.63,7.86,29.21.79,59.96.36,85.42-13.98,15.43-8.69,27.74-21.88,39.78-34.86,12.81-13.81,25.68-27.68,36.25-43.27,10.57-15.59,18.83-33.09,21.42-51.75,2.37-17.03-.1-34.27-4.62-50.74-2.33-8.48-5.21-16.8-8.3-25.03-2.12-5.66-3.11-13.73-10.26-13.85-6.35-.1-14.58,3.92-20.55,5.94-7.01,2.37-13.93,5.02-20.72,7.96-13.52,5.85-26.55,12.86-38.72,21.17-13.43,9.16-25.79,19.91-36.45,32.21Z"/><path class="l" d="M453.12,113.61c-4.13,4.97-8.26,9.95-12.39,14.92-4.35,5.24-8.7,10.47-13.04,15.71-13.78-13.82-21.34-33.61-20.27-53.09.15-2.89.5-5.81,1.63-8.47,1.35-3.17,3.83-5.8,6.85-7.44,1.76-.96,3.69-1.59,5.69-1.78,15.14,8.49,24.63,24.22,31.53,40.15Z"/><path class="z" d="M495.77,53.72c3.64-1.39,7.27-2.78,10.91-4.17,5.82-2.22,12.1-4.84,15.09-10.3,1.95-3.55,2.1-8.14.02-11.62-2.08-3.48-7.08-5.89-11-4.88-.54-5.84-5.9-10.43-11.66-11.51-5.76-1.08-11.71.33-16.9,3.07-4.61-6.25-11.31-10.91-18.77-13.07-6.95-2.01-14.8-1.74-21.02,1.97-6.22,3.71-10.11,11.35-8.64,18.43-4.36,1.85-7.95,5.47-9.76,9.85s-1.1,9.92.68,14.31c-1.38-.55-3.04.06-3.99,1.2-.95,1.15-1.26,2.71-1.16,4.19s.56,2.91,1.03,4.33c.84,2.55,1.68,5.11,2.51,7.66,2.21,6.74,8.28,11.82,15.06,13.91,6.78,2.08,14.17,1.46,20.98-.53s13.17-5.26,19.47-8.52c3.03-1.57,6.07-3.14,9.1-4.7,1.95-1.01,3.94-2.05,5.42-3.67,1.48-1.62,3.35-3.87,2.64-5.94Z"/><path class="i" d="M869.35,271.11c-6.76-29.57-23.02-56.66-45.09-77.48-.68,30.68,6.73,61.5,21.27,88.53,8.67,1.94,20.93-2.65,23.82-11.05Z"/><path class="i" d="M917,316.73c12.3-41.71,15.67-85.58,11.47-128.87-24.67,28.81-40,65.5-43.17,103.3-.69,8.25,2.54,20.05,9.08,25.12,6.55,5.07,15.36,4.45,22.61.45Z"/><path class="y" d="M906.63,361.35c31.71-5.44,60.53-25.83,76.22-53.93-30.03-5.43-60.21,3.85-82.7,24.47-3,10.05-1.77,22.98,6.49,29.45Z"/><path class="ad" d="M900,287.49s13.29-54.86,23.12-72.82c0,0-17.42,65.55-23.12,72.82Z"/><path class="ad" d="M854.14,287.49s-13.29-54.86-23.12-72.82c0,0,17.42,65.55,23.12,72.82Z"/><path class="ad" d="M903.69,356.13s34.47-26.66,56.35-37.76c0,0-46.94,35.3-56.35,37.76Z"/><path class="y" d="M841.2,361.35c-31.71-5.44-60.53-25.83-76.22-53.93,30.03-5.43,60.21,3.85,82.7,24.47,3,10.05,1.77,22.98-6.49,29.45Z"/><path class="ad" d="M844.14,356.13s-34.47-26.66-56.35-37.76c0,0,46.94,35.3,56.35,37.76Z"/><path class="y" d="M903.9,352.23c14.34-64.11,3.2-153.03-27.98-210.85-32.43,59.89-39.55,155.55-19.29,220.58,7.06,5.11,15.06,9.22,23.76,8.74,8.7-.48,21.61-9.96,23.51-18.47Z"/><path class="ad" d="M876.51,360.83s-4.41-130.06,1.95-162.01l-1.95,162.01Z"/><path class="ad" d="M912.76,358.96c37.29-33.02,55.43-86.83,44.77-135.48-23.44,12.18-43.25,31.23-56.35,54.18-13.09,22.94-19.42,49.69-17.98,76.07,8.81,5.7,19.08,4.95,29.57,5.24Z"/><path class="y" d="M895.69,356.13s22.39-60.76,41.58-87.09l-41.58,87.09Z"/><path class="ad" d="M868.51,343.69c-1.25-53.13-29.04-102.15-70.88-134.92-1.13,27.33-1.67,54.97,3.94,81.75,5.61,26.77,17.93,52.92,38.78,70.62,5.19,4.4,13.27,1.37,19.32-1.75,6.04-3.12,9-8.89,8.84-15.69Z"/><rect class="d" x="803.9" y="367.22" width="140.03" height="131.83"/><path class="y" d="M856.13,356.13s-22.39-60.76-41.58-87.09l41.58,87.09Z"/><polygon class="t" points="803.9 367.22 803.9 382.45 943.93 416.4 943.93 367.22 803.9 367.22"/><rect class="ae" x="792.09" y="350.64" width="163.64" height="16.58"/><path class="t" d="M835.85,436.05c0,1.73-1.4,3.14-3.14,3.14s-3.14-1.4-3.14-3.14,1.4-3.14,3.14-3.14,3.14,1.4,3.14,3.14Z"/><path class="t" d="M841.19,450.03c0,.59-.48,1.06-1.06,1.06s-1.06-.48-1.06-1.06.48-1.06,1.06-1.06,1.06.48,1.06,1.06Z"/><rect class="t" x="803.9" y="467.76" width="140.03" height="1.23"/><rect class="t" x="803.9" y="474.51" width="140.03" height="1.23"/><path class="ad" d="M733.56,390.07c-3.92-17.15-13.35-32.87-26.15-44.94-.39,17.8,3.9,35.68,12.34,51.35,5.03,1.13,12.14-1.53,13.82-6.41Z"/><path class="ad" d="M761.2,416.53c7.14-24.2,9.09-49.65,6.66-74.75-14.31,16.71-23.2,37.99-25.04,59.92-.4,4.79,1.47,11.63,5.27,14.57,3.8,2.94,8.91,2.58,13.12.26Z"/><path class="q" d="M755.18,442.41c18.4-3.16,35.11-14.98,44.21-31.28-17.42-3.15-34.93,2.23-47.97,14.2-1.74,5.83-1.03,13.33,3.76,17.08Z"/><path class="k" d="M751.34,399.57s7.71-31.82,13.41-42.24c0,0-10.1,38.03-13.41,42.24Z"/><path class="k" d="M724.74,399.57s-7.71-31.82-13.41-42.24c0,0,10.1,38.03,13.41,42.24Z"/><path class="k" d="M753.47,439.38s19.99-15.46,32.69-21.9c0,0-27.23,20.48-32.69,21.9Z"/><path class="q" d="M717.23,442.41c-18.4-3.16-35.11-14.98-44.21-31.28,17.42-3.15,34.93,2.23,47.97,14.2,1.74,5.83,1.03,13.33-3.76,17.08Z"/><path class="k" d="M718.94,439.38s-19.99-15.46-32.69-21.9c0,0,27.23,20.48,32.69,21.9Z"/><path class="q" d="M753.6,437.12c8.32-37.19,1.85-88.77-16.23-122.31-18.81,34.74-22.94,90.23-11.19,127.95,4.09,2.97,8.74,5.35,13.78,5.07,5.05-.28,12.54-5.78,13.64-10.71Z"/><path class="k" d="M737.71,442.11s-2.56-75.45,1.13-93.98l-1.13,93.98Z"/><path class="k" d="M758.74,441.03c21.63-19.15,32.15-50.37,25.97-78.59-13.6,7.07-25.09,18.12-32.69,31.43-7.59,13.31-11.26,28.83-10.43,44.13,5.11,3.31,11.07,2.87,17.15,3.04Z"/><path class="q" d="M748.84,439.38s12.99-35.25,24.12-50.52l-24.12,50.52Z"/><path class="k" d="M733.07,432.17c-.72-30.82-16.84-59.25-41.11-78.27-.66,15.85-.97,31.89,2.29,47.42,3.26,15.53,10.4,30.7,22.49,40.97,3.01,2.55,7.7.8,11.21-1.02,3.51-1.81,5.22-5.16,5.13-9.1Z"/><rect class="ae" x="695.59" y="445.82" width="81.22" height="76.47"/><path class="q" d="M725.89,439.38s-12.99-35.25-24.12-50.52l24.12,50.52Z"/><polygon class="d" points="695.59 445.82 695.59 454.65 776.82 474.35 776.82 445.82 695.59 445.82"/><rect class="ac" x="688.74" y="436.2" width="94.92" height="9.62"/><path class="d" d="M765.96,479.45c0,1-.81,1.82-1.82,1.82s-1.82-.81-1.82-1.82.81-1.82,1.82-1.82,1.82.81,1.82,1.82Z"/><circle class="d" cx="769.47" cy="475.89" r=".62"/><rect class="ae" x="131.23" y="423.11" width="81.23" height="76.47"/><polygon class="d" points="131.23 423.11 131.23 431.95 212.45 451.64 212.45 423.11 131.23 423.11"/><rect class="ac" x="124.38" y="413.49" width="94.92" height="9.62"/><path class="d" d="M201.6,456.74c0,1-.81,1.82-1.82,1.82s-1.82-.81-1.82-1.82.81-1.82,1.82-1.82,1.82.81,1.82,1.82Z"/><circle class="d" cx="205.1" cy="453.18" r=".62"/><path class="k" d="M470.21,189.68s6.98-13.72,27.58-5.22c0,0-10.98,17.65-27.58,5.22Z"/><path class="k" d="M525.64,220.99c1.58-3.06,3.79-5.75,5.85-8.52,10.51-14.16,17.18-31.15,19.1-48.69-.62,16.55-5.81,32.9-14.86,46.77-2.31,3.54-4.95,7.14-5.37,11.35-.5,5.04,2.73,10.22,7.48,11.98-3.93-1.46-8.58-.17-12.48-2.68-3.3-2.13-1.31-7.13.28-10.22Z"/><path class="k" d="M568.1,182.1s-2.41-10.82-18.3-8.59c0,0,4.49,14.28,18.3,8.59Z"/><path class="k" d="M547.27,185.46s-2.41-10.82-18.3-8.59c0,0,4.49,14.28,18.3,8.59Z"/><path class="k" d="M482.79,227.53c2.93-4.38,1.92-10.38-.58-15.03-2.5-4.64-6.26-8.47-9.04-12.95-5.54-8.92-6.84-19.97-5.65-30.41,1.19-10.44,4.69-20.46,8.16-30.37.63,8.56-2.91,17.47-4.7,25.86s-2.67,17.55,1.18,25.22c2.26,4.5,5.97,8.09,8.72,12.3,3.08,4.71,4.94,10.14,8.13,14.77,3.58,5.2,8.83,9.24,14.77,11.37-6.88-1.46-14.08-2.02-21-.77Z"/><path class="q" d="M514.02,191.55s2.19-23.85-31.96-29.77c0,0-.19,32.35,31.96,29.77Z"/><path class="q" d="M523.29,150.22s-4.72-16.3-28.78-11.38c0,0,8.23,21.39,28.78,11.38Z"/><path class="q" d="M539.18,149.06s4.72-16.3,28.78-11.38c0,0-8.23,21.39-28.78,11.38Z"/><path class="q" d="M519.7,133.77s-6.42-11.59,9.55-22.19c0,0,7.3,16.33-9.55,22.19Z"/><path class="k" d="M508.13,216.6s-2.41-10.82-18.3-8.59c0,0,4.49,14.28,18.3,8.59Z"/><path class="k" d="M475.03,201.23s-9.35-5.96-19.03,6.83c0,0,13.26,6.94,19.03-6.83Z"/><path class="k" d="M472.62,148.01s-2.41-10.82-18.3-8.59c0,0,4.49,14.28,18.3,8.59Z"/><path class="q" d="M513.24,201.96s10.87-21.35,42.91-8.13c0,0-17.09,27.46-42.91,8.13Z"/><path class="q" d="M510.77,230.84l3.25-39.29s-3.26,30.97-15.03,39.19l11.78.11Z"/><rect class="ae" x="462.07" y="235.4" width="81.23" height="76.47" transform="translate(32.82 -53.15) rotate(6.26)"/><polygon class="d" points="466.48 231.2 465.51 239.98 544.11 268.41 547.22 240.05 466.48 231.2"/><rect class="ac" x="459.91" y="226.03" width="94.92" height="9.62" transform="translate(28.18 -53.92) rotate(6.26)"/><path class="d" d="M532.76,272.3c-.11,1-1.01,1.72-2.01,1.61s-1.72-1.01-1.61-2.01,1.01-1.72,2.01-1.61c1,.11,1.72,1.01,1.61,2.01Z"/><path class="d" d="M537.25,269.21c-.04.34-.34.58-.68.55-.34-.04-.58-.34-.55-.68.04-.34.34-.58.68-.55.34.04.58.34.55.68Z"/><path class="q" d="M513.24,201.01s9.06-46.34,32.35-55.61c0,0-27.39,6.42-32.35,55.61Z"/><path class="q" d="M521.53,169.07s10.75-33.67-10.16-42.93c0,0,18.3,9.42,8.94,45.6,0,0,1.05-.63,1.22-2.67Z"/><path class="o" d="M453.12,113.61c-4.13,4.97-8.26,9.95-12.39,14.92-1.61-.83-3.16-1.79-4.63-2.86-9.8-7.14-15.41-19.67-14.2-31.74.22-2.17.63-4.4.06-6.5-.63-2.32-2.36-4.15-3.65-6.17-1.17-1.83-1.98-3.89-2.41-6.02,1.76-.96,3.69-1.59,5.69-1.78,15.14,8.49,24.63,24.22,31.53,40.15Z"/><path class="l" d="M502.81,50.83s-5.62,71.48-28.04,74.73c-22.1,3.21-49.9-6.77-45.39-29.82l.95-8.08s-22.57-9.98-11.41-25.43c11.17-15.45,16.87,5.47,16.87,5.47,0,0,16.63-8.32,17.35-24,.71-15.68,36.83,15.21,49.66,7.13Z"/><path class="l" d="M483.56,310.55c-13.96-.83-70.99,19.89-84.9,21.33s-29.35-.14-39.4-9.87c-7.78-7.53-10.93-18.55-13.41-29.09-5.95-25.3-9.88-51.08-11.75-77,18.19,9.42,39.15,11.89,58.65,5.62,1.6,22.48,1.12,45.08,2.72,67.57,26.61-.92,61.48-1.35,88.09-2.26,1.13-5.04.93-10.51-.08-15.58-.3-1.53-.62-3.36.51-4.43,1.03-.99,2.82-.7,3.9.23,1.08.93,1.64,2.32,2.16,3.65,1.57,4.03,3.14,8.06,4.71,12.1,13.13-1.53,25.47-4.75,37-11.22.73-.41,1.48-.84,2.3-.94s1.77.2,2.16.94c.46.86.02,1.9-.41,2.78-1.04,2.11-2.08,4.21-3.12,6.32,1.2,5.47.91,11.29-1.04,16.53-1.95,5.25-5.58,9.89-10.33,12.86-5.48,3.43-12.17,4.51-18.63,4.2s-12.78-1.91-19.04-3.5c.48.34-.59-.56-.11-.22Z"/><path class="l" d="M545.42,222.39c.77-2.89,2.37-5.67,4.9-7.26,3.06-1.92,7-1.82,10.46-.8,7.39,2.17,13.38,8.34,15.76,15.67,2.38,7.33,1.24,15.63-2.63,22.29-3.87,6.66-10.34,11.68-17.62,14.22-3.21,1.12-7.11,1.67-9.75-.47-1.78-1.44-2.57-3.84-2.58-6.14s.65-4.53,1.3-6.73c-1.43,1.26-3.88.17-4.66-1.57-.78-1.74-.42-3.75-.04-5.62.89-4.41,1.48-9.06,2.86-13.34,1.1-3.41,1.22-6.74,2-10.24Z"/><path class="l" d="M528.53,223.66c-.75.13-1.51.24-2.17.61s-1.19,1.08-1.11,1.83c.09.82.84,1.4,1.57,1.8,4.48,2.51,10.35,2.27,14.61-.59,1.77-1.19,3.24-2.82,4.29-4.68.68-1.2,2.5-4.67,1.71-6.05-.96-1.66-3.45.41-4.34,1.04-2.04,1.44-4.24,2.67-6.53,3.65-2.57,1.1-5.27,1.91-8.02,2.38Z"/><path class="z" d="M475.69,63.26c-5.78.76-11.55,1.53-17.33,2.29-3.77.5-3.82,6.51,0,6,5.78-.76,11.55-1.53,17.33-2.29,3.77-.5,3.82-6.51,0-6Z"/><path class="z" d="M501.39,68.91c-2.23-1.41-4.46-2.82-6.68-4.23-3.27-2.07-6.29,3.12-3.03,5.18,2.23,1.41,4.46,2.82,6.68,4.23,3.27,2.07,6.29-3.12,3.03-5.18Z"/><path class="o" d="M489.07,78.84c-.88-3.76-6.66-2.17-5.79,1.6,1.35,5.79.95,11.71-1.39,17.21-1.49,3.51,3.67,6.57,5.18,3.03,3-7.06,3.75-14.33,2-21.83Z"/><path class="o" d="M457.27,102.07c-3.51-3.64-5.31-8.19-5.31-13.23,0-3.86-6-3.87-6,0,0,6.6,2.49,12.72,7.07,17.47,2.68,2.79,6.92-1.46,4.24-4.24Z"/><path class="u" d="M469.43,79.07c-3.86,0-3.87,6,0,6s3.87-6,0-6Z"/><path class="u" d="M497.83,82.58c-.12-.37-.33-.69-.62-.97-.27-.29-.59-.5-.97-.62-.36-.19-.74-.27-1.16-.26-.27.04-.53.07-.8.11-.51.14-.95.4-1.32.77-.16.2-.31.4-.47.61-.27.47-.41.97-.41,1.51v.12c-.02.41.07.8.26,1.16.12.37.33.69.62.97.27.29.59.5.97.62.36.19.74.27,1.16.26.27-.04.53-.07.8-.11.51-.14.95-.4,1.32-.77.16-.2.31-.4.47-.61.27-.47.41-.97.41-1.51v-.12c.02-.41-.07-.8-.26-1.16Z"/><path class="k" d="M59.63,412.52s6.98-13.72,27.58-5.22c0,0-10.98,17.65-27.58,5.22Z"/><path class="k" d="M115.06,443.83c1.58-3.06,3.79-5.75,5.85-8.52,10.51-14.16,17.18-31.15,19.1-48.69-.62,16.55-5.81,32.9-14.86,46.77-2.31,3.54-4.95,7.14-5.37,11.35-.5,5.04,2.73,10.22,7.48,11.98-3.93-1.46-8.58-.17-12.48-2.68-3.3-2.13-1.31-7.13.28-10.22Z"/><path class="k" d="M157.53,404.93s-2.41-10.82-18.3-8.59c0,0,4.49,14.28,18.3,8.59Z"/><path class="k" d="M136.69,408.29s-2.41-10.82-18.3-8.59c0,0,4.49,14.28,18.3,8.59Z"/><path class="k" d="M72.21,450.37c2.93-4.38,1.92-10.38-.58-15.03-2.5-4.64-6.26-8.47-9.04-12.95-5.54-8.92-6.84-19.97-5.65-30.41,1.19-10.44,4.69-20.46,8.16-30.37.63,8.56-2.91,17.47-4.7,25.86-1.79,8.39-2.67,17.55,1.18,25.22,2.26,4.5,5.97,8.09,8.72,12.3,3.08,4.71,4.94,10.14,8.13,14.77,3.58,5.2,8.83,9.24,14.77,11.37-6.88-1.46-14.08-2.02-21-.77Z"/><path class="q" d="M103.44,414.39s2.19-23.85-31.96-29.77c0,0-.19,32.35,31.96,29.77Z"/><path class="q" d="M112.72,373.05s-4.72-16.3-28.78-11.38c0,0,8.23,21.39,28.78,11.38Z"/><path class="q" d="M128.6,371.89s4.72-16.3,28.78-11.38c0,0-8.23,21.39-28.78,11.38Z"/><path class="q" d="M109.12,356.61s-6.42-11.59,9.55-22.19c0,0,7.3,16.33-9.55,22.19Z"/><path class="k" d="M97.56,439.43s-2.41-10.82-18.3-8.59c0,0,4.49,14.28,18.3,8.59Z"/><path class="k" d="M64.45,424.07s-9.35-5.96-19.03,6.83c0,0,13.26,6.94,19.03-6.83Z"/><path class="k" d="M62.04,370.85s-2.41-10.82-18.3-8.59c0,0,4.49,14.28,18.3,8.59Z"/><path class="q" d="M102.66,424.8s10.87-21.35,42.91-8.13c0,0-17.09,27.46-42.91,8.13Z"/><path class="q" d="M100.19,453.68l3.25-39.29s-3.26,30.97-15.03,39.19l11.78.11Z"/><path class="q" d="M102.66,423.84s9.06-46.34,32.35-55.61c0,0-27.39,6.42-32.35,55.61Z"/><path class="q" d="M110.95,391.91s10.75-33.67-10.16-42.93c0,0,18.3,9.42,8.94,45.6,0,0,1.05-.63,1.22-2.67Z"/><path class="w" d="M140.58,510.93c-2.89,6.49-10.55,9.2-17.51,10.6-12.6,2.53-25.61,2.97-38.34,1.3-9.9-1.3-20.88-4.86-25.05-13.93-2.39-5.19-2.01-11.2-1.25-16.86,1.09-8.15,2.88-16.2,5.35-24.04.51-1.62.99-3.8,1.57-6.08.94-3.77,2.12-7.81,4.09-9.99,4.07-4.51,14.07-2.96,19.5-3.21,9-.42,17.99-.84,26.98-1.27,4.01-.18,8.4-.26,11.58,2.19,3.14,2.42,4.2,6.61,5.07,10.47,1.11,4.98,2.23,9.96,3.34,14.94,1.52,6.78,3.03,13.56,4.55,20.33,1.16,5.15,2.28,10.73.12,15.55Z"/><path class="aa" d="M135.91,475.05c-8.27-1.65-17.56.75-25.34-2.75-3.59-1.61-6.61-4.39-10.36-5.58-6.14-1.94-12.81.78-19.2-.05-2.22-.28-4.36-.99-6.49-1.7-3.02-1.01-6.04-2.01-9.06-3.01-.04-.01-.08-.03-.11-.04.94-3.77,2.12-7.81,4.09-9.99,4.07-4.51,14.07-2.96,19.5-3.21,9-.42,17.99-.84,26.98-1.27,4.01-.18,8.4-.26,11.58,2.19,3.14,2.42,4.2,6.61,5.07,10.47,1.11,4.98,2.23,9.96,3.34,14.94Z"/><path class="e" d="M62.77,449.4c-1.05,1.75-2.05,4.14-.67,5.64.78.84,2.04,1.01,3.18.92,1.14-.09,2.27-.39,3.41-.29,2.73.24,4.82,2.69,7.52,3.21,3.69.71,7.04-2.32,10.76-2.82,3.05-.41,6.02.9,8.87,2.06,2.85,1.16,6.01,2.2,8.94,1.26,2.26-.73,4.05-2.55,6.33-3.23,4.41-1.32,9.07,1.99,13.6,1.18.78-.14,1.54-.4,2.29-.66,1.86-.65,3.72-1.29,5.59-1.94,1.47-.51,3.03-1.08,4.01-2.3,1.67-2.08,1.01-5.12.26-7.69-.77-2.65-1.89-5.67-4.52-6.52-2.49-.81-5.05.75-7.59,1.38-5.21,1.28-10.59-1.44-15.96-1.23-6.18.24-11.82,4.34-18.01,4.09-3.41-.14-6.71-1.61-10.11-1.38-1.98.14-3.9.85-5.88.87-1.46.02-2.76-.39-4.08-.98-1.13-.5-1.81-.84-2.8.09-1.02.95-1.68,2.6-2.39,3.79l-2.73,4.54Z"/><path class="aa" d="M85.5,476.28c0,1.81-1.47,3.27-3.27,3.27s-3.27-1.47-3.27-3.27,1.47-3.27,3.27-3.27,3.27,1.47,3.27,3.27Z"/><circle class="aa" cx="95.05" cy="482.11" r="1.64"/><path class="aa" d="M367.84,513.82s-20.32-30.23,13.54-33.33c33.86-3.1,34.22,20.58,64.87,35.72l-78.42-2.4Z"/><path class="d" d="M409.04,501.59c1.24-.8,2.47-1.59,3.71-2.39,1.17-.75,2.47-1.54,3.86-1.37,2.1.26,3.89,2.68,5.87,1.92,1.27-.49,1.85-2.12,3.16-2.49,1.82-.53,3.24,1.68,5.05,2.24,2.55.79,5.05-1.82,7.7-1.57,2.62.24,4.13,3.01,5.17,5.43.87,2.02,1.74,4.04,2.61,6.05.75,1.74,1.5,3.49,2.25,5.23-13.1,2.16-26.68,1.41-39.47-2.18-2.21-.62-5.57-1.74-5.33-4.57.23-2.78,3.34-4.96,5.42-6.29Z"/><path class="w" d="M444.48,516.21h-76.63s-20.32-17.78,13.54-19.6,34.22,10.69,64.87,19.6h-1.78Z"/><rect class="w" x="348.59" y="509.8" width="19.25" height="6.42"/><rect class="ae" x="311.35" y="504.98" width="40.46" height="13.37" rx="3.03" ry="3.03"/><rect class="d" x="320.26" y="504.98" width="1.69" height="13.37"/><rect class="d" x="326.14" y="504.98" width="1.69" height="13.37"/><path class="d" d="M464.96,513.51c-.5-1.85.06-4.05,1.64-5.13,1.59-1.09,3.8-.83,5.51.06.59.3,1.13.67,1.68,1.04.5.33,1,.67,1.49,1,.34.23.7.49.8.88.13.54-.31,1.07-.82,1.27-.52.19-1.09.14-1.64.13-.68-.02-1.1.24-1.71.4-.71.19-1.47.15-2.2.17-.42.02-4.71.33-4.76.17Z"/><path class="d" d="M484.89,519.34c.19-.69-.02-1.52-.62-1.93-.6-.41-1.43-.31-2.07.02-.22.11-.43.25-.63.39-.19.13-.37.25-.56.38-.13.08-.26.18-.3.33-.05.2.12.4.31.48s.41.05.62.05c.26,0,.41.09.64.15.27.07.55.06.83.07.16,0,1.77.12,1.79.06Z"/></g></svg>