<?xml version="1.0" encoding="utf-8"?>
<!-- Generator: Adobe Illustrator 28.3.0, SVG Export Plug-In . SVG Version: 6.00 Build 0)  -->
<svg version="1.1" id="a" xmlns="http://www.w3.org/2000/svg" xmlns:xlink="http://www.w3.org/1999/xlink" x="0px" y="0px"
	 viewBox="0 0 1003.7 529.1" style="enable-background:new 0 0 1003.7 529.1;" xml:space="preserve">
<style type="text/css">
	.st0{fill:#E9ECE0;}
	.st1{fill:#4A522B;}
	.st2{fill:#758052;}
	.st3{fill:#929F63;}
	.st4{fill:#625034;}
	.st5{fill:#0D0B07;}
	.st6{fill:#4A3C27;}
	.st7{fill:#987B49;}
	.st8{fill:#745A30;}
	.st9{fill:#1F1A12;}
	.st10{fill:#606944;}
	.st11{fill:#808A5B;}
	.st12{fill:#86724F;}
	.st13{fill:#101209;}
	.st14{fill:#565F3C;}
	.st15{fill:#7C6846;}
	.st16{fill:#58472C;}
	.st17{fill:#0A0805;}
	.st18{fill:#FEB187;}
	.st19{fill:#D9604D;}
	.st20{fill:#231B1B;}
	.st21{fill:#463636;}
	.st22{fill:#688CC8;}
	.st23{fill:#6188C6;}
	.st24{fill:#67322C;}
	.st25{fill:#59652D;}
	.st26{fill:#AB8547;}
	.st27{fill:#806435;}
	.st28{fill:#CFA863;}
	.st29{fill:#BED374;}
	.st30{fill:#9FB260;}
	.st31{fill:#564324;}
	.st32{fill:#999F87;}
	.st33{fill:#686C5C;}
</style>
<g id="b">
	<path class="st0" d="M65.7,397.8h872.4c36.3,0,65.7,29.4,65.7,65.7l0,0c0,36.3-29.4,65.7-65.7,65.7H65.7
		C29.4,529.1,0,499.7,0,463.5l0,0C0,427.2,29.4,397.8,65.7,397.8z"/>
	<path class="st1" d="M708,308.7c-6.2-9.6-6.7-22.7-4.5-34.4s6.6-22.7,9.5-34.2c7-28.3,3.5-59.6-9.3-85.2
		c4.6,21.5,7.4,41.7,8.3,63.8c0.8,18.4-0.9,36.9-2.7,55.3C708.1,286.2,709.1,296.6,708,308.7L708,308.7z"/>
	<path class="st2" d="M719.5,272.2c3.3-10.3,9.5-19.1,14.2-28.8c7.2-14.8,10.9-31.8,10.6-48.7c-0.4-22.9-7.8-44.8-15.1-66.2
		c6.4,16.2,12.7,32.6,15.5,50c2.8,17.4,1.9,36.2-5.6,51.8c-5.1,10.6-13,19.4-17.5,30.4c-5,12.4-4.8,26.2-0.8,38.9
		C715.8,292.2,716.9,280.5,719.5,272.2L719.5,272.2z"/>
	<path class="st2" d="M731.5,283.6c-0.2-7.3,1.1-14.5,1.9-21.8c2.9-27.7-2-56.4-13.7-80.9c15.8,18.6,21.3,47.4,13.7,71.7
		c-2.7,8.5-6.8,16.7-6.8,25.7c0,6.5,2.5,14.7,7.3,18.5C732.5,292.6,731.6,288.3,731.5,283.6L731.5,283.6z"/>
	<path class="st2" d="M761.9,271.7c3.3-9.7,7.8-18.8,11-28.5c5.3-16.7,6.2-34.7,9.2-52c3-17.4,8.8-35.3,21.2-46.1
		c-9.9,13.6-15,30.8-18.6,47.9c-3.5,17.1-5.7,34.7-10.9,51.3c-5.4,17.5-12.9,33.6-14,52.4C754.6,293.5,760.3,276.5,761.9,271.7
		L761.9,271.7z"/>
	<path class="st2" d="M756,275.1c-3.7-11.5-2.2-24.3-0.8-36.5c3.8-33,6.8-66.1,8.9-99.2c-2.2,27.9-4.4,55.7-6.6,83.6
		c-1.1,13.4-2.1,27.4,2.2,40c2.3,6.8,6,12.9,9.7,18.9c1.4,2.3,8.6,11,8.3,13.6c-0.5,4.3-5.5,0.3-7.7-1.2
		C762.7,289.1,760.4,282.5,756,275.1L756,275.1z"/>
	<path class="st2" d="M803.9,247.8c2.7-16.5,1.3-33.4,2-50.1c0.7-16.7,3.8-34.2,13.5-46.8c-6.5,10-8,23.1-7.7,35.5
		c0.4,12.4,2.3,24.8,1.7,37.1c-0.8,16.4-6,32.1-11.1,47.5c-3.3,9.9-6.3,19.9-9.9,29.6C793.9,282.4,801,265.7,803.9,247.8
		L803.9,247.8z"/>
	<path class="st1" d="M656,246.3c2.7-16.5,1.3-33.4,2-50.1c0.7-16.7,3.8-34.2,13.5-46.8c-6.5,10-8,23.1-7.7,35.5
		c0.4,12.4,2.3,24.8,1.7,37.1c-0.8,16.4-6,32.1-11.1,47.5c-3.3,9.9-6.3,19.9-9.9,29.6C646,280.9,653.1,264.2,656,246.3L656,246.3z"
		/>
	<path class="st2" d="M794.6,261.1c-1.5-12.6,0.5-25.3,0.5-38c0-23.5-7.2-46.8-20-65.3c6.2,15.2,9.6,31.9,9.9,48.7
		c0.2,13.1-1.5,26.3,0.4,39.2c1.5,10.2,5.3,19.7,10,28.5c3.9,7.2,9,17.8,15.3,22.5C802.2,287,796.2,274.8,794.6,261.1L794.6,261.1z"
		/>
	<path class="st2" d="M757.2,263c-1.5-12.6,0.5-25.3,0.5-38c0-23.5-7.2-46.8-20-65.3c6.2,15.2,9.6,31.9,9.9,48.7
		c0.2,13.1-1.5,26.3,0.4,39.2c1.5,10.2,5.3,19.7,10,28.5c3.9,7.2,9,17.8,15.3,22.5C764.8,288.8,758.8,276.6,757.2,263L757.2,263z"/>
	<path class="st2" d="M832.5,270.5c2.3-12,5.7-23.8,6.1-36c0.5-15.7-3.7-31-5.2-46.6s0.6-33.2,11.1-43.5
		c-8.2,13.1-8.4,30.5-6.4,46.3c2,15.9,5.9,31.6,4.9,47.6c-1.3,20.1-8.5,39.7-11,59.6C827.5,291.4,831.1,277.7,832.5,270.5
		L832.5,270.5z"/>
	<path class="st2" d="M856.5,262.8c2.5-9,6.4-17.5,8.5-26.6c5.8-24.6-2.2-52.6-19.6-68.6c10,6.2,17.8,16.8,21.3,29
		c3.6,12.2,2.9,25.9-1.9,37.6c-3.5,8.5-8.9,15.7-12.4,24.2c-3.5,8.4-8,27.3-2.4,35.5c2.8-2.5,2.9-7.2,3.3-11
		C854,276,854.7,269.4,856.5,262.8z"/>
	<path class="st2" d="M601.8,309c-6.2-9.6-6.7-22.7-4.5-34.4s6.6-22.7,9.5-34.2c7-28.3,3.5-59.6-9.3-85.2
		c4.6,21.5,7.4,41.7,8.3,63.8c0.8,18.4-0.9,36.9-2.7,55.3C601.9,286.5,602.9,296.8,601.8,309L601.8,309z"/>
	<path class="st2" d="M613.3,272.5c3.3-10.3,9.5-19.1,14.2-28.8c7.2-14.8,10.9-31.8,10.6-48.7c-0.4-22.9-7.8-44.8-15.1-66.2
		c6.4,16.2,12.7,32.6,15.5,50c2.8,17.4,1.9,36.2-5.6,51.8c-5.1,10.6-13,19.4-17.5,30.4c-5,12.4-4.8,26.2-0.8,38.9
		C609.6,292.5,610.7,280.7,613.3,272.5L613.3,272.5z"/>
	<path class="st1" d="M625.3,283.9c-0.2-7.3,1.1-14.5,1.9-21.8c2.9-27.7-2-56.4-13.7-80.9c15.8,18.6,21.3,47.4,13.7,71.7
		c-2.7,8.5-6.8,16.7-6.8,25.7c0,6.5,2.5,14.7,7.3,18.5C626.3,292.9,625.4,288.5,625.3,283.9L625.3,283.9z"/>
	<path class="st1" d="M596.3,287.7c-1.1-7.2-3.5-14-5.5-21c-7.5-26.6-7.5-55.7-0.1-82.3c-12.3,21.6-12.9,51.1-1.4,73.3
		c4,7.8,9.5,15,11,23.8c1.1,6.4,0,15-4,19.8C596.9,296.8,597,292.3,596.3,287.7L596.3,287.7z"/>
	<path class="st2" d="M655.7,272c3.3-9.7,7.8-18.8,11-28.5c5.3-16.7,6.2-34.7,9.2-52c3-17.4,8.8-35.3,21.2-46.1
		c-9.9,13.6-15,30.8-18.6,47.9c-3.5,17.1-5.7,34.7-10.9,51.3c-5.4,17.5-12.9,33.6-14,52.4C648.4,293.7,654.1,276.8,655.7,272
		L655.7,272z"/>
	<path class="st2" d="M649.8,275.3c-3.7-11.5-2.2-24.3-0.8-36.5c3.8-33,6.8-66.1,8.9-99.2c-2.2,27.9-4.4,55.7-6.6,83.6
		c-1.1,13.4-2.1,27.4,2.2,40c2.3,6.8,6,12.9,9.7,18.9c1.4,2.3,8.6,11,8.3,13.6c-0.5,4.3-5.5,0.3-7.7-1.2
		C656.5,289.4,654.2,282.8,649.8,275.3L649.8,275.3z"/>
	<path class="st3" d="M697.7,248.1c2.7-16.5,1.3-33.4,2-50.1c0.7-16.7,3.8-34.2,13.5-46.8c-6.5,10-8,23.1-7.7,35.5
		c0.4,12.4,2.3,24.8,1.7,37.2c-0.8,16.4-6,32.1-11.1,47.5c-3.3,9.9-6.3,19.9-9.9,29.6C687.7,282.6,694.8,266,697.7,248.1
		L697.7,248.1z"/>
	<path class="st2" d="M688.4,261.4c-1.5-12.6,0.5-25.3,0.5-38c0-23.5-7.2-46.8-20-65.3c6.2,15.2,9.6,31.9,9.9,48.7
		c0.2,13.1-1.5,26.3,0.4,39.2c1.5,10.2,5.3,19.7,10,28.5c3.9,7.2,9,17.8,15.3,22.5C696,287.2,690,275.1,688.4,261.4L688.4,261.4z"/>
	<path class="st3" d="M651,263.2c-1.5-12.6,0.5-25.3,0.5-38c0-23.5-7.2-46.8-20-65.3c6.2,15.2,9.6,31.9,9.9,48.7
		c0.2,13.1-1.5,26.3,0.4,39.2c1.5,10.2,5.3,19.7,10,28.5c3.9,7.2,9,17.8,15.3,22.5C658.6,289,652.7,276.9,651,263.2L651,263.2z"/>
	<path class="st1" d="M726.3,270.7c2.3-12,5.7-23.8,6.1-36c0.5-15.7-3.7-31-5.2-46.6s0.6-33.2,11.1-43.5
		c-8.2,13.1-8.4,30.5-6.4,46.3c2,15.9,5.9,31.6,4.9,47.6c-1.3,20.1-8.5,39.7-11,59.6C721.4,291.7,724.9,277.9,726.3,270.7
		L726.3,270.7z"/>
	<path class="st2" d="M750.3,263.1c2.5-9,6.4-17.5,8.5-26.6c5.8-24.6-2.2-52.6-19.6-68.6c10,6.2,17.8,16.8,21.3,29
		c3.6,12.2,2.9,25.9-1.9,37.6c-3.5,8.5-8.9,15.7-12.4,24.2c-3.5,8.4-8,27.3-2.4,35.5c2.8-2.5,2.9-7.2,3.3-11
		C747.8,276.3,748.5,269.7,750.3,263.1z"/>
	<rect x="579.6" y="311" class="st4" width="342.2" height="109.6"/>
	<rect x="573.4" y="294.3" class="st5" width="348.4" height="18.3"/>
	<polygon class="st6" points="579.6,311 579.6,326.4 921.8,356.1 921.8,312.6 	"/>
	<rect x="579.6" y="367.6" class="st6" width="342.2" height="3.2"/>
	<rect x="579.6" y="379.9" class="st6" width="342.2" height="3.2"/>
	<circle class="st6" cx="600.1" cy="341.1" r="4"/>
	<path class="st6" d="M613.6,348.7c0,0.9-0.8,1.7-1.7,1.7s-1.7-0.8-1.7-1.7s0.8-1.7,1.7-1.7S613.6,347.8,613.6,348.7z"/>
	<rect x="53.3" y="402.5" class="st7" width="81.2" height="76.5"/>
	<polygon class="st8" points="53.3,402.5 53.3,411.4 134.6,431.1 134.6,402.5 	"/>
	<rect x="46.5" y="392.9" class="st9" width="94.9" height="9.6"/>
	<path class="st8" d="M123.7,436.2c0,1-0.8,1.8-1.8,1.8s-1.8-0.8-1.8-1.8s0.8-1.8,1.8-1.8S123.7,435.2,123.7,436.2z"/>
	<circle class="st8" cx="127.2" cy="432.6" r="0.6"/>
	<path class="st10" d="M703.5,370.8c0,0-5.5-14.4-26.9-8.1C676.6,362.7,685.6,381.4,703.5,370.8z"/>
	<path class="st10" d="M645,396c-1.2-3.2-3.2-6.1-4.9-9.1c-8.9-15.2-13.7-32.8-13.8-50.5c-1.2,16.5,2.2,33.3,9.8,48.1
		c1.9,3.8,4.2,7.6,4.1,11.9c0,5.1-3.8,9.9-8.7,11.1c4.1-1,8.5,0.8,12.7-1.3C647.7,404.4,646.3,399.2,645,396L645,396z"/>
	<path class="st10" d="M607,352.8c0,0,3.6-10.5,19.1-6.6C626.1,346.2,620.1,359.9,607,352.8z"/>
	<path class="st10" d="M627.3,358.4c0,0,3.6-10.5,19.1-6.6C646.4,351.8,640.4,365.5,627.3,358.4z"/>
	<path class="st10" d="M686.9,407.1c-2.5-4.7-0.8-10.5,2.2-14.9s7.1-7.8,10.4-11.9c6.5-8.3,8.9-19.1,8.9-29.6s-2.5-20.8-4.9-31.1
		c-1.5,8.4,1,17.7,1.9,26.2c0.9,8.5,0.8,17.7-3.9,24.9c-2.7,4.2-6.8,7.4-10,11.3c-3.6,4.4-6,9.5-9.7,13.8c-4.1,4.8-9.8,8.2-15.9,9.7
		C672.9,404.9,680.2,405.1,686.9,407.1L686.9,407.1z"/>
	<path class="st11" d="M659.7,368c0,0,0.4-24,35-26.2C694.7,341.8,691.4,374,659.7,368L659.7,368z"/>
	<path class="st11" d="M654.9,325.9c0,0,6.4-15.7,29.8-8.2C684.8,317.7,674.3,338,654.9,325.9z"/>
	<path class="st11" d="M639.2,323c0,0-2.9-16.7-27.4-14.4C611.8,308.6,617.7,330.8,639.2,323z"/>
	<path class="st11" d="M660.3,309.9c0,0,7.6-10.8-7.1-23.1C653.1,286.8,644.1,302.3,660.3,309.9z"/>
	<path class="st10" d="M662.9,393.5c0,0,3.6-10.5,19.1-6.6C682,386.9,676,400.7,662.9,393.5z"/>
	<path class="st10" d="M697.4,381.8c0,0,9.9-4.9,18.2,8.8C715.6,390.6,701.7,396.1,697.4,381.8z"/>
	<path class="st10" d="M705.5,329.1c0,0,3.6-10.5,19.1-6.6C724.6,322.6,718.6,336.3,705.5,329.1z"/>
	<path class="st11" d="M659.4,378.4c0,0-8.5-22.4-41.8-12.7C617.6,365.7,631.6,394.9,659.4,378.4z"/>
	<path class="st11" d="M658.7,407.4l1-39.4c0,0-0.1,31.1,10.8,40.6L658.7,407.4L658.7,407.4z"/>
	
		<rect x="621.6" y="412.5" transform="matrix(1 -1.745432e-03 1.745432e-03 1 -0.7857 1.1566)" class="st12" width="81.2" height="76.5"/>
	<polygon class="st4" points="621.5,412.5 621.5,421.3 702.7,441.2 702.8,412.6 	"/>
	
		<rect x="614.7" y="402.9" transform="matrix(1 -1.745432e-03 1.745432e-03 1 -0.7106 1.1563)" class="st5" width="94.9" height="9.6"/>
	<path class="st4" d="M632.4,446.3c0,1,0.8,1.8,1.8,1.8s1.8-0.8,1.8-1.8s-0.8-1.8-1.8-1.8S632.4,445.3,632.4,446.3z"/>
	<path class="st4" d="M628.3,442.7c0,0.3,0.3,0.6,0.6,0.6c0.3,0,0.6-0.3,0.6-0.6s-0.3-0.6-0.6-0.6
		C628.6,442.1,628.3,442.4,628.3,442.7z"/>
	<path class="st11" d="M659.5,377.5c0,0-4-47-26.2-58.8C633.3,318.7,659.8,328,659.5,377.5z"/>
	<path class="st11" d="M654.7,344.8c0,0-7.1-34.6,14.7-41.6c0,0-19.2,7.4-13.8,44.4C655.6,347.6,654.6,346.9,654.7,344.8z"/>
	<path class="st13" d="M763.3,330.5c-3.9-17.1-13.3-32.9-26.2-44.9c-0.4,17.8,3.9,35.7,12.3,51.4C754.5,338,761.6,335.4,763.3,330.5
		L763.3,330.5z"/>
	<path class="st13" d="M791,356.9c7.1-24.2,9.1-49.6,6.7-74.8c-14.3,16.7-23.2,38-25,59.9c-0.4,4.8,1.5,11.6,5.3,14.6
		C781.7,359.6,786.8,359.3,791,356.9L791,356.9z"/>
	<path class="st2" d="M784.9,382.8c18.4-3.2,35.1-15,44.2-31.3c-17.4-3.1-34.9,2.2-48,14.2C779.4,371.6,780.2,379.1,784.9,382.8
		L784.9,382.8z"/>
	<path class="st14" d="M781.1,340c0,0,7.7-31.8,13.4-42.2C794.5,297.7,784.4,335.8,781.1,340z"/>
	<path class="st14" d="M754.5,340c0,0-7.7-31.8-13.4-42.2C741.1,297.7,751.2,335.8,754.5,340z"/>
	<path class="st14" d="M783.2,379.8c0,0,20-15.5,32.7-21.9C815.9,357.9,788.7,378.4,783.2,379.8z"/>
	<path class="st2" d="M747,382.8c-18.4-3.2-35.1-15-44.2-31.3c17.4-3.1,34.9,2.2,48,14.2C752.5,371.6,751.8,379.1,747,382.8z"/>
	<path class="st14" d="M748.7,379.8c0,0-20-15.5-32.7-21.9C716,357.9,743.2,378.4,748.7,379.8z"/>
	<path class="st2" d="M783.4,377.5c8.3-37.2,1.8-88.8-16.2-122.3c-18.8,34.7-22.9,90.2-11.2,127.9c4.1,3,8.7,5.4,13.8,5.1
		C774.8,388,782.3,382.5,783.4,377.5L783.4,377.5z"/>
	<path class="st14" d="M767.5,382.5c0,0-2.6-75.4,1.1-94L767.5,382.5z"/>
	<path class="st14" d="M788.5,381.4c21.6-19.1,32.2-50.4,26-78.6c-13.6,7.1-25.1,18.1-32.7,31.4c-7.6,13.3-11.3,28.8-10.4,44.1
		C776.5,381.7,782.4,381.3,788.5,381.4L788.5,381.4z"/>
	<path class="st2" d="M778.6,379.8c0,0,13-35.2,24.1-50.5L778.6,379.8z"/>
	<path class="st14" d="M762.8,372.6c-0.7-30.8-16.8-59.2-41.1-78.3c-0.7,15.9-1,31.9,2.3,47.4c3.3,15.5,10.4,30.7,22.5,41
		c3,2.5,7.7,0.8,11.2-1C761.2,379.9,762.9,376.5,762.8,372.6L762.8,372.6z"/>
	<rect x="725.3" y="386.2" class="st15" width="81.2" height="76.5"/>
	<path class="st2" d="M755.7,379.8c0,0-13-35.2-24.1-50.5L755.7,379.8z"/>
	<polygon class="st16" points="725.3,386.2 725.3,395.1 806.6,414.8 806.6,386.2 	"/>
	<rect x="718.5" y="376.6" class="st17" width="94.9" height="9.6"/>
	<path class="st16" d="M795.7,419.9c0,1-0.8,1.8-1.8,1.8s-1.8-0.8-1.8-1.8s0.8-1.8,1.8-1.8S795.7,418.8,795.7,419.9z"/>
	<path class="st16" d="M799.8,416.3c0,0.3-0.3,0.6-0.6,0.6s-0.6-0.3-0.6-0.6s0.3-0.6,0.6-0.6S799.8,416,799.8,416.3z"/>
	<path class="st18" d="M494.5,234.3l-27.4,6.3l-5.1-11.2l-25.4-56.1c0,0,23.2-21.5,33-19.2l1.3,4.2L494.5,234.3L494.5,234.3z"/>
	<path class="st19" d="M457.2,199.2c0.7,10.2,3.2,20.2,5.7,30.2c-0.3,0-0.6,0-0.9,0l-25.4-56.1c0,0,23.2-21.5,33-19.2l1.3,4.2
		c-3.1,3.4-6.1,6.8-8.3,11.1C457.8,178.4,456.6,188.9,457.2,199.2z"/>
	<path class="st20" d="M420.4,396.6c0,0-3.7,2.1-5.5,4.3c-1.8,2.1-17.5,18.2-12.5,25.7c5,7.5,24.1,13.5,30.8,23.2
		c6.8,9.6,22.1,33.3,62.9,21c0,0,5.9-5.2-0.9-12.5s-44.4-45.4-43.5-50.8S420.4,396.6,420.4,396.6L420.4,396.6z"/>
	<path class="st18" d="M425,388.1l-6.5,12.1c0,0-4.5,15.6,5.5,15.7c10,0.1,26.8-5.9,26.8-5.9l4.2-10L425,388.1L425,388.1z"/>
	<path class="st20" d="M204.1,330.5c0,0,1.5-11-14.1-13.5s-22.5,13.9-18.9,38.3c3.6,24.4-19.1,53.1,22.1,66.1
		c41.2,13,25.5-69,25.5-69L204.1,330.5L204.1,330.5z"/>
	<path class="st18" d="M210.8,337.6l-10-10.7c0,0-28.5,10.2-5,34L210.8,337.6z"/>
	<path class="st20" d="M407.3,214.5c3.5-0.5,112.1,23.5,117,40.4c4.9,17-47.4,152.5-47.4,152.5s-44.1-7.1-52.9-19.5
		c0,0,29.2-84.1,32.1-87.9s-79.8-2.9-80.3-4.3s-34.6-8.4-3.1-46S407.3,214.5,407.3,214.5L407.3,214.5z"/>
	<path class="st21" d="M242.1,271.8c11,40,22,79.9,33,119.9c-21.7-18.7-43.4-37.4-65-56c-8.1,5.3-12.6,13.9-15.3,23.3
		s-1.9,19.7,2.1,28.5c14.2,31,49.3,43,75.7,64.5c9.8,8,19.9,16.2,32.1,19.6c12.1,3.5,26.9,0.9,34.3-9.3c4.6-6.4,5.6-14.7,6.5-22.6
		c3.3-30.3,6.6-60.6,10-90.9c2.1-19.6,4.3-39.2,6.5-58.9c1.1-10.4,1.4-22.9-7.1-28.9c-6.1-4.4-14.4-3.4-21.9-2.3
		C301.3,263.5,273.6,267,242.1,271.8L242.1,271.8z"/>
	<path class="st22" d="M462.4,160c2.8-1.5,5.8-3.1,7.2-6c1.9-3.8,0.3-8.4-1.6-12.2c-5.1-10.2-12.5-19.3-21.4-26.4
		c-1.6-1.2-3.8-2.5-5.4-1.4c-1.4,0.9-1.5,2.9-1.5,4.5c0.3,13.2,0.5,26.5,0.8,39.7c0.1,5.7-1.8,12.7,5.3,10.4
		C447.5,168.1,462.4,161,462.4,160L462.4,160z"/>
	<path class="st23" d="M311.7,126.8c-18.7,21.6-31.8,47.4-44.8,72.9c-8.4,16.5-16.7,33-23.9,50c-2.4,5.8-4.7,11.7-5.3,17.9
		s0.8,12.9,5.1,17.5c6.2,6.8,16.4,7.6,25.6,7.9c29.2,0.8,60,0.4,85.4-14c15.4-8.7,27.7-21.9,39.8-34.9
		c12.8-13.8,25.7-27.7,36.2-43.3s18.8-33.1,21.4-51.8c2.4-17-0.1-34.3-4.6-50.7c-2.3-8.5-5.2-16.8-8.3-25
		c-2.1-5.7-3.1-13.7-10.3-13.8c-6.4-0.1-14.6,3.9-20.5,5.9c-7,2.4-13.9,5-20.7,8c-13.5,5.8-26.5,12.9-38.7,21.2
		C334.8,103.7,322.4,114.5,311.7,126.8L311.7,126.8z"/>
	<path class="st18" d="M453.1,113.6c-4.1,5-8.3,9.9-12.4,14.9c-4.4,5.2-8.7,10.5-13,15.7c-13.8-13.8-21.3-33.6-20.3-53.1
		c0.1-2.9,0.5-5.8,1.6-8.5c1.4-3.2,3.8-5.8,6.9-7.4c1.8-1,3.7-1.6,5.7-1.8C436.7,82,446.2,97.7,453.1,113.6z"/>
	<path class="st24" d="M495.8,53.7c3.6-1.4,7.3-2.8,10.9-4.2c5.8-2.2,12.1-4.8,15.1-10.3c2-3.5,2.1-8.1,0-11.6
		c-2.1-3.5-7.1-5.9-11-4.9c-0.5-5.8-5.9-10.4-11.7-11.5s-11.7,0.3-16.9,3.1c-4.6-6.2-11.3-10.9-18.8-13.1c-7-2-14.8-1.7-21,2
		s-10.1,11.4-8.6,18.4c-4.4,1.9-8,5.5-9.8,9.9s-1.1,9.9,0.7,14.3c-1.4-0.5-3,0.1-4,1.2c-1,1.2-1.3,2.7-1.2,4.2s0.6,2.9,1,4.3
		c0.8,2.5,1.7,5.1,2.5,7.7c2.2,6.7,8.3,11.8,15.1,13.9c6.8,2.1,14.2,1.5,21-0.5s13.2-5.3,19.5-8.5c3-1.6,6.1-3.1,9.1-4.7
		c2-1,3.9-2,5.4-3.7C494.6,58.1,496.5,55.8,495.8,53.7L495.8,53.7z"/>
	<path class="st1" d="M869.3,271.1c-6.8-29.6-23-56.7-45.1-77.5c-0.7,30.7,6.7,61.5,21.3,88.5C854.2,284.1,866.5,279.5,869.3,271.1z
		"/>
	<path class="st1" d="M917,316.7c12.3-41.7,15.7-85.6,11.5-128.9c-24.7,28.8-40,65.5-43.2,103.3c-0.7,8.2,2.5,20,9.1,25.1
		C900.9,321.4,909.7,320.7,917,316.7L917,316.7z"/>
	<path class="st3" d="M906.6,361.4c31.7-5.4,60.5-25.8,76.2-53.9c-30-5.4-60.2,3.9-82.7,24.5C897.1,341.9,898.4,354.9,906.6,361.4
		L906.6,361.4z"/>
	<path class="st25" d="M900,287.5c0,0,13.3-54.9,23.1-72.8C923.1,214.7,905.7,280.2,900,287.5z"/>
	<path class="st25" d="M854.1,287.5c0,0-13.3-54.9-23.1-72.8C831,214.7,848.4,280.2,854.1,287.5z"/>
	<path class="st25" d="M903.7,356.1c0,0,34.5-26.7,56.3-37.8C960,318.4,913.1,353.7,903.7,356.1z"/>
	<path class="st3" d="M841.2,361.4c-31.7-5.4-60.5-25.8-76.2-53.9c30-5.4,60.2,3.9,82.7,24.5C850.7,341.9,849.5,354.9,841.2,361.4
		L841.2,361.4z"/>
	<path class="st25" d="M844.1,356.1c0,0-34.5-26.7-56.3-37.8C787.8,318.4,834.7,353.7,844.1,356.1z"/>
	<path class="st3" d="M903.9,352.2c14.3-64.1,3.2-153-28-210.9c-32.4,59.9-39.5,155.5-19.3,220.6c7.1,5.1,15.1,9.2,23.8,8.7
		S902,360.7,903.9,352.2L903.9,352.2z"/>
	<path class="st25" d="M876.5,360.8c0,0-4.4-130.1,2-162L876.5,360.8z"/>
	<path class="st25" d="M912.8,359c37.3-33,55.4-86.8,44.8-135.5c-23.4,12.2-43.2,31.2-56.3,54.2c-13.1,22.9-19.4,49.7-18,76.1
		C892,359.4,902.3,358.7,912.8,359L912.8,359z"/>
	<path class="st3" d="M895.7,356.1c0,0,22.4-60.8,41.6-87.1L895.7,356.1z"/>
	<path class="st25" d="M868.5,343.7c-1.2-53.1-29-102.1-70.9-134.9c-1.1,27.3-1.7,55,3.9,81.8c5.6,26.8,17.9,52.9,38.8,70.6
		c5.2,4.4,13.3,1.4,19.3-1.8C865.7,356.3,868.7,350.5,868.5,343.7L868.5,343.7z"/>
	<rect x="803.9" y="367.2" class="st26" width="140" height="131.8"/>
	<path class="st3" d="M856.1,356.1c0,0-22.4-60.8-41.6-87.1L856.1,356.1z"/>
	<polygon class="st27" points="803.9,367.2 803.9,382.5 943.9,416.4 943.9,367.2 	"/>
	<rect x="792.1" y="350.6" class="st28" width="163.6" height="16.6"/>
	<path class="st27" d="M835.8,436c0,1.7-1.4,3.1-3.1,3.1s-3.1-1.4-3.1-3.1s1.4-3.1,3.1-3.1S835.8,434.3,835.8,436z"/>
	<path class="st27" d="M841.2,450c0,0.6-0.5,1.1-1.1,1.1s-1.1-0.5-1.1-1.1s0.5-1.1,1.1-1.1S841.2,449.5,841.2,450z"/>
	<rect x="803.9" y="467.8" class="st27" width="140" height="1.2"/>
	<rect x="803.9" y="474.5" class="st27" width="140" height="1.2"/>
	<path class="st25" d="M733.6,390.1c-3.9-17.1-13.3-32.9-26.2-44.9c-0.4,17.8,3.9,35.7,12.3,51.4C724.8,397.6,731.9,395,733.6,390.1
		L733.6,390.1z"/>
	<path class="st25" d="M761.2,416.5c7.1-24.2,9.1-49.6,6.7-74.8c-14.3,16.7-23.2,38-25,59.9c-0.4,4.8,1.5,11.6,5.3,14.6
		C751.9,419.2,757,418.9,761.2,416.5L761.2,416.5z"/>
	<path class="st29" d="M755.2,442.4c18.4-3.2,35.1-15,44.2-31.3c-17.4-3.1-34.9,2.2-48,14.2C749.7,431.2,750.4,438.7,755.2,442.4
		L755.2,442.4z"/>
	<path class="st30" d="M751.3,399.6c0,0,7.7-31.8,13.4-42.2C764.8,357.3,754.7,395.4,751.3,399.6z"/>
	<path class="st30" d="M724.7,399.6c0,0-7.7-31.8-13.4-42.2C711.3,357.3,721.4,395.4,724.7,399.6z"/>
	<path class="st30" d="M753.5,439.4c0,0,20-15.5,32.7-21.9C786.2,417.5,758.9,438,753.5,439.4z"/>
	<path class="st29" d="M717.2,442.4c-18.4-3.2-35.1-15-44.2-31.3c17.4-3.1,34.9,2.2,48,14.2C722.7,431.2,722,438.7,717.2,442.4z"/>
	<path class="st30" d="M718.9,439.4c0,0-20-15.5-32.7-21.9C686.2,417.5,713.5,438,718.9,439.4z"/>
	<path class="st29" d="M753.6,437.1c8.3-37.2,1.8-88.8-16.2-122.3c-18.8,34.7-22.9,90.2-11.2,128c4.1,3,8.7,5.4,13.8,5.1
		C745,447.6,752.5,442.1,753.6,437.1L753.6,437.1z"/>
	<path class="st30" d="M737.7,442.1c0,0-2.6-75.5,1.1-94L737.7,442.1z"/>
	<path class="st30" d="M758.7,441c21.6-19.1,32.2-50.4,26-78.6c-13.6,7.1-25.1,18.1-32.7,31.4c-7.6,13.3-11.3,28.8-10.4,44.1
		C746.7,441.3,752.7,440.9,758.7,441L758.7,441z"/>
	<path class="st29" d="M748.8,439.4c0,0,13-35.2,24.1-50.5L748.8,439.4z"/>
	<path class="st30" d="M733.1,432.2c-0.7-30.8-16.8-59.2-41.1-78.3c-0.7,15.9-1,31.9,2.3,47.4c3.3,15.5,10.4,30.7,22.5,41
		c3,2.5,7.7,0.8,11.2-1C731.5,439.5,733.2,436.1,733.1,432.2L733.1,432.2z"/>
	<rect x="695.6" y="445.8" class="st28" width="81.2" height="76.5"/>
	<path class="st29" d="M725.9,439.4c0,0-13-35.2-24.1-50.5L725.9,439.4z"/>
	<polygon class="st26" points="695.6,445.8 695.6,454.6 776.8,474.4 776.8,445.8 	"/>
	<rect x="688.7" y="436.2" class="st31" width="94.9" height="9.6"/>
	<path class="st26" d="M766,479.5c0,1-0.8,1.8-1.8,1.8s-1.8-0.8-1.8-1.8s0.8-1.8,1.8-1.8S766,478.4,766,479.5z"/>
	<circle class="st26" cx="769.5" cy="475.9" r="0.6"/>
	<rect x="131.2" y="423.1" class="st28" width="81.2" height="76.5"/>
	<polygon class="st26" points="131.2,423.1 131.2,432 212.4,451.6 212.4,423.1 	"/>
	<rect x="124.4" y="413.5" class="st31" width="94.9" height="9.6"/>
	<path class="st26" d="M201.6,456.7c0,1-0.8,1.8-1.8,1.8s-1.8-0.8-1.8-1.8s0.8-1.8,1.8-1.8S201.6,455.7,201.6,456.7z"/>
	<circle class="st26" cx="205.1" cy="453.2" r="0.6"/>
	<path class="st30" d="M470.2,189.7c0,0,7-13.7,27.6-5.2C497.8,184.5,486.8,202.1,470.2,189.7z"/>
	<path class="st30" d="M525.6,221c1.6-3.1,3.8-5.8,5.8-8.5c10.5-14.2,17.2-31.1,19.1-48.7c-0.6,16.6-5.8,32.9-14.9,46.8
		c-2.3,3.5-5,7.1-5.4,11.4c-0.5,5,2.7,10.2,7.5,12c-3.9-1.5-8.6-0.2-12.5-2.7C522.1,229.1,524,224.1,525.6,221L525.6,221z"/>
	<path class="st30" d="M568.1,182.1c0,0-2.4-10.8-18.3-8.6C549.8,173.5,554.3,187.8,568.1,182.1z"/>
	<path class="st30" d="M547.3,185.5c0,0-2.4-10.8-18.3-8.6C529,176.9,533.5,191.2,547.3,185.5z"/>
	<path class="st30" d="M482.8,227.5c2.9-4.4,1.9-10.4-0.6-15c-2.5-4.6-6.3-8.5-9-12.9c-5.5-8.9-6.8-20-5.6-30.4s4.7-20.5,8.2-30.4
		c0.6,8.6-2.9,17.5-4.7,25.9s-2.7,17.6,1.2,25.2c2.3,4.5,6,8.1,8.7,12.3c3.1,4.7,4.9,10.1,8.1,14.8c3.6,5.2,8.8,9.2,14.8,11.4
		C496.9,226.8,489.7,226.3,482.8,227.5L482.8,227.5z"/>
	<path class="st29" d="M514,191.6c0,0,2.2-23.9-32-29.8C482.1,161.8,481.9,194.1,514,191.6z"/>
	<path class="st29" d="M523.3,150.2c0,0-4.7-16.3-28.8-11.4C494.5,138.8,502.7,160.2,523.3,150.2z"/>
	<path class="st29" d="M539.2,149.1c0,0,4.7-16.3,28.8-11.4C568,137.7,559.7,159.1,539.2,149.1z"/>
	<path class="st29" d="M519.7,133.8c0,0-6.4-11.6,9.5-22.2C529.2,111.6,536.5,127.9,519.7,133.8z"/>
	<path class="st30" d="M508.1,216.6c0,0-2.4-10.8-18.3-8.6C489.8,208,494.3,222.3,508.1,216.6z"/>
	<path class="st30" d="M475,201.2c0,0-9.4-6-19,6.8C456,208.1,469.3,215,475,201.2z"/>
	<path class="st30" d="M472.6,148c0,0-2.4-10.8-18.3-8.6C454.3,139.4,458.8,153.7,472.6,148z"/>
	<path class="st29" d="M513.2,202c0,0,10.9-21.4,42.9-8.1C556.1,193.8,539.1,221.3,513.2,202z"/>
	<path class="st29" d="M510.8,230.8l3.3-39.3c0,0-3.3,31-15,39.2L510.8,230.8L510.8,230.8z"/>
	
		<rect x="464.4" y="233.1" transform="matrix(0.109 -0.994 0.994 0.109 175.8244 743.4988)" class="st28" width="76.5" height="81.2"/>
	<polygon class="st26" points="466.5,231.2 465.5,240 544.1,268.4 547.2,240.1 	"/>
	
		<rect x="502.5" y="183.4" transform="matrix(0.109 -0.994 0.994 0.109 222.541 710.0222)" class="st31" width="9.6" height="94.9"/>
	<path class="st26" d="M532.8,272.3c-0.1,1-1,1.7-2,1.6s-1.7-1-1.6-2s1-1.7,2-1.6C532.2,270.4,532.9,271.3,532.8,272.3z"/>
	<path class="st26" d="M537.2,269.2c0,0.3-0.3,0.6-0.7,0.5c-0.3,0-0.6-0.3-0.5-0.7c0-0.3,0.3-0.6,0.7-0.5
		C537,268.6,537.3,268.9,537.2,269.2z"/>
	<path class="st29" d="M513.2,201c0,0,9.1-46.3,32.3-55.6C545.6,145.4,518.2,151.8,513.2,201z"/>
	<path class="st29" d="M521.5,169.1c0,0,10.8-33.7-10.2-42.9c0,0,18.3,9.4,8.9,45.6C520.3,171.7,521.4,171.1,521.5,169.1
		L521.5,169.1z"/>
	<path class="st19" d="M453.1,113.6c-4.1,5-8.3,9.9-12.4,14.9c-1.6-0.8-3.2-1.8-4.6-2.9c-9.8-7.1-15.4-19.7-14.2-31.7
		c0.2-2.2,0.6-4.4,0.1-6.5c-0.6-2.3-2.4-4.2-3.6-6.2c-1.2-1.8-2-3.9-2.4-6c1.8-1,3.7-1.6,5.7-1.8C436.7,82,446.2,97.7,453.1,113.6
		L453.1,113.6z"/>
	<path class="st18" d="M502.8,50.8c0,0-5.6,71.5-28,74.7c-22.1,3.2-49.9-6.8-45.4-29.8l1-8.1c0,0-22.6-10-11.4-25.4
		c11.2-15.5,16.9,5.5,16.9,5.5s16.6-8.3,17.4-24C453.9,28,490,58.9,502.8,50.8L502.8,50.8z"/>
	<path class="st18" d="M483.6,310.5c-14-0.8-71,19.9-84.9,21.3s-29.4-0.1-39.4-9.9c-7.8-7.5-10.9-18.5-13.4-29.1
		c-6-25.3-9.9-51.1-11.8-77c18.2,9.4,39.1,11.9,58.6,5.6c1.6,22.5,1.1,45.1,2.7,67.6c26.6-0.9,61.5-1.4,88.1-2.3
		c1.1-5,0.9-10.5-0.1-15.6c-0.3-1.5-0.6-3.4,0.5-4.4c1-1,2.8-0.7,3.9,0.2c1.1,0.9,1.6,2.3,2.2,3.6c1.6,4,3.1,8.1,4.7,12.1
		c13.1-1.5,25.5-4.8,37-11.2c0.7-0.4,1.5-0.8,2.3-0.9s1.8,0.2,2.2,0.9c0.5,0.9,0,1.9-0.4,2.8c-1,2.1-2.1,4.2-3.1,6.3
		c1.2,5.5,0.9,11.3-1,16.5c-2,5.2-5.6,9.9-10.3,12.9c-5.5,3.4-12.2,4.5-18.6,4.2s-12.8-1.9-19-3.5
		C484.1,311.1,483.1,310.2,483.6,310.5L483.6,310.5z"/>
	<path class="st18" d="M545.4,222.4c0.8-2.9,2.4-5.7,4.9-7.3c3.1-1.9,7-1.8,10.5-0.8c7.4,2.2,13.4,8.3,15.8,15.7s1.2,15.6-2.6,22.3
		s-10.3,11.7-17.6,14.2c-3.2,1.1-7.1,1.7-9.8-0.5c-1.8-1.4-2.6-3.8-2.6-6.1s0.7-4.5,1.3-6.7c-1.4,1.3-3.9,0.2-4.7-1.6
		c-0.8-1.7-0.4-3.8,0-5.6c0.9-4.4,1.5-9.1,2.9-13.3C544.5,229.2,544.6,225.9,545.4,222.4L545.4,222.4z"/>
	<path class="st18" d="M528.5,223.7c-0.8,0.1-1.5,0.2-2.2,0.6s-1.2,1.1-1.1,1.8c0.1,0.8,0.8,1.4,1.6,1.8c4.5,2.5,10.3,2.3,14.6-0.6
		c1.8-1.2,3.2-2.8,4.3-4.7c0.7-1.2,2.5-4.7,1.7-6.1c-1-1.7-3.5,0.4-4.3,1c-2,1.4-4.2,2.7-6.5,3.6C534,222.4,531.3,223.2,528.5,223.7
		L528.5,223.7z"/>
	<path class="st24" d="M475.7,63.3c-5.8,0.8-11.5,1.5-17.3,2.3c-3.8,0.5-3.8,6.5,0,6c5.8-0.8,11.5-1.5,17.3-2.3
		C479.5,68.8,479.5,62.7,475.7,63.3z"/>
	<path class="st24" d="M501.4,68.9c-2.2-1.4-4.5-2.8-6.7-4.2c-3.3-2.1-6.3,3.1-3,5.2c2.2,1.4,4.5,2.8,6.7,4.2
		C501.6,76.2,504.7,71,501.4,68.9z"/>
	<path class="st19" d="M489.1,78.8c-0.9-3.8-6.7-2.2-5.8,1.6c1.4,5.8,1,11.7-1.4,17.2c-1.5,3.5,3.7,6.6,5.2,3
		C490.1,93.6,490.8,86.3,489.1,78.8L489.1,78.8z"/>
	<path class="st19" d="M457.3,102.1c-3.5-3.6-5.3-8.2-5.3-13.2c0-3.9-6-3.9-6,0c0,6.6,2.5,12.7,7.1,17.5
		C455.7,109.1,460,104.8,457.3,102.1z"/>
	<path class="st21" d="M469.4,79.1c-3.9,0-3.9,6,0,6S473.3,79.1,469.4,79.1z"/>
	<path class="st21" d="M497.8,82.6c-0.1-0.4-0.3-0.7-0.6-1c-0.3-0.3-0.6-0.5-1-0.6c-0.4-0.2-0.7-0.3-1.2-0.3c-0.3,0-0.5,0.1-0.8,0.1
		c-0.5,0.1-1,0.4-1.3,0.8c-0.2,0.2-0.3,0.4-0.5,0.6c-0.3,0.5-0.4,1-0.4,1.5v0.1c0,0.4,0.1,0.8,0.3,1.2c0.1,0.4,0.3,0.7,0.6,1
		c0.3,0.3,0.6,0.5,1,0.6c0.4,0.2,0.7,0.3,1.2,0.3c0.3,0,0.5-0.1,0.8-0.1c0.5-0.1,1-0.4,1.3-0.8c0.2-0.2,0.3-0.4,0.5-0.6
		c0.3-0.5,0.4-1,0.4-1.5v-0.1C498.1,83.3,498,82.9,497.8,82.6z"/>
	<path class="st30" d="M59.6,412.5c0,0,7-13.7,27.6-5.2C87.2,407.3,76.2,424.9,59.6,412.5z"/>
	<path class="st30" d="M115.1,443.8c1.6-3.1,3.8-5.8,5.8-8.5c10.5-14.2,17.2-31.1,19.1-48.7c-0.6,16.5-5.8,32.9-14.9,46.8
		c-2.3,3.5-4.9,7.1-5.4,11.4c-0.5,5,2.7,10.2,7.5,12c-3.9-1.5-8.6-0.2-12.5-2.7C111.5,451.9,113.5,446.9,115.1,443.8L115.1,443.8z"
		/>
	<path class="st30" d="M157.5,404.9c0,0-2.4-10.8-18.3-8.6C139.2,396.3,143.7,410.6,157.5,404.9z"/>
	<path class="st30" d="M136.7,408.3c0,0-2.4-10.8-18.3-8.6C118.4,399.7,122.9,414,136.7,408.3z"/>
	<path class="st30" d="M72.2,450.4c2.9-4.4,1.9-10.4-0.6-15c-2.5-4.6-6.3-8.5-9-13c-5.5-8.9-6.8-20-5.7-30.4s4.7-20.5,8.2-30.4
		c0.6,8.6-2.9,17.5-4.7,25.9c-1.8,8.4-2.7,17.5,1.2,25.2c2.3,4.5,6,8.1,8.7,12.3c3.1,4.7,4.9,10.1,8.1,14.8
		c3.6,5.2,8.8,9.2,14.8,11.4C86.3,449.7,79.1,449.1,72.2,450.4L72.2,450.4z"/>
	<path class="st29" d="M103.4,414.4c0,0,2.2-23.9-32-29.8C71.5,384.6,71.3,417,103.4,414.4z"/>
	<path class="st29" d="M112.7,373c0,0-4.7-16.3-28.8-11.4C83.9,361.7,92.2,383.1,112.7,373z"/>
	<path class="st29" d="M128.6,371.9c0,0,4.7-16.3,28.8-11.4C157.4,360.5,149.2,381.9,128.6,371.9z"/>
	<path class="st29" d="M109.1,356.6c0,0-6.4-11.6,9.6-22.2C118.7,334.4,126,350.7,109.1,356.6z"/>
	<path class="st30" d="M97.6,439.4c0,0-2.4-10.8-18.3-8.6C79.3,430.8,83.7,445.1,97.6,439.4z"/>
	<path class="st30" d="M64.4,424.1c0,0-9.3-6-19,6.8C45.4,430.9,58.7,437.8,64.4,424.1z"/>
	<path class="st30" d="M62,370.9c0,0-2.4-10.8-18.3-8.6C43.7,362.3,48.2,376.5,62,370.9z"/>
	<path class="st29" d="M102.7,424.8c0,0,10.9-21.4,42.9-8.1C145.6,416.7,128.5,444.1,102.7,424.8z"/>
	<path class="st29" d="M100.2,453.7l3.2-39.3c0,0-3.3,31-15,39.2L100.2,453.7L100.2,453.7z"/>
	<path class="st29" d="M102.7,423.8c0,0,9.1-46.3,32.4-55.6C135,368.2,107.6,374.6,102.7,423.8L102.7,423.8z"/>
	<path class="st29" d="M110.9,391.9c0,0,10.8-33.7-10.2-42.9c0,0,18.3,9.4,8.9,45.6C109.7,394.6,110.8,394,110.9,391.9z"/>
	<path class="st32" d="M140.6,510.9c-2.9,6.5-10.6,9.2-17.5,10.6c-12.6,2.5-25.6,3-38.3,1.3c-9.9-1.3-20.9-4.9-25-13.9
		c-2.4-5.2-2-11.2-1.2-16.9c1.1-8.1,2.9-16.2,5.3-24c0.5-1.6,1-3.8,1.6-6.1c0.9-3.8,2.1-7.8,4.1-10c4.1-4.5,14.1-3,19.5-3.2
		c9-0.4,18-0.8,27-1.3c4-0.2,8.4-0.3,11.6,2.2c3.1,2.4,4.2,6.6,5.1,10.5c1.1,5,2.2,10,3.3,14.9c1.5,6.8,3,13.6,4.6,20.3
		C141.6,500.5,142.7,506.1,140.6,510.9z"/>
	<path class="st33" d="M135.9,475c-8.3-1.6-17.6,0.8-25.3-2.8c-3.6-1.6-6.6-4.4-10.4-5.6c-6.1-1.9-12.8,0.8-19.2,0
		c-2.2-0.3-4.4-1-6.5-1.7c-3-1-6-2-9.1-3c0,0-0.1,0-0.1,0c0.9-3.8,2.1-7.8,4.1-10c4.1-4.5,14.1-3,19.5-3.2c9-0.4,18-0.8,27-1.3
		c4-0.2,8.4-0.3,11.6,2.2c3.1,2.4,4.2,6.6,5.1,10.5C133.7,465.1,134.8,470.1,135.9,475L135.9,475z"/>
	<path class="st0" d="M62.8,449.4c-1,1.8-2,4.1-0.7,5.6c0.8,0.8,2,1,3.2,0.9s2.3-0.4,3.4-0.3c2.7,0.2,4.8,2.7,7.5,3.2
		c3.7,0.7,7-2.3,10.8-2.8c3.1-0.4,6,0.9,8.9,2.1c2.8,1.2,6,2.2,8.9,1.3c2.3-0.7,4.1-2.5,6.3-3.2c4.4-1.3,9.1,2,13.6,1.2
		c0.8-0.1,1.5-0.4,2.3-0.7c1.9-0.6,3.7-1.3,5.6-1.9c1.5-0.5,3-1.1,4-2.3c1.7-2.1,1-5.1,0.3-7.7c-0.8-2.6-1.9-5.7-4.5-6.5
		c-2.5-0.8-5.1,0.8-7.6,1.4c-5.2,1.3-10.6-1.4-16-1.2c-6.2,0.2-11.8,4.3-18,4.1c-3.4-0.1-6.7-1.6-10.1-1.4c-2,0.1-3.9,0.9-5.9,0.9
		c-1.5,0-2.8-0.4-4.1-1c-1.1-0.5-1.8-0.8-2.8,0.1c-1,1-1.7,2.6-2.4,3.8L62.8,449.4L62.8,449.4z"/>
	<path class="st33" d="M85.5,476.3c0,1.8-1.5,3.3-3.3,3.3s-3.3-1.5-3.3-3.3s1.5-3.3,3.3-3.3S85.5,474.5,85.5,476.3z"/>
	<circle class="st33" cx="95.1" cy="482.1" r="1.6"/>
	<path class="st33" d="M367.8,513.8c0,0-20.3-30.2,13.5-33.3s34.2,20.6,64.9,35.7L367.8,513.8L367.8,513.8z"/>
	<path class="st26" d="M409,501.6c1.2-0.8,2.5-1.6,3.7-2.4c1.2-0.8,2.5-1.5,3.9-1.4c2.1,0.3,3.9,2.7,5.9,1.9
		c1.3-0.5,1.9-2.1,3.2-2.5c1.8-0.5,3.2,1.7,5,2.2c2.5,0.8,5-1.8,7.7-1.6c2.6,0.2,4.1,3,5.2,5.4c0.9,2,1.7,4,2.6,6
		c0.8,1.7,1.5,3.5,2.2,5.2c-13.1,2.2-26.7,1.4-39.5-2.2c-2.2-0.6-5.6-1.7-5.3-4.6C403.9,505.1,407,502.9,409,501.6L409,501.6z"/>
	<path class="st32" d="M444.5,516.2h-76.6c0,0-20.3-17.8,13.5-19.6s34.2,10.7,64.9,19.6H444.5z"/>
	<rect x="348.6" y="509.8" class="st32" width="19.2" height="6.4"/>
	<path class="st28" d="M314.4,505h34.4c1.7,0,3,1.4,3,3v7.3c0,1.7-1.4,3-3,3h-34.4c-1.7,0-3-1.4-3-3V508
		C311.4,506.3,312.7,505,314.4,505z"/>
	<rect x="320.3" y="505" class="st26" width="1.7" height="13.4"/>
	<rect x="326.1" y="505" class="st26" width="1.7" height="13.4"/>
	<path class="st26" d="M465,513.5c-0.5-1.9,0.1-4,1.6-5.1c1.6-1.1,3.8-0.8,5.5,0.1c0.6,0.3,1.1,0.7,1.7,1c0.5,0.3,1,0.7,1.5,1
		c0.3,0.2,0.7,0.5,0.8,0.9c0.1,0.5-0.3,1.1-0.8,1.3c-0.5,0.2-1.1,0.1-1.6,0.1c-0.7,0-1.1,0.2-1.7,0.4c-0.7,0.2-1.5,0.2-2.2,0.2
		C469.3,513.4,465,513.7,465,513.5L465,513.5z"/>
	<path class="st26" d="M484.9,519.3c0.2-0.7,0-1.5-0.6-1.9s-1.4-0.3-2.1,0c-0.2,0.1-0.4,0.2-0.6,0.4c-0.2,0.1-0.4,0.2-0.6,0.4
		c-0.1,0.1-0.3,0.2-0.3,0.3c0,0.2,0.1,0.4,0.3,0.5s0.4,0,0.6,0c0.3,0,0.4,0.1,0.6,0.2c0.3,0.1,0.5,0.1,0.8,0.1
		C483.3,519.3,484.9,519.4,484.9,519.3L484.9,519.3z"/>
</g>
</svg>
