<?xml version="1.0" standalone="no"?>
<!DOCTYPE svg PUBLIC "-//W3C//DTD SVG 20010904//EN"
 "http://www.w3.org/TR/2001/REC-SVG-20010904/DTD/svg10.dtd">
<svg version="1.0" xmlns="http://www.w3.org/2000/svg"
 width="986.000000pt" height="986.000000pt" viewBox="0 0 986.000000 986.000000"
 preserveAspectRatio="xMidYMid meet">
<metadata>
Created by potrace 1.14, written by Peter Selinger 2001-2017
</metadata>
<g transform="translate(0.000000,986.000000) scale(0.100000,-0.100000)"
fill="#000000" stroke="none">
<path d="M6506 7628 c-14 -8 -15 -12 -4 -26 12 -15 11 -16 -5 -3 -16 13 -20
13 -28 0 -7 -12 -9 -12 -9 1 0 13 -2 13 -9 0 -6 -8 -7 -18 -4 -23 3 -5 -5 -3
-18 4 -21 11 -23 11 -11 -3 10 -13 10 -18 1 -24 -8 -4 -9 -3 -5 4 4 7 2 12 -4
12 -6 0 -14 -8 -18 -17 -4 -10 -16 -18 -27 -18 -11 0 -19 -6 -17 -13 1 -7 -5
-15 -13 -18 -8 -4 -15 -12 -15 -20 0 -8 -7 -14 -16 -14 -9 0 -12 -5 -8 -12 4
-7 -2 -5 -13 5 -21 18 -41 9 -28 -13 3 -6 -1 -7 -9 -4 -9 3 -16 1 -16 -6 0 -6
-5 -8 -12 -4 -9 5 -8 2 1 -9 12 -15 12 -17 -4 -11 -12 5 -16 4 -11 -4 3 -6 -3
-13 -14 -17 -11 -3 -20 -11 -20 -16 0 -6 -5 -7 -12 -3 -6 4 -9 3 -5 -2 3 -5
-2 -18 -10 -29 -13 -16 -15 -17 -10 -2 4 9 4 17 1 17 -10 0 -36 -30 -38 -44
-1 -7 -9 -21 -19 -30 -15 -16 -18 -22 -17 -41 1 -3 -6 -13 -15 -21 -8 -9 -13
-20 -10 -24 3 -5 -4 -7 -15 -5 -11 2 -20 0 -20 -6 0 -5 -5 -9 -11 -9 -5 0 -7
5 -3 12 4 7 3 8 -4 4 -7 -4 -12 -16 -12 -27 0 -11 -4 -17 -10 -14 -5 3 -10 -3
-10 -14 0 -11 -7 -26 -15 -35 -20 -19 -19 -27 3 -19 11 3 9 -1 -6 -12 -13 -9
-21 -23 -18 -31 3 -8 0 -13 -7 -11 -7 1 -11 -4 -9 -11 2 -11 -7 -13 -37 -9
-34 4 -39 2 -36 -14 2 -12 -1 -16 -10 -13 -7 3 -16 0 -21 -7 -5 -8 -3 -10 7
-5 8 4 7 2 -2 -6 -9 -7 -15 -21 -13 -31 2 -15 0 -16 -14 -5 -9 7 -14 9 -10 4
4 -5 1 -20 -6 -35 -15 -29 -11 -55 7 -44 7 3 8 2 4 -3 -5 -5 -14 -9 -20 -9 -7
0 -12 -14 -12 -32 0 -17 -3 -29 -7 -27 -5 3 -7 -5 -7 -18 2 -36 -19 -81 -33
-71 -19 11 -38 13 -38 3 0 -5 -6 -15 -12 -22 -7 -7 -20 -22 -28 -32 -13 -18
-13 -19 0 -12 10 5 10 3 -2 -6 -9 -8 -18 -25 -20 -38 -1 -14 -7 -28 -13 -32
-6 -5 -5 -8 3 -8 6 0 12 -5 12 -11 0 -5 -4 -7 -10 -4 -14 9 -12 -19 3 -34 10
-10 9 -11 -5 -6 -17 7 -19 -9 -5 -32 5 -9 3 -11 -6 -7 -8 3 -14 -1 -14 -10 0
-8 4 -13 8 -11 10 7 5 -22 -6 -32 -4 -4 -5 -2 0 6 5 9 4 12 -2 8 -6 -4 -9 -20
-7 -37 2 -18 0 -28 -6 -25 -5 3 -7 -4 -5 -15 4 -20 -5 -24 -35 -20 -10 1 -9
-3 5 -14 16 -13 17 -15 3 -10 -13 4 -18 1 -18 -11 0 -9 -4 -13 -10 -10 -14 9
-12 -18 3 -35 10 -12 9 -12 -5 -1 -10 7 -19 10 -19 5 -7 -46 -9 -72 -12 -155
-2 -52 -7 -101 -12 -109 -6 -9 -4 -11 4 -5 10 6 11 3 2 -12 -6 -11 -7 -24 -3
-28 4 -5 1 -5 -5 -1 -7 4 -13 2 -13 -4 0 -6 -4 -9 -10 -5 -5 3 -18 -3 -30 -15
-11 -11 -17 -20 -14 -20 4 0 1 -7 -7 -16 -10 -13 -10 -17 2 -25 11 -7 10 -9
-6 -9 -17 0 -17 -2 -5 -10 12 -7 12 -10 1 -10 -8 0 -11 -6 -7 -16 4 -9 1 -23
-6 -31 -9 -11 -9 -16 1 -23 9 -5 10 -10 3 -14 -6 -4 -9 -15 -7 -26 2 -11 -1
-20 -8 -20 -8 0 -8 -3 0 -11 6 -6 9 -18 6 -27 -4 -10 -2 -13 5 -8 9 5 9 1 2
-18 -5 -14 -7 -26 -4 -26 4 0 2 -6 -4 -12 -6 -7 -11 -17 -11 -23 -1 -5 -5 -10
-10 -10 -16 0 -23 -13 -27 -52 -3 -21 -6 -46 -8 -55 -2 -10 -1 -18 3 -18 4 0
5 -17 2 -37 -4 -21 -1 -60 7 -88 7 -27 14 -54 16 -60 6 -32 47 -76 112 -124
41 -29 74 -57 74 -63 0 -5 5 -6 10 -3 6 3 10 -3 10 -14 0 -11 5 -23 11 -26 7
-5 5 -15 -6 -31 -9 -14 -13 -29 -10 -34 3 -6 1 -10 -4 -10 -6 0 -11 -6 -11
-13 0 -9 -23 -13 -90 -12 -49 0 -90 2 -90 5 0 8 -44 5 -58 -4 -7 -4 -12 -2
-12 4 0 7 -6 8 -19 1 -10 -6 -21 -8 -25 -4 -3 3 -21 7 -40 8 -19 2 -40 6 -47
10 -7 5 -10 4 -5 -3 5 -8 -7 -9 -40 -5 -33 4 -49 2 -55 -8 -6 -9 -9 -10 -9 -2
0 11 -36 10 -48 -2 -3 -2 -11 0 -18 6 -8 7 -14 7 -19 -1 -5 -8 -11 -8 -21 1
-8 6 -14 8 -14 3 0 -5 -44 -10 -98 -11 -107 -3 -319 -13 -370 -17 -18 -2 -35
0 -38 5 -3 5 -10 7 -15 4 -5 -3 -6 1 -3 9 3 9 3 23 0 32 -5 14 -9 14 -22 3
-12 -9 -10 -3 5 27 22 42 58 79 131 133 124 93 237 247 243 331 1 17 5 30 9
30 4 0 2 11 -4 25 -6 14 -15 25 -20 25 -4 0 -8 7 -8 15 0 8 -4 15 -9 15 -11 0
-9 14 7 52 31 76 44 142 33 161 -8 12 -8 16 -2 12 6 -3 11 -2 11 4 0 5 -5 13
-10 16 -6 4 -8 10 -5 15 3 5 0 12 -6 16 -8 5 -10 2 -5 -7 4 -8 -2 -3 -13 11
-11 14 -18 32 -15 40 4 8 8 29 10 45 9 85 12 104 19 116 6 8 4 10 -5 4 -9 -6
-11 -4 -5 6 11 16 14 69 5 69 -7 0 -9 9 -12 55 -1 13 -4 23 -6 20 -2 -2 -9 1
-16 6 -6 5 -20 16 -31 23 -16 12 -17 16 -6 30 7 9 10 16 7 16 -4 0 -2 10 5 21
9 17 8 20 -2 14 -9 -6 -10 -4 -3 6 5 8 9 21 9 29 0 8 4 21 8 28 5 7 3 12 -5
12 -9 0 -10 3 -2 8 6 4 10 18 9 32 -1 14 2 30 7 37 6 7 4 14 -3 19 -8 5 -9 3
-4 -6 5 -9 4 -11 -4 -6 -9 6 -9 11 0 22 9 11 9 14 0 14 -7 0 -9 5 -6 10 4 6 1
18 -7 27 -11 14 -11 15 0 9 11 -7 11 -4 0 13 -7 12 -21 21 -31 21 -10 0 -15 5
-12 10 3 6 1 10 -5 10 -6 0 -8 5 -4 11 3 6 0 15 -7 20 -8 5 -9 9 -3 9 12 0 13
68 1 87 -4 6 -1 14 5 16 10 4 10 7 0 15 -8 5 -13 12 -13 16 3 20 0 26 -11 20
-10 -6 -10 -4 0 8 10 13 10 19 -2 31 -8 8 -12 17 -9 21 4 3 -5 6 -18 6 -19 0
-21 2 -9 10 8 5 10 10 4 10 -5 0 -14 -4 -20 -10 -5 -5 -15 -6 -23 -1 -13 8
-18 41 -22 131 -1 19 -7 38 -13 42 -8 5 -7 8 2 8 9 0 10 5 3 19 -6 10 -7 21
-4 25 3 3 -1 6 -11 6 -9 0 -14 4 -11 10 9 14 -23 58 -48 66 -29 9 -46 33 -47
66 0 14 -6 29 -12 31 -10 4 -10 6 0 6 7 1 11 5 7 11 -3 5 -13 6 -23 3 -16 -6
-16 -6 1 11 21 21 22 27 2 20 -11 -4 -13 -2 -10 9 6 15 -19 47 -36 47 -6 0 -7
6 -4 13 4 6 -1 3 -9 -7 -15 -19 -16 -19 -16 -2 0 16 -2 17 -17 5 -11 -10 -14
-10 -9 -1 4 6 3 12 -3 12 -6 0 -16 18 -22 40 -7 22 -16 40 -21 40 -4 0 -8 10
-8 23 0 18 -2 19 -10 7 -8 -13 -14 -8 -12 11 1 3 -5 6 -13 6 -7 0 -11 -6 -8
-14 3 -8 -2 -13 -15 -13 -16 0 -20 -5 -17 -20 2 -12 0 -18 -6 -14 -6 3 -13 -3
-16 -15 -3 -12 -10 -21 -16 -21 -6 0 -8 -3 -4 -6 3 -4 -1 -13 -9 -21 -12 -12
-12 -18 -2 -31 8 -9 8 -13 2 -9 -8 4 -16 -9 -23 -38 -6 -25 -16 -45 -22 -45
-6 0 -9 -6 -6 -14 4 -11 0 -13 -15 -11 -17 4 -19 2 -10 -7 7 -7 12 -17 12 -23
0 -5 -4 -4 -9 4 -11 17 -32 5 -24 -14 3 -8 1 -15 -5 -15 -5 0 -12 -9 -15 -21
-3 -12 -10 -19 -14 -16 -12 7 -10 -34 1 -53 8 -13 7 -13 -6 -2 -11 9 -18 10
-23 2 -3 -5 0 -10 7 -10 9 0 9 -3 -2 -10 -9 -6 -11 -10 -3 -10 7 0 10 -7 6
-17 -3 -9 -6 -32 -6 -52 0 -41 -12 -71 -30 -71 -8 0 -12 -18 -12 -53 1 -28 -3
-60 -7 -69 -6 -12 -5 -18 4 -18 9 0 10 -3 2 -8 -6 -4 -14 -17 -18 -29 -4 -13
-12 -23 -17 -23 -6 0 -7 -4 -4 -10 3 -5 2 -10 -2 -10 -5 0 -9 -9 -10 -20 -1
-13 2 -18 10 -13 9 5 9 3 1 -8 -13 -16 -13 -117 0 -138 6 -10 5 -12 -2 -7 -13
8 -17 -6 -5 -17 14 -15 11 -76 -5 -89 -13 -11 -14 -11 -7 2 4 8 -1 6 -12 -5
-11 -11 -16 -23 -10 -26 6 -4 5 -9 -1 -13 -14 -9 -5 -97 12 -125 7 -10 6 -12
-4 -6 -8 5 -11 3 -8 -6 3 -8 10 -14 16 -14 5 0 14 -4 19 -9 4 -5 3 -6 -4 -2
-6 3 -14 2 -18 -4 -3 -5 -2 -10 2 -10 8 0 12 -15 15 -57 1 -7 5 -13 9 -13 17
0 33 -86 18 -96 -5 -3 -9 -14 -9 -25 0 -11 -3 -18 -7 -16 -5 3 -9 -6 -9 -19
-1 -13 3 -24 10 -24 7 0 6 -3 -2 -9 -16 -10 -14 -22 7 -39 9 -8 10 -11 4 -7
-8 4 -13 0 -13 -10 0 -9 4 -14 9 -11 4 3 7 -6 5 -19 -1 -14 2 -23 7 -19 5 3 9
-2 9 -10 0 -9 5 -16 11 -16 8 0 8 -4 0 -14 -10 -11 -8 -17 6 -25 11 -6 13 -11
5 -11 -7 0 -10 -5 -7 -10 4 -6 11 -8 16 -4 15 9 8 -95 -8 -107 -23 -20 7 -126
31 -112 6 4 5 -1 -3 -10 -9 -11 -10 -17 -2 -17 6 0 10 -3 10 -7 -1 -5 0 -11 1
-15 4 -13 7 -27 9 -38 0 -5 5 -10 11 -10 5 0 7 6 4 14 -3 8 -2 16 3 19 5 3 8
-11 7 -31 -1 -43 5 -64 16 -57 14 9 18 -34 4 -46 -9 -7 -11 -17 -5 -28 5 -9
11 -31 13 -49 2 -17 13 -39 23 -48 11 -8 14 -13 8 -9 -17 8 -17 -20 0 -34 8
-6 17 -8 20 -4 4 3 7 -1 7 -11 0 -10 7 -24 15 -33 8 -8 12 -19 9 -25 -4 -7 -2
-8 4 -4 6 4 19 -2 29 -14 23 -26 52 -29 32 -2 -11 15 -11 15 1 4 8 -7 15 -18
15 -25 0 -7 10 -13 23 -15 12 -2 22 -8 22 -13 0 -6 5 -7 10 -4 6 4 7 11 4 17
-4 7 -2 8 5 4 6 -4 9 -12 6 -17 -4 -5 4 -9 17 -10 66 -2 112 -24 130 -64 7
-15 16 -21 27 -18 9 4 -1 -7 -21 -24 -21 -17 -34 -33 -30 -37 3 -4 -2 -4 -12
0 -13 5 -17 4 -13 -3 4 -6 1 -11 -6 -10 -43 1 -67 -4 -61 -14 4 -8 0 -8 -15 0
-17 9 -26 9 -42 -3 -12 -8 -27 -12 -34 -10 -7 3 -16 1 -19 -5 -4 -6 -14 -7
-23 -4 -9 4 -14 2 -10 -3 3 -6 -9 -8 -30 -6 -28 4 -34 2 -27 -9 6 -12 5 -12
-8 -1 -9 7 -19 9 -22 4 -3 -5 -17 -9 -32 -9 -14 0 -30 -6 -34 -13 -6 -9 -9 -9
-13 1 -5 12 -7 12 -15 0 -6 -8 -19 -12 -31 -8 -12 3 -19 1 -15 -4 3 -5 -1 -10
-8 -10 -7 -1 -17 -2 -23 -4 -5 -1 -18 -3 -28 -3 -12 -1 -15 -6 -11 -14 6 -10
4 -10 -8 0 -13 10 -17 10 -22 -4 -5 -13 -10 -14 -18 -6 -8 8 -15 7 -24 -6 -11
-14 -13 -14 -14 -2 0 11 -2 12 -8 3 -4 -7 -22 -13 -40 -15 -18 -1 -31 -7 -28
-13 2 -6 -8 -10 -23 -9 -14 0 -32 -6 -39 -15 -8 -9 -11 -10 -7 -3 7 14 -11 16
-20 2 -4 -6 -12 -10 -18 -8 -7 1 -22 -2 -35 -6 -20 -7 -21 -10 -10 -24 10 -13
8 -13 -9 1 -14 12 -23 15 -28 7 -3 -6 -19 -9 -33 -7 -23 3 -27 9 -30 38 -6 86
6 149 29 149 6 0 8 7 5 16 -4 10 -2 13 6 8 8 -5 9 -2 4 11 -6 16 -4 16 11 4
15 -12 16 -12 10 4 -4 11 -3 16 3 12 6 -3 10 -1 10 5 0 6 5 8 12 4 7 -5 9 -2
5 8 -4 11 1 18 15 21 15 4 19 11 15 27 -5 18 -3 19 11 8 12 -10 14 -10 8 0 -4
6 -3 12 3 12 6 0 7 8 4 17 -5 13 -3 15 12 9 11 -4 16 -4 13 0 -4 4 -3 15 3 25
7 14 6 19 -3 19 -10 0 -10 3 1 9 8 5 11 16 8 26 -5 10 -3 14 4 9 7 -4 10 -1 7
7 -3 8 -1 22 4 33 8 14 7 17 -4 10 -11 -6 -11 -5 1 9 10 13 10 17 1 17 -10 0
-10 4 1 16 8 9 9 18 3 22 -5 4 -9 14 -9 22 1 8 -3 21 -8 28 -6 8 -5 12 2 12 7
0 9 5 5 12 -4 6 -9 27 -11 47 -6 70 -9 86 -17 100 -6 10 -5 12 2 7 14 -9 15 4
2 24 -8 12 -10 12 -10 1 0 -8 -3 -11 -6 -8 -4 4 -1 13 6 22 8 10 9 15 1 15 -6
0 -11 14 -11 30 0 17 -5 30 -11 30 -5 0 -7 5 -4 10 3 6 1 10 -5 10 -7 0 -9 7
-6 16 4 11 2 15 -8 11 -11 -4 -13 -1 -9 10 4 11 2 14 -5 9 -8 -5 -12 0 -12 13
0 12 -4 21 -10 21 -5 0 -10 8 -10 18 0 10 -3 22 -7 25 -3 4 -8 19 -9 34 -8 72
-15 107 -24 118 -5 6 -6 16 -2 20 4 5 1 5 -5 1 -8 -4 -13 -1 -13 9 0 9 -5 13
-11 9 -8 -4 -8 0 0 15 9 16 9 21 0 21 -7 0 -10 3 -6 6 8 8 -13 64 -24 64 -6 0
-6 -7 0 -18 7 -14 6 -19 -2 -19 -9 0 -12 14 -11 39 1 34 -1 37 -14 26 -12 -10
-14 -10 -8 0 4 7 1 12 -8 12 -9 0 -16 6 -16 13 0 9 -3 8 -9 -2 -7 -11 -10 -10
-15 5 -3 11 -6 24 -7 29 0 6 -8 19 -17 29 -9 11 -11 16 -4 12 6 -4 12 -2 12 3
0 6 -5 11 -11 11 -5 0 -8 4 -4 9 3 5 -1 16 -9 24 -8 8 -12 17 -9 21 4 3 1 6
-5 6 -6 0 -9 7 -6 15 4 8 -1 17 -10 21 -9 3 -13 10 -10 15 3 5 0 9 -6 9 -6 0
-8 4 -5 10 3 5 -5 21 -19 35 -15 14 -26 30 -26 36 0 6 -4 7 -10 4 -5 -3 -10
-1 -10 5 0 6 -5 8 -12 4 -8 -5 -9 -2 -5 10 4 9 3 14 -2 11 -5 -3 -13 0 -17 6
-4 8 -9 7 -15 -2 -7 -11 -9 -10 -9 4 0 9 -6 17 -14 17 -13 0 -31 27 -28 42 1
4 -7 10 -18 13 -11 4 -20 15 -20 27 0 18 -2 19 -17 7 -11 -10 -14 -10 -9 -1 4
6 3 12 -3 12 -5 0 -13 9 -16 20 -3 11 -13 20 -21 20 -8 0 -14 6 -14 14 0 9 -7
13 -20 11 -14 -3 -20 2 -20 13 0 15 -2 15 -10 2 -8 -12 -10 -12 -10 -1 0 9 -8
12 -25 9 -14 -3 -25 -1 -25 3 0 5 -9 9 -21 9 -11 0 -18 4 -14 9 3 5 -4 12 -15
16 -11 3 -20 14 -20 23 0 15 -2 15 -10 2 -9 -13 -10 -13 -11 0 -1 8 -1 19 0
24 1 4 -12 6 -28 4 -25 -4 -28 -2 -20 9 7 7 10 13 8 14 -2 0 -22 1 -44 2 l-41
2 -2 -65 c-4 -109 -7 -139 -15 -146 -4 -4 -7 -14 -7 -23 0 -14 2 -14 10 -1 5
8 10 11 10 6 0 -5 -7 -18 -17 -28 -13 -14 -13 -18 -2 -19 8 0 4 -4 -8 -9 -13
-5 -23 -14 -23 -20 0 -6 6 -8 12 -4 8 4 10 3 5 -2 -5 -5 -13 -9 -19 -9 -6 0
-18 -11 -27 -25 -13 -20 -14 -23 -1 -16 13 7 13 6 0 -6 -17 -15 -19 -100 -2
-106 6 -2 8 -10 5 -18 -3 -8 0 -14 6 -14 6 0 8 -7 4 -17 -4 -10 -2 -14 4 -10
6 4 10 -4 10 -19 0 -13 9 -34 18 -44 10 -11 14 -20 9 -20 -5 0 -3 -4 5 -9 12
-8 12 -12 2 -25 -8 -9 -10 -16 -6 -16 5 0 1 -8 -7 -17 -8 -10 -13 -24 -12 -30
1 -7 2 -22 3 -34 0 -11 5 -18 10 -15 5 4 7 -2 4 -12 -5 -22 21 -74 33 -64 4 4
2 -1 -5 -10 -8 -11 -9 -18 -3 -18 6 0 9 -9 7 -20 -2 -11 3 -26 11 -34 8 -8 14
-24 14 -35 0 -12 5 -21 10 -21 6 0 10 -9 10 -21 0 -12 4 -17 11 -13 8 4 9 -1
4 -17 -7 -21 -6 -22 8 -11 14 12 16 11 12 -7 -2 -11 3 -28 12 -37 10 -10 12
-18 6 -22 -24 -16 -7 -182 19 -182 5 0 6 -5 3 -11 -4 -5 0 -18 8 -27 9 -9 17
-21 18 -27 4 -22 23 -55 31 -55 4 0 8 -7 8 -15 0 -7 6 -18 13 -22 14 -9 18
-63 4 -63 -5 0 -4 -7 3 -15 6 -8 9 -18 6 -24 -3 -5 0 -12 6 -14 10 -4 9 -8 -2
-16 -13 -10 -13 -11 0 -12 8 -1 19 -1 24 0 5 1 4 -5 -4 -13 -8 -11 -9 -16 -1
-16 6 0 11 -12 11 -27 0 -22 2 -25 10 -13 8 13 10 12 10 -3 0 -10 7 -20 15
-23 8 -4 12 -10 9 -15 -5 -9 10 -13 30 -10 5 1 3 -6 -4 -16 -8 -10 -11 -15 -6
-11 10 8 36 -15 36 -32 0 -6 5 -8 12 -4 7 5 9 1 6 -13 -4 -15 5 -31 32 -57 21
-20 45 -36 54 -36 9 0 16 -4 16 -8 0 -5 13 -7 30 -6 17 1 30 -2 30 -6 0 -11
33 -7 42 5 5 6 8 6 8 -1 0 -6 21 -12 48 -14 26 -1 55 -3 64 -3 9 -1 14 -5 12
-9 -3 -4 2 -8 11 -8 10 0 30 -11 47 -25 16 -14 27 -25 23 -25 -3 0 -1 -10 6
-21 7 -14 7 -19 0 -15 -6 4 -9 -4 -6 -23 3 -27 -7 -40 -28 -37 -5 0 -13 -7
-18 -16 -6 -11 -22 -18 -40 -18 -22 0 -28 -4 -23 -12 5 -8 0 -7 -11 2 -11 9
-16 10 -11 3 4 -8 1 -13 -9 -13 -9 0 -13 -4 -10 -10 4 -6 -1 -7 -11 -3 -13 5
-15 3 -9 -8 7 -12 6 -12 -7 -1 -13 10 -17 10 -22 -3 -3 -9 -11 -13 -17 -10 -5
4 -17 -1 -25 -11 -9 -11 -12 -12 -8 -4 7 12 5 13 -8 3 -8 -7 -18 -10 -21 -6
-4 3 -7 1 -7 -5 0 -7 -5 -12 -12 -12 -6 0 -20 -8 -31 -17 -15 -13 -19 -14 -13
-3 4 8 0 6 -9 -5 -8 -11 -21 -20 -28 -21 -33 -3 -38 -5 -32 -14 3 -5 0 -7 -8
-4 -8 3 -17 -2 -21 -12 -5 -13 -9 -14 -21 -4 -12 10 -16 9 -21 -4 -3 -9 -15
-16 -26 -16 -10 0 -17 -4 -13 -9 3 -5 1 -12 -5 -16 -5 -3 -10 -1 -10 5 0 6 -5
8 -10 5 -6 -4 -8 -11 -4 -16 3 -5 2 -8 -3 -7 -13 4 -83 -25 -83 -35 0 -4 5 -5
12 -1 7 4 8 3 4 -5 -4 -6 -12 -9 -17 -6 -13 9 -50 -5 -44 -16 3 -5 -1 -6 -9
-3 -9 3 -16 1 -16 -4 0 -15 -62 -6 -72 10 -4 7 -8 9 -8 3 0 -5 -5 -2 -11 8 -6
9 -7 27 -4 38 6 17 4 20 -6 13 -12 -7 -12 -5 -1 9 8 9 11 21 7 27 -3 5 -1 10
5 10 7 0 9 7 6 15 -3 9 0 18 8 21 7 3 13 10 13 17 0 7 10 33 21 59 24 52 27
62 13 53 -6 -3 -6 6 -1 25 6 22 5 34 -6 44 -11 11 -11 16 -1 19 9 4 9 6 0 6
-7 1 -13 10 -13 22 0 11 -4 18 -9 15 -5 -3 -8 2 -7 12 0 10 -6 17 -16 16 -9
-1 -14 4 -12 11 3 7 0 16 -5 20 -6 3 -9 11 -6 16 4 5 -2 9 -12 9 -15 0 -16 2
-3 10 13 9 13 12 -4 25 -10 7 -15 18 -11 24 3 6 1 11 -4 11 -6 0 -11 7 -11 15
0 14 -12 20 -33 16 -5 -1 -6 3 -2 8 3 6 13 7 22 4 15 -6 16 -5 3 9 -8 9 -17
14 -19 12 -2 -2 -14 7 -27 21 -15 16 -24 20 -27 12 -4 -9 -6 -9 -6 1 -1 6 -8
12 -17 12 -8 0 -12 5 -9 10 3 6 -1 10 -9 10 -8 0 -18 5 -22 12 -5 7 -3 8 7 3
15 -9 -15 30 -45 57 -10 10 -15 18 -10 18 5 0 1 5 -9 11 -9 5 -17 16 -17 23 0
15 -46 57 -54 49 -3 -4 -6 -1 -6 6 0 8 -7 10 -21 6 -16 -5 -19 -4 -14 6 6 9 3
11 -8 6 -10 -4 -17 -1 -17 6 0 8 -4 6 -10 -3 -8 -13 -10 -13 -10 1 0 15 -46
45 -62 41 -4 -1 -5 5 -2 13 4 10 0 15 -11 15 -9 0 -19 9 -22 20 -3 11 -9 17
-14 14 -5 -3 -9 0 -9 6 0 6 -4 9 -9 6 -5 -3 -14 1 -21 9 -10 12 -16 13 -28 3
-10 -8 -13 -9 -9 -2 9 16 -9 22 -68 21 -55 0 -88 10 -79 24 4 8 -25 14 -48 10
-5 0 -8 2 -8 7 0 4 -11 8 -25 8 -14 1 -25 -3 -25 -10 0 -6 -5 -4 -10 4 -9 13
-11 13 -20 0 -5 -8 -10 -10 -10 -4 0 7 -16 11 -41 10 -22 -1 -42 1 -45 6 -3 4
-11 5 -19 1 -8 -3 -15 0 -15 6 0 6 -5 11 -11 11 -5 0 -7 -6 -4 -12 4 -7 0 -6
-7 3 -7 9 -25 16 -38 15 -20 -1 -25 -6 -24 -28 0 -15 -4 -24 -8 -22 -5 3 -6
16 -4 30 3 13 0 24 -5 24 -9 0 -14 -24 -9 -45 1 -5 3 -21 5 -34 1 -13 9 -27
16 -32 12 -7 11 -9 -1 -9 -10 0 -11 -3 -4 -8 6 -4 11 -20 12 -37 1 -16 2 -47
4 -67 2 -21 1 -38 -3 -38 -9 0 2 -53 15 -69 8 -11 8 -13 -1 -7 -7 4 -13 2 -13
-3 0 -6 4 -11 10 -11 5 0 7 -7 3 -15 -3 -9 -2 -15 3 -14 5 1 16 1 24 0 13 -1
13 -2 0 -11 -13 -8 -12 -10 3 -10 11 0 17 -8 17 -21 0 -14 5 -19 14 -16 11 4
13 1 9 -10 -5 -12 -3 -14 7 -8 9 5 11 4 6 -4 -4 -6 -2 -18 4 -26 7 -8 9 -15 4
-15 -4 0 3 -12 17 -27 13 -14 18 -23 10 -18 -10 6 -12 4 -7 -4 5 -7 14 -10 22
-7 8 3 11 0 8 -8 -6 -15 51 -77 62 -68 4 4 4 1 0 -6 -5 -8 4 -24 23 -41 17
-16 31 -27 31 -24 0 2 12 -9 26 -26 14 -17 23 -35 19 -41 -3 -5 2 -10 12 -10
15 0 16 -2 3 -10 -12 -8 -11 -10 8 -10 12 0 22 -5 22 -11 0 -5 -4 -7 -10 -4
-19 12 -10 -4 20 -35 16 -16 36 -30 45 -30 9 0 14 -3 12 -7 -3 -5 7 -17 22
-28 16 -12 22 -14 16 -4 -5 8 -3 7 6 -3 9 -9 20 -14 24 -10 5 4 5 2 2 -4 -7
-12 28 -45 39 -36 3 4 2 -3 -4 -14 -9 -18 -8 -25 10 -40 16 -15 22 -16 26 -6
3 9 8 6 16 -9 6 -13 25 -26 44 -31 17 -5 32 -13 32 -20 0 -6 6 -5 17 3 14 12
16 12 8 0 -6 -11 -3 -13 14 -8 19 5 21 3 9 -11 -7 -9 -8 -14 -3 -9 4 4 17 -1
28 -10 11 -10 17 -12 13 -5 -4 6 -2 12 3 12 6 0 11 -5 11 -11 0 -8 6 -7 17 2
9 8 14 9 10 2 -8 -13 40 -13 62 1 10 7 12 5 6 -5 -7 -12 -6 -12 7 -1 9 7 22
12 30 11 28 -3 39 1 32 14 -6 9 -4 9 8 -1 12 -9 18 -10 23 -2 4 6 13 9 21 6 8
-3 14 0 14 7 0 8 4 6 10 -3 8 -12 10 -12 10 -1 0 11 4 11 23 -1 12 -8 30 -14
39 -12 11 1 15 -3 11 -12 -3 -9 1 -14 12 -14 10 0 14 5 9 13 -4 7 -3 9 2 4 19
-17 1 -57 -25 -57 -6 0 -11 -5 -11 -11 0 -5 -4 -8 -9 -4 -5 3 -17 -5 -25 -17
-9 -12 -16 -18 -16 -13 0 4 -11 -2 -25 -15 -13 -12 -22 -28 -18 -34 3 -6 0 -5
-8 1 -18 18 -32 16 -25 -3 3 -8 2 -12 -3 -9 -5 3 -13 0 -16 -6 -4 -5 -14 -8
-22 -5 -8 3 -11 1 -8 -4 3 -6 -2 -13 -12 -17 -26 -9 -53 -34 -48 -43 3 -5 -4
-6 -15 -3 -12 3 -22 -1 -26 -11 -7 -17 -104 -81 -118 -78 -5 2 -6 -4 -3 -13 5
-10 0 -15 -13 -15 -11 0 -20 -4 -20 -10 0 -5 -6 -9 -12 -7 -8 1 -12 -7 -12
-21 1 -18 -1 -20 -12 -11 -11 9 -14 9 -14 0 0 -7 -4 -9 -10 -6 -6 4 -7 -1 -3
-11 5 -13 3 -16 -10 -11 -22 8 -32 -10 -15 -31 12 -16 11 -16 -6 -2 -16 13
-20 12 -37 -9 -11 -13 -19 -20 -19 -17 0 3 -9 -3 -21 -15 -12 -12 -18 -27 -15
-37 5 -13 2 -12 -9 3 -15 19 -16 19 -33 0 -16 -18 -16 -18 3 -4 18 13 19 13 6
-3 -7 -10 -20 -18 -27 -18 -13 0 -19 -13 -15 -33 1 -5 -3 -6 -8 -2 -12 7 -52
-25 -45 -37 3 -4 -2 -5 -10 -2 -9 4 -20 -5 -30 -24 -9 -17 -25 -33 -35 -37
-13 -4 -18 -13 -16 -26 3 -17 1 -19 -10 -9 -10 9 -15 7 -20 -9 -3 -11 -15 -23
-27 -27 -17 -5 -18 -8 -7 -16 10 -7 8 -8 -8 -5 -12 3 -21 2 -20 -2 3 -10 -47
-56 -57 -53 -5 2 -3 -4 4 -13 11 -13 10 -15 -2 -10 -9 4 -18 -1 -21 -9 -4 -9
-16 -16 -27 -16 -12 0 -19 -4 -15 -9 3 -5 -4 -12 -15 -16 -11 -3 -19 -12 -17
-18 1 -7 -4 -11 -11 -9 -7 1 -15 -5 -18 -13 -3 -8 -10 -12 -15 -9 -5 3 -8 0
-7 -8 2 -7 -5 -12 -14 -12 -10 1 -18 -1 -18 -5 0 -4 -7 -16 -16 -27 -8 -10
-13 -12 -9 -4 4 8 -2 5 -13 -7 -11 -13 -25 -23 -31 -23 -6 0 -11 -5 -11 -11 0
-6 -7 -9 -15 -6 -14 6 -30 -8 -30 -28 0 -5 -7 -10 -15 -10 -8 0 -23 -8 -33
-18 -10 -10 -23 -15 -29 -11 -8 5 -9 2 -5 -10 4 -9 3 -14 -2 -11 -5 3 -12 1
-16 -5 -4 -6 -11 -8 -16 -5 -5 4 -9 1 -9 -6 0 -7 -3 -9 -6 -6 -4 4 -15 -3 -25
-15 -11 -11 -19 -16 -19 -10 0 7 -8 5 -20 -5 -16 -14 -17 -20 -7 -32 10 -14
10 -14 -4 -3 -19 14 -52 5 -42 -12 4 -6 -1 -5 -10 3 -12 9 -17 10 -17 2 0 -7
-5 -9 -12 -5 -8 5 -9 1 -4 -12 6 -15 5 -16 -5 -7 -10 10 -15 9 -26 -5 -9 -10
-12 -11 -7 -2 7 13 5 13 -9 1 -9 -7 -17 -10 -17 -6 0 4 -6 3 -12 -3 -7 -6 -17
-11 -23 -12 -5 -1 -9 -5 -8 -10 1 -4 -9 -6 -22 -4 -14 1 -27 -2 -31 -7 -3 -5
-9 -7 -14 -4 -4 3 -10 -1 -13 -9 -5 -11 -41 -14 -186 -13 -160 0 -180 2 -168
15 10 13 9 14 -10 3 -19 -10 -23 -9 -23 3 0 20 -17 29 -26 15 -5 -8 -3 -9 6
-4 8 5 11 4 6 -3 -7 -11 -31 -6 -53 11 -15 11 -14 14 -18 -48 -1 -29 2 -53 9
-57 8 -6 7 -8 -1 -8 -7 0 -13 -5 -13 -11 0 -5 4 -8 9 -5 5 4 7 -4 3 -16 -5
-21 -4 -22 13 -8 17 14 18 14 5 -10 -12 -23 -12 -24 4 -11 15 12 16 12 9 -5
-6 -17 -5 -17 10 -5 15 12 17 12 11 -3 -5 -12 0 -16 21 -16 14 0 24 -3 21 -8
-2 -4 16 -8 42 -9 25 -2 49 -7 52 -14 5 -7 9 -6 13 3 4 11 17 13 55 8 29 -4
49 -2 45 3 -3 5 3 8 13 7 11 -1 21 -1 24 0 3 1 18 4 35 6 16 3 39 13 49 22 11
9 16 11 12 5 -4 -7 -2 -13 3 -13 6 0 11 5 11 11 0 5 5 7 10 4 6 -3 10 0 10 7
0 9 3 9 10 -2 5 -8 10 -10 10 -4 0 11 36 28 54 25 5 -1 6 6 2 15 -5 14 -4 15
9 4 14 -12 20 -7 16 14 -1 5 4 5 11 -1 17 -14 41 9 27 26 -6 8 -5 8 3 1 16
-13 41 -13 33 0 -3 6 2 10 13 10 11 0 31 9 45 20 14 11 30 20 36 20 6 0 11 5
11 11 0 5 5 7 10 4 6 -3 10 -1 10 5 0 6 5 8 12 4 7 -5 8 -3 3 6 -6 10 -4 12 8
7 11 -4 14 -2 11 7 -3 7 2 16 11 20 11 4 14 2 9 -7 -5 -7 -1 -7 10 2 9 8 14
21 11 29 -5 13 -3 13 12 1 9 -8 14 -9 10 -3 -4 7 1 18 10 25 12 10 14 10 9 2
-10 -18 2 -16 21 2 8 9 12 23 9 32 -5 13 -4 14 9 3 12 -10 15 -10 15 0 0 7 7
10 16 6 8 -3 12 -2 9 4 -3 6 -1 10 5 10 6 0 9 4 6 9 -3 5 8 14 25 20 19 7 28
15 23 22 -4 8 -3 9 4 5 7 -4 12 -2 12 4 0 6 5 8 10 5 6 -3 10 -3 10 2 0 4 18
21 40 38 24 17 38 35 35 43 -3 8 0 10 7 6 6 -4 17 1 25 11 7 11 13 16 13 12 0
-5 6 -2 14 5 8 7 12 16 10 20 -2 4 5 9 16 13 11 3 20 11 20 16 0 6 5 7 11 3 8
-4 9 1 5 17 -3 13 -3 18 0 11 5 -10 9 -10 20 -1 8 6 11 16 7 22 -3 6 -1 7 6 3
6 -4 14 0 17 8 3 9 10 13 15 10 5 -3 12 2 15 10 3 9 10 16 15 16 9 0 49 36 49
45 0 2 -8 2 -17 -1 -15 -5 -15 -4 -3 4 8 6 18 8 22 6 10 -7 39 22 31 30 -6 6
12 10 29 7 5 0 7 5 5 12 -1 6 4 11 12 9 11 -2 12 0 3 10 -9 11 -6 14 10 15 25
2 38 19 33 45 -2 10 0 16 6 13 5 -4 7 -11 4 -16 -10 -16 4 -10 24 10 11 11 17
22 14 25 -3 3 6 8 19 11 13 3 37 20 54 38 16 17 23 27 15 22 -10 -6 -12 -4 -7
4 5 7 14 10 22 7 14 -5 18 4 15 34 -2 12 0 13 7 1 9 -13 21 -10 47 11 6 5 19
16 30 24 11 9 14 12 6 8 -10 -5 -12 -3 -7 5 4 7 12 11 18 9 6 -2 24 9 41 25
25 23 28 30 16 38 -8 5 -9 9 -4 9 6 0 16 -5 23 -12 9 -9 12 -9 12 1 0 7 5 9
12 5 6 -4 8 -3 5 3 -4 6 3 19 16 29 21 19 21 19 7 -1 -11 -15 -8 -14 16 5 17
14 30 28 27 32 -2 4 4 5 13 1 13 -5 16 -3 11 10 -7 19 8 33 19 16 5 -8 3 -9
-6 -4 -9 5 -11 4 -6 -4 10 -16 39 6 29 23 -3 6 -3 8 2 4 4 -4 15 -2 23 5 13
10 14 9 7 -3 -8 -13 -7 -13 8 -1 18 14 22 7 18 -28 -2 -7 2 -10 8 -6 6 3 11 1
11 -4 0 -6 -4 -11 -10 -11 -5 0 -9 -23 -8 -51 0 -34 -4 -54 -13 -60 -11 -7
-11 -9 -1 -9 10 0 10 -4 -2 -16 -9 -8 -16 -24 -16 -34 0 -10 -3 -26 -7 -36 -5
-13 -3 -15 7 -9 10 6 12 4 7 -8 -4 -10 0 -20 11 -26 16 -10 15 -10 -2 -11 -18
0 -18 -1 -2 -19 12 -13 14 -21 6 -26 -8 -5 -8 -10 0 -20 8 -9 8 -15 0 -20 -5
-3 -10 -11 -10 -16 0 -6 5 -7 11 -3 8 5 8 1 0 -14 -8 -15 -8 -22 2 -25 9 -4 8
-6 -2 -6 -11 -1 -11 -4 0 -18 12 -14 12 -16 0 -8 -10 6 -12 4 -5 -6 4 -8 9
-27 10 -42 2 -16 8 -36 16 -45 7 -8 8 -13 2 -9 -7 4 -11 -2 -11 -18 0 -14 4
-25 9 -25 5 0 6 -9 3 -21 -4 -13 -1 -27 10 -39 9 -10 12 -20 7 -24 -6 -3 -9
-14 -7 -24 2 -9 4 -20 4 -24 1 -5 8 -8 17 -8 12 0 14 -3 6 -13 -11 -13 9 -52
21 -40 4 3 7 -1 7 -10 0 -10 4 -17 8 -17 4 0 8 -9 9 -21 2 -25 22 -51 33 -44
5 3 12 0 16 -6 4 -7 3 -9 -3 -6 -6 4 -13 1 -16 -7 -3 -8 5 -19 18 -26 14 -7
22 -17 19 -22 -3 -4 0 -8 6 -8 6 0 8 -5 4 -12 -4 -7 -3 -8 4 -4 7 4 12 3 12
-1 0 -5 16 -26 35 -47 29 -32 38 -36 50 -26 8 6 20 8 26 4 8 -4 9 -3 5 5 -4 6
-2 18 4 26 10 12 10 15 -1 15 -8 0 -4 8 9 20 12 12 22 27 22 35 0 8 5 15 10
15 6 0 10 8 10 18 0 14 2 15 10 2 9 -13 10 -13 11 0 1 8 1 19 0 24 -1 5 4 4
13 -3 11 -9 16 -9 22 0 5 8 3 10 -7 5 -8 -5 -8 -2 2 6 9 7 14 19 11 27 -2 8 0
11 5 8 15 -10 9 57 -7 71 -13 10 -12 11 4 5 16 -5 18 -3 14 15 -4 13 -1 22 5
22 6 0 8 3 5 6 -4 3 0 17 7 31 7 14 11 32 8 41 -4 8 -2 13 3 9 6 -3 11 3 11
14 1 12 -3 17 -10 13 -7 -3 -5 1 5 8 18 16 14 73 -6 61 -6 -4 -5 0 2 9 10 13
10 17 0 21 -11 4 -10 6 0 6 8 1 10 6 5 14 -13 21 -9 51 9 68 16 14 18 35 17
171 0 136 -2 158 -18 175 -13 14 -18 31 -15 57 2 26 -2 43 -14 56 -23 23 -99
70 -104 64 -3 -2 -11 2 -18 11 -7 8 -18 15 -25 15 -19 0 -37 27 -40 59 -2 23
6 36 41 65 23 20 50 36 58 36 9 0 16 4 16 9 0 9 86 55 103 56 4 0 11 5 15 11
4 5 22 16 40 23 17 8 32 17 32 22 0 5 3 8 8 7 10 -4 70 22 112 47 45 27 160
76 160 68 0 -3 9 2 21 13 12 10 22 17 23 15 3 -8 46 11 46 20 0 6 4 8 9 4 5
-3 12 -1 15 3 3 5 16 9 28 8 20 -1 23 -7 26 -45 3 -36 -1 -48 -24 -72 -15 -16
-31 -26 -36 -23 -4 3 -8 0 -8 -5 0 -6 -6 -11 -14 -11 -8 0 -16 -3 -18 -7 -4
-11 -65 -53 -76 -53 -22 0 -92 -84 -120 -145 -32 -65 -39 -107 -28 -158 4 -15
3 -33 -1 -40 -4 -7 -8 -16 -10 -22 -1 -5 -8 -30 -16 -56 -17 -52 -15 -163 3
-185 7 -7 10 -14 7 -14 -3 0 5 -12 18 -26 18 -19 23 -35 21 -67 -1 -23 -5 -47
-9 -53 -3 -6 -3 -14 0 -18 14 -13 14 -56 1 -56 -9 0 -9 -3 2 -10 8 -5 11 -10
7 -10 -4 0 -3 -10 4 -21 8 -16 8 -20 0 -14 -8 5 -10 -2 -5 -22 4 -15 7 -32 8
-38 0 -5 8 -16 16 -25 9 -8 10 -11 3 -6 -10 6 -12 4 -7 -8 3 -9 10 -16 16 -16
5 0 7 -4 3 -9 -3 -5 1 -16 9 -24 8 -8 12 -17 9 -21 -4 -3 -1 -6 4 -6 6 0 10
-11 8 -25 -1 -14 1 -25 4 -25 6 0 9 -22 13 -88 1 -12 7 -21 13 -18 5 2 9 9 7
15 -1 7 2 9 8 6 8 -5 6 -13 -6 -26 -16 -18 -16 -19 1 -19 15 0 16 -3 7 -12 -9
-9 -7 -15 6 -25 9 -8 11 -12 5 -8 -8 4 -6 -6 5 -27 9 -18 20 -35 25 -36 4 -2
7 -10 7 -18 0 -9 5 -12 12 -8 7 5 9 2 5 -9 -4 -12 -2 -14 10 -10 13 5 15 2 10
-12 -6 -15 -5 -16 8 -5 13 11 16 11 13 0 -2 -8 4 -14 12 -15 9 0 14 -8 12 -18
-2 -9 2 -17 8 -17 5 0 9 -5 7 -12 -1 -7 3 -12 10 -13 6 0 15 -4 20 -9 4 -5 3
-6 -4 -2 -6 3 -14 2 -18 -4 -3 -5 -1 -10 4 -10 6 0 11 -7 11 -15 0 -8 5 -15
10 -15 6 0 10 -7 10 -16 0 -10 5 -14 16 -10 8 3 13 2 10 -2 -2 -4 2 -18 10
-32 7 -14 13 -21 14 -16 0 5 7 3 15 -4 8 -7 15 -9 15 -4 0 5 7 -2 16 -14 8
-12 22 -22 30 -22 8 0 14 -7 14 -16 0 -8 5 -12 10 -9 6 3 10 -3 10 -15 0 -12
5 -18 10 -15 6 3 10 1 10 -5 0 -6 10 -15 23 -20 12 -5 16 -9 9 -9 -7 -1 -10
-6 -7 -11 4 -6 11 -8 16 -5 5 4 6 -2 2 -12 -6 -16 -5 -17 12 -3 15 12 17 12
10 1 -6 -11 -4 -13 10 -7 15 5 16 4 5 -9 -11 -13 -10 -14 5 -9 14 6 16 4 10
-7 -6 -11 -5 -12 6 -2 23 22 33 14 13 -9 l-19 -23 22 19 c12 10 22 21 21 25 0
3 1 8 2 11 2 4 6 28 12 83 1 9 6 17 11 17 4 0 5 4 2 10 -3 5 -1 10 5 10 6 0 8
4 5 10 -3 6 -2 10 4 10 6 0 8 6 5 14 -3 7 3 21 12 31 13 13 14 19 5 25 -10 5
-9 9 4 13 11 5 14 3 9 -6 -5 -8 -2 -7 9 2 19 15 23 36 5 25 -7 -4 -8 -3 -4 5
4 6 12 9 17 6 13 -8 72 52 64 65 -3 5 -1 10 4 10 7 0 11 26 11 66 0 49 -3 63
-12 58 -9 -5 -9 -2 1 9 11 14 11 20 1 32 -7 9 -10 18 -7 22 4 3 2 14 -3 23 -7
13 -5 21 5 30 12 10 13 16 4 27 -9 11 -9 12 4 8 8 -4 18 -1 23 6 5 8 3 10 -7
4 -8 -5 -5 2 6 15 11 13 15 20 9 17 -7 -4 -15 0 -18 9 -4 11 -2 15 8 11 14 -6
16 9 3 29 -3 6 -3 14 0 18 8 8 11 76 3 76 -3 0 -6 10 -7 23 -6 81 -17 144 -25
155 -7 8 -7 17 2 27 9 11 10 15 1 15 -8 0 -6 6 4 16 9 10 14 25 12 35 -3 11 0
16 8 13 13 -6 13 35 -1 57 -4 8 -3 9 4 5 7 -4 12 -2 12 3 0 6 -8 11 -17 11
-15 0 -15 1 2 13 14 11 15 16 5 22 -9 6 -11 4 -5 -6 5 -8 5 -11 0 -7 -4 4 -10
31 -12 60 -2 29 -10 59 -18 68 -8 9 -12 29 -9 50 8 67 5 149 -7 180 -1 3 -1 8
0 13 0 4 -4 7 -11 7 -6 0 -8 3 -5 7 4 3 -1 12 -11 20 -9 8 -11 11 -4 8 8 -4 3
14 -12 43 -16 32 -22 52 -15 59 14 14 -9 61 -33 68 -10 4 -18 10 -18 15 0 10
-87 60 -104 60 -30 0 -163 64 -188 90 -45 48 -32 101 28 116 13 3 24 11 24 17
0 6 3 7 7 4 3 -4 11 -2 18 3 6 5 20 11 31 13 10 2 36 11 57 20 21 9 57 22 80
28 23 6 47 15 53 20 6 5 14 6 17 2 4 -3 7 -2 7 4 0 5 10 9 23 8 12 -1 27 0 32
4 11 6 31 12 60 16 11 1 33 8 49 14 30 12 157 27 214 26 17 0 28 3 25 9 -4 5
1 7 10 3 10 -3 17 -2 17 3 0 13 43 6 47 -7 2 -6 -19 -34 -48 -62 -28 -28 -47
-51 -43 -51 5 0 4 -4 -2 -8 -20 -13 -56 -132 -52 -173 2 -21 0 -39 -5 -39 -4
0 -6 -4 -3 -9 4 -5 1 -11 -6 -13 -9 -3 -8 -9 4 -22 10 -9 21 -18 25 -19 10 -3
12 -58 2 -77 -4 -9 -3 -24 3 -34 7 -12 7 -17 0 -12 -5 3 -13 -2 -16 -11 -4 -9
-1 -20 6 -25 10 -6 10 -8 -2 -8 -13 0 -13 -1 0 -10 13 -8 12 -10 -4 -10 -16 0
-17 -2 -5 -17 12 -14 12 -15 1 -9 -12 7 -12 4 -2 -14 7 -13 8 -20 2 -16 -7 4
-9 -4 -7 -21 2 -16 4 -34 4 -41 1 -7 6 -10 13 -6 8 5 9 2 5 -10 -6 -14 -3 -17
8 -12 12 4 13 2 6 -13 -6 -10 -7 -22 -3 -26 10 -9 9 -135 -1 -135 -5 0 -6 -4
-3 -8 3 -5 6 -40 7 -78 2 -38 7 -78 13 -89 6 -11 9 -23 8 -27 -1 -5 3 -8 9 -8
5 0 7 -4 4 -10 -3 -5 -1 -10 6 -10 9 0 9 -3 0 -14 -9 -10 -9 -16 -1 -21 7 -5
8 -11 1 -19 -6 -7 -6 -17 -1 -26 5 -8 6 -18 3 -23 -9 -14 -14 -109 -5 -104 11
8 9 -77 -3 -85 -7 -5 -6 -8 1 -8 6 0 11 -7 12 -15 1 -8 3 -22 4 -30 1 -11 5
-12 15 -3 11 9 12 7 7 -7 -6 -14 -4 -16 7 -10 12 8 12 6 0 -8 -9 -11 -10 -17
-2 -17 6 0 11 -7 11 -15 0 -8 5 -15 10 -15 6 0 10 -5 10 -11 0 -5 -4 -7 -10
-4 -5 3 -10 2 -10 -4 0 -5 5 -13 11 -17 8 -4 7 -9 -2 -15 -12 -7 -12 -9 0 -9
7 0 11 -6 7 -15 -3 -8 0 -15 7 -15 7 0 8 -3 2 -8 -13 -9 -15 -42 -3 -42 6 0 8
-7 4 -15 -3 -8 -1 -15 4 -15 6 0 9 -3 9 -7 -4 -22 2 -33 14 -27 9 6 9 5 0 -7
-10 -12 -7 -21 13 -44 14 -17 23 -24 19 -17 -3 6 -1 12 4 12 6 0 11 -7 11 -16
0 -8 5 -12 10 -9 6 3 10 2 10 -4 0 -5 -5 -13 -10 -16 -11 -7 5 -45 24 -57 8
-5 7 -8 -2 -8 -10 0 -10 -3 0 -14 7 -8 18 -11 23 -8 6 3 4 -1 -2 -9 -10 -13
-10 -19 3 -35 8 -10 12 -13 8 -5 -5 9 -3 12 4 7 7 -4 12 -23 12 -42 0 -19 4
-34 9 -34 5 0 9 -6 8 -12 -1 -39 5 -58 18 -58 9 0 12 -6 8 -16 -3 -9 -2 -19 3
-23 5 -3 18 -23 29 -43 11 -21 23 -38 28 -38 4 0 5 -4 2 -10 -3 -5 -1 -10 5
-10 6 0 8 -5 5 -10 -4 -6 -2 -9 3 -8 5 2 23 -9 40 -24 17 -14 32 -25 34 -22 3
2 5 -3 6 -11 1 -8 3 -22 4 -30 1 -13 5 -12 22 2 20 17 20 17 7 1 -8 -11 -9
-18 -3 -18 6 0 9 -9 7 -20 -2 -11 0 -18 6 -15 5 4 14 -6 19 -21 6 -15 13 -24
17 -20 3 3 12 1 19 -5 17 -14 35 -3 28 16 -4 10 0 13 16 10 18 -3 20 -2 10 10
-7 8 -9 15 -6 15 4 0 1 10 -5 23 -11 19 -10 20 2 10 12 -10 15 -8 15 7 0 10
-5 16 -11 14 -5 -3 -2 1 8 9 9 8 17 23 17 33 0 16 2 17 10 4 8 -13 11 -11 16
7 4 13 10 20 15 17 5 -3 9 4 9 15 0 12 6 21 13 21 7 0 8 3 2 8 -15 10 -18 35
-4 26 9 -5 10 -2 6 9 -3 9 -2 19 3 22 6 4 10 11 10 16 0 6 -4 8 -9 4 -5 -3
-13 -1 -16 5 -4 6 -1 9 7 8 9 -2 13 9 13 39 0 23 2 41 5 41 17 -1 19 4 10 22
-9 16 -8 19 7 13 12 -5 15 -2 10 10 -4 10 -2 17 4 17 6 0 9 9 6 20 -3 11 -1
18 4 14 5 -3 9 0 9 5 0 6 -5 11 -11 11 -8 0 -7 5 2 16 10 13 10 17 0 24 -8 5
-9 10 -3 14 6 3 8 15 5 26 -3 11 -10 17 -17 13 -6 -4 -5 1 3 10 8 11 9 17 3
17 -6 0 -9 7 -6 15 4 8 2 15 -4 15 -12 0 -4 38 11 47 6 4 7 1 3 -8 -4 -8 1 -4
12 8 11 12 22 20 25 17 3 -4 9 11 13 31 5 27 3 40 -7 46 -10 6 -11 9 -1 9 13
0 17 32 5 43 -6 6 -12 61 -16 147 -1 21 4 40 13 48 13 12 13 13 0 7 -11 -5
-11 -3 1 7 13 10 16 26 12 68 -2 30 -9 58 -16 62 -7 4 -7 8 -2 8 6 0 3 5 -5
10 -13 8 -13 10 -1 10 11 0 10 4 -5 16 -10 8 -13 12 -5 8 9 -4 12 -2 9 7 -3 8
-10 13 -16 12 -5 -1 -8 7 -5 17 3 12 0 20 -8 20 -7 0 -10 3 -6 6 3 3 -1 20 -8
37 -12 28 -11 33 7 48 10 10 20 27 21 38 1 12 5 21 10 21 5 0 4 6 -2 14 -9 11
-9 15 1 19 7 3 8 6 3 6 -6 1 -10 17 -9 36 1 19 -2 37 -6 40 -5 3 -6 14 -3 25
3 13 0 20 -8 20 -11 0 -11 2 1 10 10 6 11 10 3 10 -7 0 -13 7 -13 15 0 8 -4
15 -8 15 -8 0 -10 9 -15 83 -2 26 0 47 5 47 5 0 7 4 4 9 -5 8 -16 68 -18 99
-1 7 -8 10 -17 7 -8 -3 -12 -3 -8 1 4 4 0 18 -9 32 -9 13 -11 21 -5 18 19 -12
12 6 -11 25 -21 19 -33 79 -15 79 5 0 4 7 -3 16 -11 12 -11 15 0 12 8 -2 14 7
15 24 1 20 -2 25 -15 23 -13 -3 -16 2 -13 16 3 10 0 25 -6 32 -6 8 -8 17 -4
20 3 4 2 7 -4 7 -5 0 -15 12 -21 26 -7 14 -16 23 -22 19 -5 -3 -7 4 -5 15 3
18 -5 25 -27 21 -4 0 -5 6 -1 15 5 14 3 15 -16 4 -21 -11 -22 -10 -10 12 6 13
8 20 4 16 -5 -4 -15 -3 -22 4 -11 9 -17 9 -24 -3 -5 -8 -9 -9 -9 -3 0 5 6 16
13 23 10 11 8 13 -11 8 -14 -3 -20 -1 -15 6 4 7 0 8 -13 3 -10 -4 -15 -4 -12
0 8 7 -15 34 -29 34 -5 0 -18 8 -29 18 -11 9 -33 25 -49 34 -37 21 -46 57 -16
65 12 3 21 8 21 12 0 4 10 7 23 8 12 1 47 4 77 9 30 4 70 7 88 8 17 0 32 4 32
8 0 4 5 8 11 8 5 0 7 -4 4 -10 -3 -5 -1 -10 4 -10 6 0 11 3 11 8 0 4 17 6 37
6 21 -1 44 4 52 10 9 6 12 7 9 1 -4 -6 2 -11 12 -11 10 0 16 4 14 8 -3 4 9 6
26 4 25 -3 30 0 25 13 -3 9 4 5 16 -9 11 -14 18 -19 14 -12 -3 6 -2 12 4 12 5
0 17 3 27 7 13 5 15 3 9 -7 -6 -9 -4 -11 5 -5 7 4 26 8 42 7 19 0 26 3 21 11
-5 9 -3 9 8 0 19 -15 89 -14 108 1 11 8 13 8 7 -1 -4 -8 -1 -13 9 -13 9 0 13
5 10 11 -4 6 3 5 14 -3 18 -11 23 -11 31 2 6 10 10 11 10 3 0 -7 5 -13 11 -13
5 0 7 6 3 13 -4 6 2 4 13 -6 11 -9 22 -14 26 -11 3 4 14 3 24 -1 10 -4 26 -9
36 -10 11 -1 22 -7 27 -14 4 -7 10 -12 14 -12 18 3 23 0 23 -14 0 -8 -3 -13
-5 -10 -3 2 -12 -3 -21 -13 -9 -9 -23 -18 -31 -20 -8 -2 -17 -8 -18 -13 -2 -5
-8 -7 -13 -3 -5 3 -9 0 -9 -6 0 -6 -5 -8 -12 -4 -8 5 -7 0 2 -11 9 -11 10 -16
2 -11 -7 4 -24 -4 -43 -23 -17 -17 -26 -31 -20 -31 6 0 2 -9 -9 -20 -11 -11
-20 -27 -20 -36 0 -8 -4 -13 -8 -10 -5 3 -8 -15 -8 -40 1 -25 -3 -48 -8 -52
-5 -3 -6 0 -2 6 4 7 2 12 -3 12 -6 0 -11 -9 -11 -21 0 -13 4 -18 13 -13 9 6 9
5 1 -7 -9 -11 -9 -17 1 -26 7 -6 16 -9 21 -5 4 4 3 0 -2 -8 -4 -8 -9 -19 -10
-25 -1 -5 -8 -23 -15 -40 -7 -16 -13 -32 -13 -35 -1 -3 -5 -11 -10 -19 -6 -9
-5 -12 1 -8 5 3 10 -1 10 -9 0 -9 -8 -21 -18 -27 -16 -10 -16 -12 -1 -24 15
-11 15 -12 1 -7 -17 5 -34 -20 -23 -37 3 -5 1 -9 -5 -9 -11 0 -9 -60 3 -79 4
-6 5 -11 2 -11 -3 0 2 -9 11 -20 16 -18 27 -63 13 -55 -9 6 -27 -47 -26 -77 1
-15 -2 -24 -6 -22 -4 3 -8 1 -8 -5 0 -5 5 -13 12 -17 7 -5 5 -11 -7 -21 -11
-7 -15 -13 -11 -13 5 0 4 -6 -3 -13 -6 -8 -9 -23 -6 -36 2 -12 0 -19 -5 -16
-5 3 -11 1 -15 -5 -3 -5 0 -10 7 -10 9 0 9 -3 -2 -10 -12 -7 -12 -10 -1 -10 7
0 11 -6 7 -15 -3 -8 2 -19 12 -24 12 -8 13 -10 3 -11 -10 0 -9 -5 5 -17 17
-16 21 -36 14 -68 -1 -5 -2 -13 -1 -17 0 -5 -4 -8 -9 -8 -7 0 -7 -7 1 -21 6
-12 7 -19 1 -15 -5 3 -13 -1 -16 -10 -3 -8 -2 -12 4 -9 6 3 7 -1 4 -9 -3 -9
-9 -16 -13 -16 -4 0 -7 -17 -5 -37 1 -21 -4 -41 -10 -45 -8 -6 -8 -8 1 -8 7 0
10 -10 7 -25 -3 -15 0 -25 8 -25 9 0 9 -3 0 -12 -17 -17 -15 -28 4 -28 8 0 12
-5 9 -10 -3 -5 2 -10 12 -10 10 0 20 -8 21 -17 3 -33 7 -48 16 -62 6 -10 5
-12 -2 -7 -8 5 -13 -1 -14 -16 -2 -37 -3 -42 -12 -57 -5 -8 -3 -16 5 -22 12
-7 11 -9 -1 -9 -13 0 -13 -1 0 -10 11 -7 11 -10 2 -10 -7 0 -10 -5 -7 -10 4
-6 12 -7 18 -3 9 5 9 3 1 -8 -13 -17 -15 -51 -2 -43 5 4 7 13 3 21 -5 13 -3
14 10 3 12 -10 13 -15 4 -21 -10 -6 -8 -12 7 -26 11 -10 15 -16 9 -13 -6 3 1
-6 15 -19 14 -13 19 -20 11 -16 -10 6 -12 4 -5 -6 5 -8 9 -25 10 -39 0 -14 4
-32 9 -39 5 -10 4 -12 -3 -7 -7 4 -12 1 -12 -9 0 -9 5 -13 11 -9 7 4 7 -1 -1
-16 -7 -12 -8 -20 -2 -16 5 3 12 -1 16 -9 3 -8 1 -17 -4 -20 -6 -4 -5 -14 2
-25 7 -10 15 -17 19 -14 7 4 28 -59 31 -93 1 -7 7 -13 15 -13 7 0 13 -5 13
-11 0 -5 -6 -7 -12 -3 -9 5 -9 2 1 -9 7 -9 10 -17 6 -17 -4 0 -2 -7 5 -15 7
-9 19 -14 26 -11 8 3 11 -4 9 -20 -1 -13 2 -24 6 -24 5 0 9 -9 9 -19 0 -11 6
-22 13 -24 9 -4 9 -6 0 -6 -7 -1 -13 -6 -13 -12 0 -5 4 -8 9 -4 5 3 13 1 16
-5 4 -6 16 -8 27 -4 14 4 18 2 14 -5 -4 -6 -2 -11 4 -11 6 0 8 -4 5 -10 -3 -5
-1 -10 5 -10 6 0 8 -4 5 -10 -3 -5 -2 -10 2 -10 5 0 10 -10 10 -22 1 -13 7
-24 13 -26 5 -2 8 -8 5 -12 -3 -5 3 -18 15 -30 11 -11 17 -20 13 -20 -5 -1 2
-9 15 -19 15 -13 18 -21 10 -24 -7 -3 -3 -6 9 -6 12 -1 23 -7 26 -13 3 -10 8
-10 18 1 12 12 12 13 0 6 -10 -6 -12 -4 -7 4 4 6 14 10 21 9 8 -2 14 0 14 5 0
4 8 21 17 38 8 17 11 28 6 25 -6 -3 -5 5 1 19 7 14 16 25 20 25 5 0 5 6 1 13
-5 8 -3 8 9 -2 14 -11 18 -11 23 2 3 9 12 13 20 10 8 -3 14 -2 14 1 0 4 -10
10 -22 15 l-22 8 22 5 c12 4 20 2 16 -3 -3 -5 0 -9 7 -9 8 0 10 11 5 33 l-6
32 16 -25 c15 -25 15 -25 8 -1 -4 17 -3 21 6 16 9 -5 11 -4 6 3 -4 7 -2 12 5
12 8 0 8 4 -1 15 -10 12 -10 15 0 15 9 0 9 4 -1 17 -12 14 -12 16 0 8 11 -6
13 -4 8 8 -3 9 -2 19 4 23 6 3 8 11 6 17 -4 14 16 37 32 37 22 0 48 37 47 67
-1 17 2 29 5 27 11 -6 18 21 10 35 -8 12 -5 101 4 139 4 15 12 22 23 20 9 -2
23 3 30 12 9 10 11 10 6 1 -5 -10 -3 -12 6 -6 10 6 9 11 -6 23 -15 11 -15 13
-2 9 9 -3 19 0 22 8 3 8 0 16 -7 18 -9 3 -8 8 2 20 11 14 11 20 1 32 -11 13
-10 14 5 9 13 -6 16 -4 10 6 -4 7 -8 50 -7 95 0 70 3 86 20 103 11 11 24 17
28 14 4 -4 4 -1 0 6 -4 6 -3 12 2 12 6 0 13 7 16 16 3 8 2 12 -3 9 -5 -3 -12
-1 -16 5 -3 5 0 10 8 10 10 0 13 7 10 20 -3 11 -9 18 -12 15 -4 -2 -8 2 -8 10
0 8 4 15 9 15 5 0 6 6 1 13 -4 6 -8 19 -8 28 0 9 -7 24 -15 34 -8 11 -10 16
-3 12 8 -5 11 0 10 13 -1 11 -5 20 -9 20 -4 0 -8 6 -8 14 0 8 -6 17 -12 19
-10 4 -10 6 0 6 10 1 10 5 -2 17 -14 14 -13 17 10 39 15 14 30 22 35 19 5 -3
6 3 2 12 -4 11 -2 15 4 11 6 -4 14 0 17 9 4 10 2 13 -7 8 -9 -6 -9 -4 -1 7 7
8 10 40 8 79 -2 36 -4 73 -4 83 -1 10 -8 21 -16 24 -13 5 -13 7 -2 14 11 8 11
10 -1 18 -11 7 -11 9 0 14 10 4 10 6 2 6 -20 1 -16 68 6 88 15 15 20 49 11 73
-1 3 -2 8 -1 13 0 4 -3 7 -9 7 -5 0 -6 7 -3 17 4 10 2 14 -5 9 -6 -3 -14 -1
-18 5 -4 7 -3 9 4 5 6 -3 13 -2 17 4 3 5 1 10 -5 10 -7 0 -9 7 -6 16 5 12 2
15 -9 10 -9 -3 -13 -2 -10 4 8 13 -4 52 -14 46 -4 -3 -8 0 -9 7 0 7 -3 26 -7
43 -4 24 -2 33 11 38 9 4 14 12 10 22 -4 10 -2 13 6 8 7 -5 9 -2 5 9 -3 9 -1
18 6 21 9 3 9 5 0 5 -7 1 -13 10 -13 21 0 11 -5 20 -10 20 -6 0 -9 3 -8 8 5
19 -24 87 -53 125 -40 51 -58 67 -129 121 -30 22 -58 45 -62 51 -4 5 -8 6 -8
2 0 -4 -10 1 -22 13 -12 11 -26 20 -31 20 -12 0 -41 30 -43 46 -1 7 10 15 24
18 35 7 250 -2 265 -11 6 -4 24 -8 41 -10 16 -2 34 -8 41 -13 6 -5 39 -11 73
-12 34 -2 62 -5 62 -9 0 -3 17 -6 38 -8 20 -1 47 -3 60 -4 12 0 22 -4 22 -7 0
-3 19 -6 43 -7 39 0 64 -3 162 -18 54 -9 77 -30 68 -64 -3 -14 -11 -29 -17
-33 -7 -5 -7 -8 -1 -8 16 -1 -61 -36 -85 -39 -6 0 -15 -11 -20 -23 -5 -13 -9
-17 -9 -9 -1 9 -10 4 -26 -13 -14 -15 -22 -33 -18 -39 4 -7 -2 -5 -12 3 -10 8
-16 10 -12 3 4 -6 1 -18 -7 -26 -11 -11 -12 -17 -3 -26 9 -10 9 -12 -3 -9 -8
2 -14 -3 -12 -9 1 -7 -4 -13 -10 -13 -7 0 -4 -8 7 -16 20 -16 19 -16 -4 -9
-20 6 -23 4 -18 -9 4 -9 2 -16 -3 -16 -5 0 -7 -9 -5 -20 2 -11 1 -20 -3 -20
-4 0 -8 -9 -8 -20 0 -12 5 -19 12 -16 7 3 10 -3 7 -15 -3 -10 -1 -19 4 -19 5
0 10 -7 10 -15 0 -8 -4 -15 -8 -15 -4 0 -10 -11 -13 -24 -3 -13 -9 -32 -13
-42 -5 -13 -3 -15 8 -10 8 4 6 1 -5 -8 -10 -8 -15 -20 -10 -27 4 -8 3 -10 -4
-5 -7 4 -12 1 -12 -9 0 -10 5 -14 13 -9 6 4 2 -3 -10 -15 -25 -24 -30 -37 -10
-25 7 5 7 1 -2 -10 -13 -15 -13 -19 0 -27 10 -6 10 -9 2 -9 -18 0 -16 -39 2
-46 8 -4 12 -10 9 -15 -3 -5 -1 -9 5 -9 10 0 9 -46 -2 -57 -11 -11 -8 -25 4
-17 8 4 8 0 0 -15 -7 -11 -15 -21 -19 -21 -8 0 -10 -14 -13 -125 -2 -59 2 -87
13 -105 9 -14 14 -35 12 -48 -3 -16 0 -21 8 -17 7 4 6 0 -4 -7 -12 -11 -14
-18 -6 -32 7 -13 7 -17 0 -12 -6 3 -14 1 -18 -5 -3 -6 0 -15 7 -20 11 -7 11
-9 1 -9 -8 0 -13 -13 -13 -32 0 -162 1 -172 16 -185 4 -4 5 -3 1 4 -3 6 -2 14
2 17 5 3 8 -5 8 -17 -1 -12 2 -27 6 -33 5 -6 9 -64 11 -128 1 -64 4 -116 8
-116 3 0 11 6 19 12 12 11 12 10 3 -2 -12 -18 -13 -51 -1 -44 8 5 12 -10 9
-35 -2 -8 2 -10 11 -5 10 6 10 4 -1 -9 -7 -9 -10 -17 -5 -17 5 0 10 -19 11
-42 1 -22 6 -44 10 -47 5 -3 9 -13 9 -21 0 -8 4 -23 9 -33 6 -14 10 -15 23 -5
13 12 14 11 2 -9 -12 -18 -12 -24 1 -39 8 -10 9 -15 2 -11 -7 5 -9 0 -6 -13 3
-11 13 -20 22 -20 14 0 14 -2 1 -10 -10 -6 -11 -10 -2 -10 6 0 12 -7 12 -16 0
-8 4 -13 8 -10 4 2 9 -5 9 -16 1 -12 6 -24 10 -27 4 -3 14 -18 22 -33 8 -15
18 -25 23 -22 7 5 12 -10 9 -28 0 -5 4 -8 11 -8 6 0 9 -3 5 -6 -3 -4 4 -15 16
-26 12 -11 16 -17 10 -13 -7 3 -13 1 -13 -4 0 -6 8 -11 18 -11 14 0 15 -2 2
-10 -8 -5 -10 -10 -5 -10 11 0 39 -59 36 -75 -2 -5 3 -4 10 3 7 6 18 12 23 12
7 0 6 -4 -1 -8 -17 -11 1 -36 21 -29 10 4 13 12 9 23 -4 11 -2 15 4 11 12 -7
33 36 36 71 1 12 5 22 10 22 4 0 6 4 3 9 -3 4 6 13 19 19 14 7 25 16 25 22 0
5 7 10 16 10 8 0 12 5 9 10 -3 6 0 10 7 11 7 0 4 4 -7 9 -13 6 -15 9 -5 9 10
1 16 13 18 39 4 59 7 73 21 82 8 4 10 13 7 19 -4 7 -2 10 5 9 7 -2 22 12 35
30 19 28 23 46 22 106 0 41 2 79 6 85 4 6 4 11 -1 11 -4 0 0 5 10 11 10 6 14
15 10 22 -4 7 2 5 12 -3 11 -9 16 -10 11 -2 -4 7 -2 12 5 12 10 0 10 3 2 11
-9 9 -9 16 0 31 10 15 9 21 -3 28 -8 5 -10 10 -4 10 7 0 10 32 9 93 -1 96 5
131 24 133 22 3 23 4 11 19 -11 13 -10 14 6 8 17 -6 17 -5 5 10 -7 9 -9 17 -4
17 5 0 10 7 10 15 0 8 -5 15 -11 15 -6 0 -5 4 2 9 11 6 10 11 -3 25 -9 9 -12
16 -7 16 5 0 7 11 4 25 -2 14 -8 23 -12 20 -4 -2 -6 7 -4 20 1 14 -1 25 -5 25
-4 0 -8 7 -9 15 -1 8 -3 22 -4 30 -1 8 -5 15 -10 15 -4 0 -3 9 4 19 7 11 14
19 17 18 4 -1 7 2 8 6 1 5 10 15 20 24 10 8 13 12 6 9 -13 -7 -13 50 0 72 5 6
4 12 -1 12 -5 0 -9 74 -9 166 -1 121 -5 169 -15 181 -9 12 -10 15 0 9 10 -6
10 -2 0 18 -6 14 -15 26 -20 26 -5 0 -6 4 -3 10 3 5 -3 28 -14 50 -10 22 -16
39 -13 37 4 -2 14 3 22 12 16 18 23 61 9 61 -5 0 -6 7 -3 15 4 8 1 15 -6 15
-6 0 -8 5 -5 10 10 17 -5 50 -23 50 -15 0 -15 2 -2 10 13 9 13 12 -3 21 -9 6
-15 14 -12 20 4 5 1 9 -6 9 -7 0 -10 3 -6 6 8 9 -93 114 -110 114 -7 0 -13 5
-13 12 0 6 -3 8 -7 5 -3 -4 -16 5 -29 18 -13 14 -27 25 -32 25 -12 0 -72 67
-72 80 0 4 -3 15 -6 24 -8 21 43 21 111 0 28 -9 57 -17 65 -19 8 -2 16 -4 18
-5 1 -2 5 -3 10 -4 4 -1 34 -10 67 -20 33 -10 67 -20 75 -21 8 -2 15 -4 15 -5
0 -1 16 -4 35 -7 19 -2 36 -8 38 -13 2 -5 10 -6 17 -4 8 3 20 2 27 -2 21 -13
59 -14 52 -1 -3 7 0 5 8 -4 7 -9 21 -15 31 -13 10 1 17 -4 18 -14 0 -14 2 -13
8 2 7 19 8 18 14 -5 5 -18 9 -21 16 -11 7 11 11 11 22 -1 8 -7 24 -13 37 -12
13 1 26 -3 29 -8 4 -6 1 -7 -7 -2 -9 6 -11 4 -6 -4 6 -9 13 -8 27 5 22 20 26
42 5 25 -11 -9 -16 -9 -22 0 -5 8 -3 10 7 4 11 -6 11 -5 2 5 -6 6 -27 12 -47
12 -24 0 -34 4 -29 12 4 6 -2 4 -12 -4 -11 -9 -16 -10 -11 -2 4 7 2 12 -4 12
-6 0 -8 6 -4 13 5 9 4 9 -6 0 -9 -8 -16 -7 -31 5 -23 20 -63 27 -53 10 4 -8 3
-10 -2 -5 -5 5 -9 14 -9 20 0 5 -6 12 -14 15 -9 3 -11 0 -6 -9 5 -8 0 -7 -11
3 -11 10 -47 26 -80 37 -32 11 -75 26 -94 34 -19 8 -48 18 -65 21 -16 3 -57
12 -91 20 -34 8 -72 17 -85 20 -13 2 -42 11 -64 20 -39 15 -154 42 -225 52
-51 8 -205 41 -205 44 0 2 -37 10 -80 16 -22 3 -51 7 -65 9 -14 3 -43 7 -64 9
-22 3 -55 8 -75 12 -20 3 -79 7 -132 9 -128 4 -141 8 -128 43 5 15 16 32 23
37 7 6 15 17 18 25 10 28 105 68 177 76 26 2 57 7 71 9 14 3 36 7 50 10 46 8
185 84 225 122 57 55 94 100 88 107 -4 3 -1 6 5 6 18 0 2 29 -19 35 -34 11
-21 40 51 114 39 40 70 79 70 86 0 7 7 18 15 25 9 7 13 15 10 18 -3 3 0 11 6
19 6 7 8 13 4 13 -4 0 -2 6 4 14 9 11 9 16 0 22 -8 5 -10 3 -4 -7 6 -10 5 -11
-3 -4 -14 13 -24 68 -11 60 10 -7 30 35 22 47 -2 4 2 5 10 2 8 -3 21 6 31 20
9 15 14 26 11 26 -4 0 1 7 9 16 9 8 14 20 11 25 -4 5 2 6 12 2 10 -3 15 -3 11
2 -4 4 -2 15 5 23 10 13 9 15 -3 8 -13 -7 -13 -6 0 6 16 14 23 33 22 61 0 9 2
16 6 13 4 -2 8 7 8 20 1 14 -2 21 -9 17 -6 -4 -7 -1 -1 8 4 8 9 20 10 27 2 11
0 11 -14 0 -9 -8 -13 -8 -9 -1 4 6 2 13 -4 15 -15 5 -2 51 22 77 11 12 17 21
14 21 -3 0 3 10 14 22 11 11 18 26 14 31 -3 6 -1 7 4 4 10 -6 67 67 69 88 0 6
4 18 8 27 4 9 5 21 2 27 -4 5 -1 13 5 17 8 4 9 3 5 -4 -4 -7 -2 -12 3 -12 15
0 14 27 -1 33 -10 4 -10 6 0 6 6 1 12 6 12 12 0 5 -4 7 -10 4 -5 -3 -10 -1
-10 5 0 15 -26 41 -33 34 -7 -7 -3 18 4 31 4 6 5 18 4 27 -2 10 2 16 8 15 7
-1 11 4 10 11 -2 6 2 12 8 12 5 0 7 5 3 11 -3 6 -2 14 4 18 7 4 13 17 15 30 2
13 12 30 22 37 14 10 15 14 4 14 -12 0 -12 2 0 9 8 5 12 18 8 30 -3 14 -1 19
6 14 6 -4 8 0 4 9 -3 9 -3 19 1 23 22 21 -8 54 -49 55 -16 0 -26 6 -26 15 0 8
4 15 9 15 5 0 7 4 3 9 -3 5 -1 12 5 16 6 4 8 11 5 16 -4 5 -2 9 3 9 5 0 14 12
20 26 10 20 10 24 0 18 -7 -4 -5 2 6 14 10 12 16 28 12 37 -3 9 -2 14 3 11 5
-3 12 1 15 10 4 10 2 13 -7 8 -8 -5 -7 -2 2 9 11 14 11 17 0 17 -9 0 -10 3 -3
8 13 9 9 67 -6 82 -23 22 -37 58 -28 74 5 9 7 24 4 32 -4 10 -2 12 6 8 7 -5 9
-2 6 7 -3 8 -2 23 2 34 4 11 3 26 -2 33 -7 8 -6 12 3 12 11 0 11 2 -1 10 -8 5
-10 10 -4 10 6 0 10 10 9 23 -2 16 -7 21 -21 19 -15 -3 -17 -1 -6 9 14 15 16
33 2 24 -5 -3 -10 -1 -10 4 0 6 -5 11 -11 11 -5 0 -7 -4 -4 -10 3 -5 4 -10 1
-10 -3 0 -11 12 -19 28 -13 27 -12 86 2 78 10 -7 7 66 -5 85 -12 20 -46 29
-68 17z m-3946 -962 c0 -2 -8 -10 -17 -17 -16 -13 -17 -12 -4 4 13 16 21 21
21 13z m4010 -360 c0 -3 -4 -8 -10 -11 -5 -3 -10 -1 -10 4 0 6 5 11 10 11 6 0
10 -2 10 -4z m-4355 -1197 c11 -16 1 -19 -13 -3 -7 8 -8 14 -3 14 5 0 13 -5
16 -11z m-665 -225 c0 -8 -19 -13 -24 -6 -3 5 1 9 9 9 8 0 15 -2 15 -3z m185
-224 c3 -6 -1 -7 -9 -4 -18 7 -21 14 -7 14 6 0 13 -4 16 -10z m5339 -106 c5
-14 4 -15 -9 -4 -17 14 -19 20 -6 20 5 0 12 -7 15 -16z m-5113 -181 c13 -16
12 -17 -3 -4 -17 13 -22 21 -14 21 2 0 10 -8 17 -17z m75 -35 c3 -4 -1 -5 -10
-4 -8 1 -18 5 -22 8 -3 4 1 5 10 4 8 -1 18 -5 22 -8z m3928 -284 c3 -8 2 -12
-4 -9 -6 3 -10 10 -10 16 0 14 7 11 14 -7z m-3841 -119 c-3 -9 -8 -14 -10 -11
-3 3 -2 9 2 15 9 16 15 13 8 -4z m-53 -55 c0 -5 -5 -10 -11 -10 -5 0 -7 5 -4
10 3 6 8 10 11 10 2 0 4 -4 4 -10z m255 -120 c3 -5 1 -10 -4 -10 -6 0 -11 5
-11 10 0 6 2 10 4 10 3 0 8 -4 11 -10z m-450 -100 c-3 -5 -12 -10 -18 -10 -7
0 -6 4 3 10 19 12 23 12 15 0z m-535 -436 c0 -8 -19 -13 -24 -6 -3 5 1 9 9 9
8 0 15 -2 15 -3z m34 -2 c3 -5 -1 -9 -9 -9 -8 0 -12 4 -9 9 3 4 7 8 9 8 2 0 6
-4 9 -8z m-24 -26 c0 -2 -8 -10 -17 -17 -16 -13 -17 -12 -4 4 13 16 21 21 21
13z m-206 -142 c3 -8 2 -12 -4 -9 -6 3 -10 10 -10 16 0 14 7 11 14 -7z m3756
-38 c0 -2 -7 -7 -16 -10 -8 -3 -12 -2 -9 4 6 10 25 14 25 6z m-1676 -34 c3 -5
-1 -9 -9 -9 -8 0 -12 4 -9 9 3 4 7 8 9 8 2 0 6 -4 9 -8z m1044 -47 c-3 -3 -9
2 -12 12 -6 14 -5 15 5 6 7 -7 10 -15 7 -18z m-1648 -9 c0 -2 -8 -10 -17 -17
-16 -13 -17 -12 -4 4 13 16 21 21 21 13z m1701 -63 c13 -16 12 -17 -3 -4 -17
13 -22 21 -14 21 2 0 10 -8 17 -17z m-914 -138 c0 -8 -4 -12 -9 -9 -5 3 -6 10
-3 15 9 13 12 11 12 -6z m1103 -245 c0 -5 -2 -10 -4 -10 -3 0 -8 5 -11 10 -3
6 -1 10 4 10 6 0 11 -4 11 -10z m40 -36 c0 -8 -19 -13 -24 -6 -3 5 1 9 9 9 8
0 15 -2 15 -3z m100 -135 c0 -6 -4 -7 -10 -4 -5 3 -10 11 -10 16 0 6 5 7 10 4
6 -3 10 -11 10 -16z m833 6 c-3 -9 -8 -14 -10 -11 -3 3 -2 9 2 15 9 16 15 13
8 -4z m1084 0 c0 -8 -4 -12 -9 -9 -5 3 -6 10 -3 15 9 13 12 11 12 -6z m-1024
-10 c-3 -9 -8 -14 -10 -11 -3 3 -2 9 2 15 9 16 15 13 8 -4z m-869 -6 c-3 -6 0
-15 7 -20 9 -6 10 -9 2 -9 -15 0 -26 17 -18 30 3 6 8 10 11 10 3 0 2 -5 -2
-11z"/>
<path d="M7835 6817 c-11 -8 -28 -13 -38 -11 -10 1 -14 -2 -10 -9 4 -6 0 -8
-10 -4 -10 4 -17 2 -17 -4 0 -6 -7 -8 -16 -5 -8 3 -13 2 -10 -3 3 -5 -4 -11
-15 -14 -13 -4 -18 -10 -13 -18 4 -8 3 -10 -4 -5 -7 4 -22 -2 -34 -13 -17 -17
-24 -18 -37 -8 -12 9 -13 9 -7 0 5 -9 2 -11 -8 -7 -8 3 -25 0 -38 -7 -13 -7
-26 -12 -30 -11 -4 1 -4 -6 -1 -15 5 -12 2 -15 -10 -10 -18 7 -42 -17 -32 -32
3 -6 0 -9 -7 -6 -17 6 -39 -12 -59 -49 -9 -15 -19 -27 -24 -26 -4 1 -12 -4
-16 -12 -7 -10 -9 -10 -9 0 0 6 -4 12 -10 12 -6 0 -9 -6 -8 -12 2 -7 -3 -12
-9 -10 -7 1 -13 -3 -13 -10 0 -6 -3 -8 -7 -5 -9 9 -36 -31 -28 -42 3 -6 -4 -8
-16 -6 -18 4 -19 2 -8 -11 7 -8 8 -14 3 -13 -21 4 -28 -2 -14 -11 11 -8 8 -9
-13 -6 -25 4 -27 3 -15 -11 9 -12 9 -14 1 -10 -7 5 -23 1 -36 -8 -13 -8 -26
-14 -28 -13 -2 2 3 -3 11 -11 13 -11 12 -12 -9 -6 -16 5 -21 4 -17 -4 4 -6 2
-11 -4 -11 -6 0 -9 -4 -6 -8 2 -4 0 -14 -6 -22 -8 -12 -9 -12 -4 3 3 9 1 17
-4 17 -6 0 -10 -5 -10 -11 0 -5 -6 -7 -12 -3 -8 5 -7 0 2 -11 9 -11 10 -16 3
-11 -7 4 -13 3 -13 -3 0 -6 -10 -19 -22 -31 -12 -11 -23 -28 -24 -37 -2 -9
-15 -26 -30 -38 -18 -14 -24 -26 -19 -35 6 -9 4 -11 -4 -6 -7 5 -10 15 -7 23
4 9 2 12 -7 7 -26 -15 -46 -37 -41 -45 3 -5 -2 -9 -10 -9 -9 0 -16 -5 -16 -11
0 -5 6 -7 13 -3 8 5 8 3 -2 -9 -7 -9 -18 -14 -25 -10 -6 4 -4 -2 4 -12 8 -10
10 -16 3 -12 -6 4 -14 3 -18 -3 -3 -5 -1 -10 6 -10 7 0 -1 -11 -17 -25 -16
-14 -21 -23 -11 -19 10 3 17 1 17 -5 0 -6 -7 -11 -15 -11 -8 0 -15 -4 -15 -10
0 -21 -2 -25 -15 -33 -8 -4 -12 -14 -8 -23 3 -9 0 -14 -8 -12 -8 2 -13 -4 -13
-14 1 -10 -2 -15 -7 -12 -5 3 -12 -2 -15 -10 -3 -9 -13 -16 -21 -16 -8 0 -11
-4 -8 -10 3 -5 1 -10 -4 -10 -6 0 -11 -7 -11 -16 0 -10 -6 -14 -14 -11 -11 4
-13 1 -9 -10 4 -9 -1 -19 -11 -25 -9 -5 -14 -14 -10 -19 3 -5 0 -17 -8 -26
-11 -14 -11 -16 2 -9 13 6 13 6 0 -6 -9 -7 -15 -28 -15 -47 0 -18 -6 -36 -12
-38 -7 -3 -13 -9 -13 -15 0 -5 6 -6 13 -3 6 4 5 0 -3 -7 -8 -8 -21 -20 -29
-28 -12 -13 -13 -13 -7 0 5 9 2 9 -7 -2 -8 -10 -17 -15 -20 -11 -7 6 -23 -55
-19 -69 1 -4 -5 -5 -13 -2 -11 5 -13 2 -8 -12 5 -13 3 -15 -7 -9 -10 6 -12 4
-7 -8 3 -10 2 -17 -4 -17 -6 0 -7 -4 -4 -10 3 -5 1 -10 -4 -10 -13 0 -10 -22
4 -32 6 -4 2 -8 -8 -8 -10 0 -16 -4 -13 -9 3 -5 -1 -11 -9 -15 -8 -3 -12 -11
-9 -19 2 -7 -7 -27 -21 -43 -35 -40 -46 -53 -45 -56 1 -2 -3 -16 -9 -31 -6
-16 -11 -36 -11 -46 0 -10 -3 -21 -7 -25 -11 -10 -10 -128 0 -141 40 -51 80
-136 82 -178 4 -61 12 -69 26 -28 6 18 14 30 17 27 3 -3 11 -1 19 5 7 7 53 13
101 14 48 2 88 4 90 5 1 1 7 4 12 5 6 1 11 3 13 4 1 1 16 4 32 5 50 5 143 35
159 51 8 8 19 15 25 15 6 0 11 8 11 17 0 9 3 13 7 10 9 -9 34 13 27 24 -3 5
-1 9 5 9 6 0 15 10 22 21 9 17 8 20 -3 13 -11 -6 -11 -5 1 9 7 9 10 17 7 17
-4 0 -1 6 6 14 7 8 17 11 22 8 5 -3 6 0 2 6 -4 7 3 17 18 23 14 7 23 16 20 20
-3 5 4 9 16 9 11 0 23 7 26 15 4 8 10 13 14 10 5 -3 11 -1 15 5 3 5 1 10 -4
10 -6 0 -11 4 -11 10 0 5 6 7 14 4 15 -6 50 42 41 56 -3 6 -1 10 6 10 10 0 10
3 2 11 -14 14 -6 39 14 39 8 0 11 5 8 10 -3 6 1 13 9 16 9 3 16 12 16 20 0 8
6 11 15 8 10 -4 15 0 15 15 0 14 5 19 15 14 10 -3 15 0 13 8 -2 8 3 13 10 12
6 -2 12 1 12 5 0 5 9 19 19 31 11 13 17 29 14 37 -3 9 1 14 12 14 17 0 17 2
-1 22 -13 15 -14 18 -3 10 14 -10 18 -10 23 3 3 8 0 15 -7 15 -9 0 -9 2 -1 8
6 4 15 22 19 40 3 18 16 37 27 43 11 6 17 17 14 25 -3 8 -2 12 3 9 12 -7 60
37 77 70 10 19 10 25 1 26 -7 0 -2 4 9 9 15 6 23 20 26 45 2 20 0 39 -5 42 -4
3 -1 13 7 22 13 14 13 20 3 30 -9 10 -8 11 6 5 13 -5 20 1 28 25 6 17 15 28
20 25 5 -3 6 3 2 12 -5 13 -3 15 7 9 10 -6 12 -3 8 13 -4 14 -2 19 7 16 7 -3
15 3 19 13 3 10 10 28 16 41 7 17 7 21 -2 16 -7 -5 -8 -3 -2 7 13 21 11 32
-11 52 -19 16 -19 18 -2 28 9 5 15 14 12 20 -4 5 1 12 9 15 9 3 16 12 16 20 0
8 5 14 11 14 5 0 8 4 5 9 -3 5 1 12 10 15 9 3 14 12 12 18 -3 7 1 19 8 26 7 7
10 20 7 29 -4 10 -2 14 5 9 6 -3 13 -2 17 4 3 5 -1 10 -10 10 -15 0 -15 1 0
17 15 14 15 18 3 27 -25 18 -26 40 -5 69 11 16 20 44 21 62 1 22 5 31 14 28 8
-4 10 0 6 11 -3 9 -1 16 4 16 6 0 10 9 9 20 -1 13 -6 19 -15 15 -7 -2 -10 0
-7 5 3 6 3 16 -1 22 -11 18 -12 48 -2 54 4 3 8 10 8 15 0 6 -4 8 -9 5 -10 -7
-9 6 3 42 4 12 12 19 18 16 7 -4 8 -2 4 5 -4 6 -11 9 -16 6 -4 -3 -10 -1 -12
5 -2 6 -11 5 -23 -3z m25 -13 c0 -8 -19 -13 -24 -6 -3 5 1 9 9 9 8 0 15 -2 15
-3z m20 -178 c0 -2 -7 -7 -16 -10 -8 -3 -12 -2 -9 4 6 10 25 14 25 6z m-770
-364 c0 -5 -7 -9 -15 -9 -8 0 -12 4 -9 9 3 4 9 8 15 8 5 0 9 -4 9 -8z m-120
-102 c0 -5 -5 -10 -11 -10 -5 0 -7 5 -4 10 3 6 8 10 11 10 2 0 4 -4 4 -10z
m-240 -380 c0 -5 -2 -10 -4 -10 -3 0 -8 5 -11 10 -3 6 -1 10 4 10 6 0 11 -4
11 -10z"/>
<path d="M7866 6775 c-3 -8 -1 -15 3 -15 5 0 11 7 15 15 3 8 1 15 -3 15 -5 0
-11 -7 -15 -15z"/>
<path d="M6625 6640 c-3 -5 -1 -10 4 -10 6 0 11 5 11 10 0 6 -2 10 -4 10 -3 0
-8 -4 -11 -10z"/>
<path d="M8716 5922 c-4 -6 -15 -9 -26 -7 -11 2 -20 1 -20 -3 0 -4 -10 -9 -22
-9 -13 -1 -27 -8 -33 -15 -5 -7 -26 -15 -45 -16 -19 -2 -40 -8 -47 -13 -7 -7
-14 -6 -18 1 -3 6 -11 8 -16 4 -5 -3 -7 -10 -4 -15 4 -5 0 -9 -7 -10 -7 -1
-22 -2 -33 -3 -14 -1 -20 -8 -19 -25 1 -21 -1 -22 -11 -7 -15 20 -29 21 -22 2
4 -11 1 -13 -10 -9 -10 4 -14 2 -9 -5 3 -6 -4 -20 -16 -32 -13 -11 -24 -16
-26 -11 -2 5 -10 7 -18 4 -8 -3 -14 0 -14 7 0 10 -3 10 -15 0 -12 -10 -15 -10
-15 0 0 8 -3 10 -7 6 -5 -4 -8 -13 -8 -18 0 -6 -7 -13 -15 -15 -12 -4 -12 -3
-1 5 8 6 9 12 3 16 -5 3 -13 -1 -16 -10 -3 -8 -10 -12 -16 -9 -10 6 -14 -7
-10 -35 1 -11 -3 -9 -14 5 -9 11 -16 16 -15 10 3 -20 -1 -38 -7 -32 -3 3 -17
-7 -31 -24 -14 -16 -29 -26 -35 -23 -5 3 -18 -2 -29 -12 -11 -10 -19 -12 -19
-6 0 7 -7 12 -16 12 -8 0 -12 -4 -9 -10 3 -5 -3 -10 -14 -10 -26 0 -86 -66
-85 -91 1 -16 -1 -17 -14 -7 -13 10 -14 10 -8 0 4 -7 1 -15 -8 -18 -9 -3 -16
-12 -16 -20 0 -8 -5 -14 -11 -14 -5 0 -7 -6 -3 -12 5 -10 4 -10 -6 -1 -14 12
-43 6 -35 -8 3 -4 -4 -6 -15 -4 -11 2 -20 0 -20 -6 0 -5 -7 -9 -16 -9 -9 0
-12 -5 -8 -12 5 -7 2 -9 -7 -6 -15 6 -42 -16 -32 -26 4 -3 -1 -6 -10 -6 -15 0
-21 -11 -18 -32 0 -4 -6 -5 -14 -2 -11 5 -13 2 -8 -12 5 -13 3 -15 -7 -9 -10
6 -12 4 -7 -8 3 -10 2 -17 -3 -17 -18 0 -58 -48 -48 -58 6 -6 0 -8 -16 -7 -15
2 -24 -1 -20 -6 3 -5 -2 -9 -11 -9 -9 0 -13 -4 -10 -10 3 -5 -1 -10 -10 -10
-9 0 -14 -4 -10 -9 3 -5 0 -13 -6 -16 -5 -4 -8 -14 -5 -22 3 -8 2 -12 -2 -9
-4 2 -14 1 -22 -5 -13 -7 -13 -9 0 -9 12 0 12 -2 2 -9 -12 -7 -19 -25 -21 -55
-1 -4 -12 -6 -25 -4 -18 4 -34 -3 -55 -23 -32 -29 -41 -45 -18 -34 6 4 1 -3
-13 -15 -14 -12 -18 -18 -10 -14 13 7 13 5 2 -9 -8 -9 -15 -33 -17 -54 -2 -21
-4 -38 -5 -38 -1 0 -3 -17 -4 -37 -1 -21 0 -38 3 -38 3 0 7 -30 9 -67 1 -36 7
-71 12 -78 5 -7 6 -15 2 -19 -11 -11 -9 -80 3 -88 6 -5 4 -8 -4 -8 -8 0 -23
-8 -34 -17 -11 -10 -18 -13 -14 -7 13 22 -48 9 -67 -14 -18 -22 -18 -25 -2
-40 12 -12 16 -13 14 -3 -2 7 3 15 10 16 7 2 8 1 3 -1 -5 -3 -7 -14 -4 -24 3
-12 10 -17 17 -13 7 5 7 2 -1 -8 -6 -8 -14 -28 -17 -44 -3 -15 -10 -31 -16
-35 -7 -4 -12 -11 -13 -16 -1 -5 -5 -8 -9 -7 -4 2 -5 -4 -2 -12 4 -9 0 -15
-10 -15 -15 0 -42 -37 -38 -52 1 -4 -4 -5 -12 -2 -8 3 -17 0 -22 -7 -5 -8 -3
-10 6 -4 8 5 11 4 6 -3 -3 -5 0 -13 6 -16 7 -3 4 -4 -8 -1 -24 6 -50 -18 -38
-36 5 -8 3 -9 -5 -5 -8 5 -14 0 -18 -13 -3 -12 -9 -21 -14 -21 -5 0 -9 -9 -9
-21 0 -11 -4 -18 -9 -14 -5 3 -13 0 -17 -6 -4 -8 -3 -9 4 -5 7 4 12 2 12 -3 0
-6 -7 -11 -15 -11 -13 0 -14 -4 -5 -20 6 -11 7 -20 2 -20 -4 0 -8 -15 -8 -34
0 -19 4 -32 8 -30 7 5 12 -10 9 -28 0 -5 5 -8 11 -8 20 0 14 -97 -7 -112 -6
-5 -4 -8 4 -8 11 0 10 -4 -4 -13 -14 -11 -15 -16 -5 -22 9 -5 11 -4 6 3 -4 7
-3 12 2 12 6 0 9 -11 8 -24 -1 -20 -4 -22 -15 -13 -12 10 -12 9 -2 -11 7 -12
15 -21 19 -18 4 2 8 -10 9 -27 1 -18 3 -44 6 -59 2 -16 0 -28 -6 -28 -5 0 -4
-7 3 -15 10 -12 10 -15 -1 -15 -9 0 -10 -3 -4 -8 6 -4 11 -27 13 -52 3 -67 4
-69 22 -75 37 -12 53 -43 55 -110 2 -45 -1 -63 -9 -58 -6 4 -5 -1 3 -10 7 -9
11 -26 8 -37 -3 -11 -1 -20 4 -20 4 0 5 -7 2 -17 -4 -11 -3 -14 5 -9 7 4 12 3
12 -3 0 -5 -6 -12 -12 -15 -7 -4 -3 -4 10 -2 20 4 21 2 10 -12 -7 -9 -8 -13
-2 -9 7 4 19 -5 29 -19 9 -15 12 -23 6 -19 -8 5 -10 -2 -5 -21 4 -16 7 -35 7
-42 0 -7 6 -11 12 -8 6 2 12 -2 12 -10 0 -7 -4 -11 -9 -8 -4 3 -5 -2 -2 -10 3
-9 10 -16 15 -16 5 0 8 -3 8 -7 -4 -25 2 -53 11 -48 6 3 10 -2 10 -12 0 -15 2
-16 10 -3 7 11 10 11 10 2 0 -7 4 -11 9 -8 10 7 37 -52 27 -61 -3 -3 0 -13 7
-21 10 -13 9 -14 -2 -8 -9 6 -12 5 -9 -5 3 -8 11 -13 18 -11 10 2 10 -1 -1
-14 -12 -15 -12 -17 0 -9 11 6 13 3 9 -13 -4 -13 -1 -22 5 -22 7 0 18 -14 26
-31 10 -23 18 -29 33 -26 11 3 17 3 14 0 -10 -10 14 -43 32 -43 13 0 14 -2 3
-9 -11 -7 -10 -12 6 -28 11 -11 17 -25 15 -33 -3 -7 0 -10 6 -7 5 4 15 0 22
-9 7 -8 19 -13 27 -10 8 3 13 -2 13 -15 0 -11 5 -17 10 -14 6 3 10 1 10 -5 0
-7 6 -10 14 -7 17 7 36 -11 30 -28 -3 -7 2 -15 10 -18 10 -4 13 -1 10 7 -4 10
2 12 19 9 18 -4 26 0 29 15 3 11 1 25 -6 32 -8 8 -7 10 4 5 11 -4 16 2 18 21
1 15 6 32 12 39 6 7 6 16 0 23 -6 7 -7 10 -4 8 10 -7 33 18 26 28 -3 5 2 7 11
3 9 -3 19 -2 22 3 4 6 1 10 -4 10 -6 0 -11 5 -11 11 0 5 5 7 10 4 9 -6 14 8
11 29 -1 4 4 14 10 22 9 11 8 14 -2 14 -9 0 -10 3 -4 8 6 4 12 21 12 37 4 98
7 115 20 119 8 3 11 10 8 16 -3 5 -1 10 5 10 6 0 8 5 5 10 -4 6 -11 8 -16 5
-5 -3 -6 1 -3 10 4 9 1 27 -6 41 -11 20 -11 27 4 43 10 11 15 25 11 30 -3 6 1
11 11 11 16 0 15 2 -2 22 -14 17 -14 19 -2 10 15 -12 16 -10 14 20 -2 20 -8
32 -15 30 -7 -1 -10 2 -6 8 3 6 10 8 15 5 11 -7 0 36 -14 54 -9 12 -8 13 3 6
11 -6 12 -5 5 6 -11 19 -12 69 -1 69 5 0 3 8 -4 17 -8 9 -9 14 -3 10 7 -4 11
5 12 24 0 20 -3 27 -11 22 -7 -4 -6 0 2 10 11 14 11 17 0 17 -11 0 -11 2 1 10
9 6 10 10 3 10 -7 0 -17 10 -24 21 -8 16 -8 20 0 14 6 -3 2 10 -9 29 -11 20
-19 40 -19 44 1 4 0 12 -1 17 -7 28 -4 91 5 97 6 4 1 8 -10 9 l-20 0 20 9 c11
5 14 9 7 9 -7 1 -10 6 -7 11 3 6 -2 10 -12 10 -15 0 -16 2 -3 10 12 8 12 10
-4 16 -14 5 -15 9 -4 15 10 7 10 9 1 9 -7 0 -13 7 -13 15 0 8 -9 24 -20 35
-11 11 -17 20 -12 20 4 0 -1 7 -11 14 -12 9 -14 16 -7 21 6 4 8 16 4 27 -4 14
-3 18 6 13 10 -6 9 22 -4 80 -4 17 -37 79 -60 110 -12 17 -23 48 -25 70 -2 22
-8 49 -14 60 -15 28 -16 73 -1 79 40 15 87 -37 119 -134 32 -100 73 -178 117
-222 14 -14 24 -29 20 -32 -3 -3 0 -6 6 -6 6 0 14 -9 17 -20 4 -11 11 -18 16
-15 5 3 6 -1 3 -9 -4 -10 -1 -16 9 -16 9 0 18 -9 22 -19 3 -11 13 -22 21 -25
10 -4 13 -1 9 7 -4 6 0 4 8 -5 8 -10 17 -15 20 -12 9 9 68 -56 62 -67 -9 -13
9 -11 24 4 11 10 11 8 1 -13 -12 -23 -12 -24 4 -11 9 8 19 11 23 7 3 -3 1 -6
-5 -6 -7 0 -12 -7 -12 -16 0 -9 6 -14 13 -11 8 3 20 1 28 -5 11 -8 10 -9 -4
-4 -12 4 -17 2 -15 -6 3 -7 14 -14 26 -16 12 -2 20 -7 17 -12 -3 -5 0 -12 6
-16 7 -4 9 -3 5 4 -3 6 -2 13 4 17 5 3 10 1 10 -6 0 -7 7 -4 15 7 9 12 14 14
15 6 0 -7 5 -10 10 -7 6 3 10 2 10 -2 0 -13 59 -45 69 -38 5 3 13 0 17 -6 5
-8 2 -10 -7 -5 -8 4 -3 -1 10 -12 14 -11 31 -18 38 -15 7 3 13 0 13 -7 0 -7 8
-10 20 -7 11 3 18 1 15 -3 -3 -5 -1 -11 5 -15 5 -3 10 0 10 7 0 10 2 10 9 -1
11 -16 34 -5 25 12 -4 7 -3 8 2 4 5 -5 9 -13 9 -18 0 -5 5 -8 10 -6 6 1 9 5 7
10 -1 4 6 8 15 8 63 5 73 4 78 -9 3 -8 8 -12 12 -9 3 4 13 1 21 -6 13 -10 15
-9 9 8 -7 19 -7 19 7 1 9 -11 22 -16 31 -13 8 4 15 3 15 -1 0 -4 14 -8 30 -9
17 -1 28 2 25 7 -3 6 1 7 9 4 9 -3 13 -11 9 -18 -4 -6 0 -6 9 2 9 7 20 11 24
10 5 -2 24 3 42 11 24 10 30 16 20 22 -10 7 -8 9 5 9 10 0 16 4 13 8 -5 9 51
10 69 1 6 -2 27 -4 48 -4 20 1 37 -3 37 -8 0 -6 5 -6 13 0 6 5 25 10 41 11 17
1 32 5 35 10 11 14 45 37 38 25 -5 -8 1 -8 19 2 16 8 34 11 43 6 9 -4 23 -7
31 -6 8 0 18 -4 22 -9 4 -6 17 -5 34 3 23 10 25 10 16 -1 -9 -11 -6 -14 14
-16 13 -1 24 3 24 9 0 8 4 8 13 1 8 -7 16 -6 24 3 6 7 10 15 8 17 -3 2 16 3
40 2 29 -2 45 2 45 9 0 8 3 9 8 2 10 -15 52 -16 52 -2 0 8 3 8 8 2 9 -13 32
-18 32 -7 0 5 14 8 30 7 21 -1 30 3 30 14 0 14 2 14 10 1 8 -13 11 -13 22 -1
11 11 11 13 -1 6 -9 -5 -12 -4 -7 3 4 6 14 8 23 5 12 -5 15 -2 11 8 -4 11 0
15 16 15 12 -1 20 4 18 12 -1 7 5 15 13 18 12 5 10 10 -9 25 -13 10 -30 19
-38 19 -7 0 -22 11 -32 25 -10 13 -22 23 -26 20 -4 -2 -16 4 -27 15 -12 10
-24 16 -27 12 -4 -3 -4 0 -1 9 3 9 -5 28 -20 45 -14 16 -25 33 -25 37 0 5 -4
5 -10 2 -5 -3 -10 -2 -10 3 0 5 -13 12 -28 15 -22 5 -28 11 -27 29 3 32 -5 49
-19 41 -6 -4 -6 0 2 9 15 19 0 34 -20 22 -9 -5 -8 -2 1 9 12 16 12 17 -5 11
-10 -4 -16 -4 -12 1 7 7 -37 49 -46 43 -2 -2 -13 5 -24 15 -12 11 -26 16 -31
12 -6 -3 -11 -1 -11 5 0 6 -4 9 -9 5 -5 -3 -13 4 -16 15 -5 17 -9 19 -21 9
-12 -10 -15 -10 -12 2 2 8 -3 13 -11 11 -9 -2 -12 4 -8 19 3 11 3 18 0 15 -10
-9 -32 14 -27 28 5 13 -28 35 -61 40 -11 2 -19 8 -18 14 1 6 -5 9 -15 7 -9 -1
-20 3 -24 9 -5 8 -8 7 -8 -2 0 -8 -8 -5 -22 8 -24 22 -44 27 -32 8 4 -7 3 -8
-4 -4 -7 4 -12 14 -12 22 0 8 -4 12 -10 9 -5 -3 -10 -1 -10 5 0 6 -4 8 -10 5
-5 -3 -10 -1 -10 4 0 6 -7 11 -15 11 -8 0 -15 4 -15 8 0 4 -14 9 -32 10 -17 2
-38 8 -45 14 -9 8 -13 7 -13 -1 0 -7 -13 -3 -32 10 -17 13 -29 18 -25 12 4 -6
-3 -10 -18 -10 -14 0 -22 3 -20 7 8 13 -21 6 -39 -9 -14 -12 -16 -11 -9 5 6
17 5 18 -12 4 -11 -9 -16 -10 -11 -2 4 6 3 12 -1 12 -5 0 -15 -6 -22 -12 -8
-7 -11 -8 -8 -3 3 6 2 17 -4 25 -7 13 -9 13 -9 1 0 -9 -7 -6 -20 9 -13 15 -20
18 -20 9 -1 -10 -4 -8 -11 4 -9 15 -13 16 -27 5 -9 -7 -13 -8 -9 -2 4 8 -6 12
-31 13 -20 0 -44 1 -52 1 -8 0 -49 -1 -90 -3 -41 -3 -83 0 -94 5 -13 7 -16 7
-11 -2 5 -7 0 -7 -14 2 -18 11 -23 11 -31 -2 -5 -8 -10 -10 -10 -4 0 14 -62
14 -72 -1 -5 -7 -8 -7 -8 1 0 8 -41 11 -69 5 -2 -1 3 -9 10 -18 12 -14 10 -14
-13 1 -16 10 -28 14 -28 7 0 -5 -7 -8 -15 -5 -8 4 -15 1 -15 -5 0 -6 -10 -11
-23 -11 -13 0 -28 -5 -35 -12 -7 -7 -12 -9 -12 -5 0 15 -117 -42 -165 -81 -11
-9 -103 -7 -141 2 -28 7 -28 24 2 40 10 6 22 15 25 19 3 5 8 7 10 5 8 -6 117
62 140 89 14 15 32 29 39 31 8 2 18 8 21 14 3 5 9 9 13 9 16 -3 56 12 67 25 6
8 15 12 19 9 5 -3 15 4 23 15 7 11 17 17 20 13 4 -3 7 1 7 11 0 9 4 15 8 12 4
-2 13 8 20 23 11 25 56 57 75 53 4 -1 7 3 7 8 0 5 3 9 8 8 12 -4 82 34 82 44
0 5 5 6 10 3 9 -6 14 7 11 27 0 4 6 5 13 2 8 -3 19 3 25 15 14 25 14 44 1 36
-5 -3 -7 0 -4 9 3 8 12 17 20 20 9 3 13 10 9 15 -3 6 4 8 16 6 14 -3 19 0 16
9 -4 9 2 12 19 8 13 -2 24 0 24 6 0 6 9 14 20 17 11 4 18 11 15 16 -3 5 0 6 8
3 16 -6 97 71 97 92 0 8 4 14 9 14 4 0 7 12 5 26 -1 14 0 23 3 20 8 -8 32 18
25 28 -3 5 1 6 8 1 8 -5 21 3 36 20 13 16 24 24 24 19 0 -5 9 4 19 20 11 17
18 33 15 38 -3 4 0 8 6 8 6 0 8 4 5 10 -3 5 2 21 11 35 9 14 12 25 8 25 -5 0
0 7 10 15 11 8 16 15 10 15 -5 0 -3 4 5 9 13 8 13 12 0 28 -13 17 -13 17 4 4
20 -16 25 -13 30 15 1 10 7 25 11 33 7 10 5 12 -5 6 -11 -6 -12 -5 -1 6 6 7
12 21 12 32 0 11 4 15 12 11 8 -5 9 -2 5 10 -4 9 -3 14 2 11 5 -3 12 -1 16 5
3 5 0 10 -7 11 -7 0 -2 5 12 11 16 6 20 12 12 15 -10 4 -7 9 8 20 14 10 20 22
17 34 -3 11 -1 19 5 19 6 0 8 7 5 14 -4 10 -1 13 7 10 10 -4 12 2 9 20 -3 14
-10 26 -17 26 -7 0 -7 3 -1 8 15 10 36 62 30 72 -3 4 2 13 10 20 13 11 13 14
-2 27 -10 8 -12 11 -4 7 18 -9 33 17 19 33 -8 10 -6 13 6 13 9 0 16 4 16 9 0
10 -19 9 -37 -2 -8 -5 -11 -1 -8 12 3 17 0 19 -21 11 -13 -5 -24 -7 -24 -4 0
3 -10 -2 -21 -10 -17 -12 -26 -12 -43 -3 -11 7 -24 16 -27 21 -4 4 -9 3 -13
-2z m-716 -325 c0 -2 -10 -12 -22 -23 l-23 -19 19 23 c18 21 26 27 26 19z
m255 -756 c-9 -8 -36 -10 -30 -2 2 4 11 8 20 8 8 0 13 -3 10 -6z m-945 -355
c0 -3 -4 -8 -10 -11 -5 -3 -10 -1 -10 4 0 6 5 11 10 11 6 0 10 -2 10 -4z
m2060 -401 c11 -13 10 -14 -4 -9 -9 3 -16 10 -16 15 0 13 6 11 20 -6z m354
-363 c2 -4 -4 -9 -15 -9 -11 -1 -17 2 -14 8 7 11 22 12 29 1z m-2214 -1096 c0
-3 -4 -8 -10 -11 -5 -3 -10 -1 -10 4 0 6 5 11 10 11 6 0 10 -2 10 -4z m180
-126 c0 -5 -5 -10 -11 -10 -5 0 -7 5 -4 10 3 6 8 10 11 10 2 0 4 -4 4 -10z"/>
<path d="M5100 4279 c0 -5 5 -7 10 -4 6 3 10 8 10 11 0 2 -4 4 -10 4 -5 0 -10
-5 -10 -11z"/>
<path d="M9198 4223 c7 -3 16 -2 19 1 4 3 -2 6 -13 5 -11 0 -14 -3 -6 -6z"/>
<path d="M2340 3280 c0 -5 5 -10 11 -10 5 0 7 5 4 10 -3 6 -8 10 -11 10 -2 0
-4 -4 -4 -10z"/>
<path d="M7610 2500 c0 -5 5 -10 11 -10 5 0 7 5 4 10 -3 6 -8 10 -11 10 -2 0
-4 -4 -4 -10z"/>
</g>
</svg>
